<?xml version="1.0" encoding="utf-8" ?>
<svg baseProfile="full" height="600px" version="1.1" width="900px" xmlns="http://www.w3.org/2000/svg" xmlns:ev="http://www.w3.org/2001/xml-events" xmlns:xlink="http://www.w3.org/1999/xlink"><defs /><rect fill="#ffffff" height="600" stroke="#1a1a2e" stroke-width="2" width="900" x="0" y="0" /><text fill="#1a1a2e" font-size="22px" font-weight="bold" text-anchor="middle" x="450" y="50">Sprint 4 Burndown Chart (84 Story Points Total)</text><line stroke="#1a1a2e" stroke-width="2" x1="100" x2="800" y1="500" y2="500" /><line stroke="#1a1a2e" stroke-width="2" x1="100" x2="100" y1="500" y2="100" /><line stroke="#eee" stroke-width="1" x1="95" x2="800" y1="500.0" y2="500.0" /><text fill="#6c757d" font-size="12px" text-anchor="end" x="90" y="505.0">0</text><line stroke="#eee" stroke-width="1" x1="95" x2="800" y1="452.3809523809524" y2="452.3809523809524" /><text fill="#6c757d" font-size="12px" text-anchor="end" x="90" y="457.3809523809524">10</text><line stroke="#eee" stroke-width="1" x1="95" x2="800" y1="404.76190476190476" y2="404.76190476190476" /><text fill="#6c757d" font-size="12px" text-anchor="end" x="90" y="409.76190476190476">20</text><line stroke="#eee" stroke-width="1" x1="95" x2="800" y1="357.1428571428571" y2="357.1428571428571" /><text fill="#6c757d" font-size="12px" text-anchor="end" x="90" y="362.1428571428571">30</text><line stroke="#eee" stroke-width="1" x1="95" x2="800" y1="309.5238095238095" y2="309.5238095238095" /><text fill="#6c757d" font-size="12px" text-anchor="end" x="90" y="314.5238095238095">40</text><line stroke="#eee" stroke-width="1" x1="95" x2="800" y1="261.9047619047619" y2="261.9047619047619" /><text fill="#6c757d" font-size="12px" text-anchor="end" x="90" y="266.9047619047619">50</text><line stroke="#eee" stroke-width="1" x1="95" x2="800" y1="214.28571428571428" y2="214.28571428571428" /><text fill="#6c757d" font-size="12px" text-anchor="end" x="90" y="219.28571428571428">60</text><line stroke="#eee" stroke-width="1" x1="95" x2="800" y1="166.66666666666663" y2="166.66666666666663" /><text fill="#6c757d" font-size="12px" text-anchor="end" x="90" y="171.66666666666663">70</text><line stroke="#eee" stroke-width="1" x1="95" x2="800" y1="119.0476190476191" y2="119.0476190476191" /><text fill="#6c757d" font-size="12px" text-anchor="end" x="90" y="124.0476190476191">80</text><line stroke="#eee" stroke-width="1" x1="95" x2="800" y1="71.42857142857144" y2="71.42857142857144" /><text fill="#6c757d" font-size="12px" text-anchor="end" x="90" y="76.42857142857144">90</text><line stroke="#eee" stroke-width="1" x1="100.0" x2="100.0" y1="500" y2="100" /><text fill="#6c757d" font-size="12px" text-anchor="middle" x="100.0" y="525">Day 0</text><line stroke="#eee" stroke-width="1" x1="170.0" x2="170.0" y1="500" y2="100" /><text fill="#6c757d" font-size="12px" text-anchor="middle" x="170.0" y="525">Day 1</text><line stroke="#eee" stroke-width="1" x1="240.0" x2="240.0" y1="500" y2="100" /><text fill="#6c757d" font-size="12px" text-anchor="middle" x="240.0" y="525">Day 2</text><line stroke="#eee" stroke-width="1" x1="310.0" x2="310.0" y1="500" y2="100" /><text fill="#6c757d" font-size="12px" text-anchor="middle" x="310.0" y="525">Day 3</text><line stroke="#eee" stroke-width="1" x1="380.0" x2="380.0" y1="500" y2="100" /><text fill="#6c757d" font-size="12px" text-anchor="middle" x="380.0" y="525">Day 4</text><line stroke="#eee" stroke-width="1" x1="450.0" x2="450.0" y1="500" y2="100" /><text fill="#6c757d" font-size="12px" text-anchor="middle" x="450.0" y="525">Day 5</text><line stroke="#eee" stroke-width="1" x1="520.0" x2="520.0" y1="500" y2="100" /><text fill="#6c757d" font-size="12px" text-anchor="middle" x="520.0" y="525">Day 6</text><line stroke="#eee" stroke-width="1" x1="590.0" x2="590.0" y1="500" y2="100" /><text fill="#6c757d" font-size="12px" text-anchor="middle" x="590.0" y="525">Day 7</text><line stroke="#eee" stroke-width="1" x1="660.0" x2="660.0" y1="500" y2="100" /><text fill="#6c757d" font-size="12px" text-anchor="middle" x="660.0" y="525">Day 8</text><line stroke="#eee" stroke-width="1" x1="730.0" x2="730.0" y1="500" y2="100" /><text fill="#6c757d" font-size="12px" text-anchor="middle" x="730.0" y="525">Day 9</text><line stroke="#eee" stroke-width="1" x1="800.0" x2="800.0" y1="500" y2="100" /><text fill="#6c757d" font-size="12px" text-anchor="middle" x="800.0" y="525">Day 10</text><line stroke="#007bff" stroke-dasharray="8,4" stroke-width="2" x1="100" x2="800" y1="100" y2="500" /><circle cx="100.0" cy="100.0" fill="#e94560" r="5" /><text fill="#e94560" font-size="11px" font-weight="bold" text-anchor="middle" x="100.0" y="90.0">84</text><circle cx="170.0" cy="109.52380952380952" fill="#e94560" r="5" /><text fill="#e94560" font-size="11px" font-weight="bold" text-anchor="middle" x="170.0" y="99.52380952380952">82</text><circle cx="240.0" cy="128.57142857142856" fill="#e94560" r="5" /><text fill="#e94560" font-size="11px" font-weight="bold" text-anchor="middle" x="240.0" y="118.57142857142856">78</text><circle cx="310.0" cy="190.47619047619048" fill="#e94560" r="5" /><text fill="#e94560" font-size="11px" font-weight="bold" text-anchor="middle" x="310.0" y="180.47619047619048">65</text><circle cx="380.0" cy="238.09523809523807" fill="#e94560" r="5" /><text fill="#e94560" font-size="11px" font-weight="bold" text-anchor="middle" x="380.0" y="228.09523809523807">55</text><circle cx="450.0" cy="300.0" fill="#e94560" r="5" /><text fill="#e94560" font-size="11px" font-weight="bold" text-anchor="middle" x="450.0" y="290.0">42</text><circle cx="520.0" cy="357.1428571428571" fill="#e94560" r="5" /><text fill="#e94560" font-size="11px" font-weight="bold" text-anchor="middle" x="520.0" y="347.1428571428571">30</text><circle cx="590.0" cy="395.23809523809524" fill="#e94560" r="5" /><text fill="#e94560" font-size="11px" font-weight="bold" text-anchor="middle" x="590.0" y="385.23809523809524">22</text><circle cx="660.0" cy="442.8571428571429" fill="#e94560" r="5" /><text fill="#e94560" font-size="11px" font-weight="bold" text-anchor="middle" x="660.0" y="432.8571428571429">12</text><circle cx="730.0" cy="461.9047619047619" fill="#e94560" r="5" /><text fill="#e94560" font-size="11px" font-weight="bold" text-anchor="middle" x="730.0" y="451.9047619047619">8</text><circle cx="800.0" cy="476.1904761904762" fill="#e94560" r="5" /><text fill="#e94560" font-size="11px" font-weight="bold" text-anchor="middle" x="800.0" y="466.1904761904762">5</text><polyline fill="none" points="100.0,100.0 170.0,109.52380952380952 240.0,128.57142857142856 310.0,190.47619047619048 380.0,238.09523809523807 450.0,300.0 520.0,357.1428571428571 590.0,395.23809523809524 660.0,442.8571428571429 730.0,461.9047619047619 800.0,476.1904761904762" stroke="#e94560" stroke-width="4" /><line stroke="#6c757d" stroke-dasharray="2,2" x1="310.0" x2="310.0" y1="190.47619047619048" y2="170.47619047619048" /><text fill="#6c757d" font-size="10px" font-style="italic" text-anchor="middle" x="310.0" y="165.47619047619048">BPMN Refined</text><line stroke="#6c757d" stroke-dasharray="2,2" x1="450.0" x2="450.0" y1="300.0" y2="270.0" /><text fill="#6c757d" font-size="10px" font-style="italic" text-anchor="middle" x="450.0" y="265.0">Auth Logic Done</text><line stroke="#6c757d" stroke-dasharray="2,2" x1="660.0" x2="660.0" y1="442.8571428571429" y2="402.8571428571429" /><text fill="#6c757d" font-size="10px" font-style="italic" text-anchor="middle" x="660.0" y="397.8571428571429">RDS Migration</text><rect fill="#ffffff" height="80" stroke="#ccc" width="200" x="650" y="100" /><line stroke="#007bff" stroke-dasharray="8,4" stroke-width="2" x1="660" x2="690" y1="125" y2="125" /><text fill="#1a1a2e" font-size="12px" x="700" y="130">Ideal Burndown</text><line stroke="#e94560" stroke-width="4" x1="660" x2="690" y1="155" y2="155" /><text fill="#1a1a2e" font-size="12px" x="700" y="160">Actual Burndown</text></svg>