<?xml version="1.0" encoding="utf-8" ?>
<svg baseProfile="full" height="1500px" version="1.1" width="1200px" xmlns="http://www.w3.org/2000/svg" xmlns:ev="http://www.w3.org/2001/xml-events" xmlns:xlink="http://www.w3.org/1999/xlink"><defs /><rect fill="#f4f4f4" height="1500" width="1200" x="0" y="0" /><rect fill="#0f3460" height="60" width="1200" x="0" y="0" /><text fill="#ffffff" font-family="Arial" font-size="22px" font-weight="bold" text-anchor="middle" x="600.0" y="37.0">CVD Clinic - Sprint 4 Master Board</text><rect fill="#f8f9fa" height="1400" rx="10" stroke="#ccc" width="380" x="15" y="80" /><text fill="#1a1a2e" font-size="18px" font-weight="bold" text-anchor="middle" x="205.0" y="110">TO DO (5)</text><rect fill="#ffffff" height="70" rx="5" ry="5" stroke="#ddd" stroke-width="1" width="350" x="30" y="130" /><rect fill="#ffc107" height="70" width="5" x="30" y="130" /><text fill="#1a1a2e" font-family="Arial" font-size="11px" font-weight="bold" x="45" y="152">Individual Reflective Evaluations (Self)</text><text fill="#6c757d" font-family="Arial" font-size="10px" x="45" y="185">Assignee: Jayrup Nakawala</text><text fill="#ffc107" font-family="Arial" font-size="9px" font-weight="bold" text-anchor="end" x="365" y="185">Medium</text><rect fill="#ffffff" height="70" rx="5" ry="5" stroke="#ddd" stroke-width="1" width="350" x="30" y="210" /><rect fill="#ffc107" height="70" width="5" x="30" y="210" /><text fill="#1a1a2e" font-family="Arial" font-size="11px" font-weight="bold" x="45" y="232">Individual Reflective Evaluations (Hard)</text><text fill="#6c757d" font-family="Arial" font-size="10px" x="45" y="265">Assignee: Hard Joshi</text><text fill="#ffc107" font-family="Arial" font-size="9px" font-weight="bold" text-anchor="end" x="365" y="265">Medium</text><rect fill="#ffffff" height="70" rx="5" ry="5" stroke="#ddd" stroke-width="1" width="350" x="30" y="290" /><rect fill="#ffc107" height="70" width="5" x="30" y="290" /><text fill="#1a1a2e" font-family="Arial" font-size="11px" font-weight="bold" x="45" y="312">Individual Reflective Evaluations (Fatema)</text><text fill="#6c757d" font-family="Arial" font-size="10px" x="45" y="345">Assignee: Fatema Doctor</text><text fill="#ffc107" font-family="Arial" font-size="9px" font-weight="bold" text-anchor="end" x="365" y="345">Medium</text><rect fill="#ffffff" height="70" rx="5" ry="5" stroke="#ddd" stroke-width="1" width="350" x="30" y="370" /><rect fill="#ffc107" height="70" width="5" x="30" y="370" /><text fill="#1a1a2e" font-family="Arial" font-size="11px" font-weight="bold" x="45" y="392">Individual Reflective Evaluations (Sangeet)</text><text fill="#6c757d" font-family="Arial" font-size="10px" x="45" y="425">Assignee: Sangeet Kaur</text><text fill="#ffc107" font-family="Arial" font-size="9px" font-weight="bold" text-anchor="end" x="365" y="425">Medium</text><rect fill="#ffffff" height="70" rx="5" ry="5" stroke="#ddd" stroke-width="1" width="350" x="30" y="450" /><rect fill="#28a745" height="70" width="5" x="30" y="450" /><text fill="#1a1a2e" font-family="Arial" font-size="11px" font-weight="bold" x="45" y="472">Final PDF Export &amp;</text><text fill="#1a1a2e" font-family="Arial" font-size="11px" font-weight="bold" x="45" y="486">Plagiarism Check</text><text fill="#6c757d" font-family="Arial" font-size="10px" x="45" y="505">Assignee: Jayrup Nakawala</text><text fill="#28a745" font-family="Arial" font-size="9px" font-weight="bold" text-anchor="end" x="365" y="505">Low</text><rect fill="#fff9e6" height="1400" rx="10" stroke="#ccc" width="380" x="410" y="80" /><text fill="#1a1a2e" font-size="18px" font-weight="bold" text-anchor="middle" x="600.0" y="110">IN PROGRESS (3)</text><rect fill="#ffffff" height="70" rx="5" ry="5" stroke="#ddd" stroke-width="1" width="350" x="425" y="130" /><rect fill="#e94560" height="70" width="5" x="425" y="130" /><text fill="#1a1a2e" font-family="Arial" font-size="11px" font-weight="bold" x="440" y="152">Final Technical Report Compilation</text><text fill="#1a1a2e" font-family="Arial" font-size="11px" font-weight="bold" x="440" y="166">(Typst)</text><text fill="#6c757d" font-family="Arial" font-size="10px" x="440" y="185">Assignee: Hard Joshi</text><text fill="#e94560" font-family="Arial" font-size="9px" font-weight="bold" text-anchor="end" x="760" y="185">High</text><rect fill="#ffffff" height="70" rx="5" ry="5" stroke="#ddd" stroke-width="1" width="350" x="425" y="210" /><rect fill="#ffc107" height="70" width="5" x="425" y="210" /><text fill="#1a1a2e" font-family="Arial" font-size="11px" font-weight="bold" x="440" y="232">E2E System Validation &amp;</text><text fill="#1a1a2e" font-family="Arial" font-size="11px" font-weight="bold" x="440" y="246">AWS Health Checks</text><text fill="#6c757d" font-family="Arial" font-size="10px" x="440" y="265">Assignee: Sangeet Kaur</text><text fill="#ffc107" font-family="Arial" font-size="9px" font-weight="bold" text-anchor="end" x="760" y="265">Medium</text><rect fill="#ffffff" height="70" rx="5" ry="5" stroke="#ddd" stroke-width="1" width="350" x="425" y="290" /><rect fill="#28a745" height="70" width="5" x="425" y="290" /><text fill="#1a1a2e" font-family="Arial" font-size="11px" font-weight="bold" x="440" y="312">Bibliography &amp; Reference Management</text><text fill="#6c757d" font-family="Arial" font-size="10px" x="440" y="345">Assignee: Jayrup Nakawala</text><text fill="#28a745" font-family="Arial" font-size="9px" font-weight="bold" text-anchor="end" x="760" y="345">Low</text><rect fill="#e6ffed" height="1400" rx="10" stroke="#ccc" width="380" x="805" y="80" /><text fill="#1a1a2e" font-size="18px" font-weight="bold" text-anchor="middle" x="995.0" y="110">DONE (16)</text><rect fill="#ffffff" height="70" rx="5" ry="5" stroke="#ddd" stroke-width="1" width="350" x="820" y="130" /><rect fill="#e94560" height="70" width="5" x="820" y="130" /><text fill="#1a1a2e" font-family="Arial" font-size="11px" font-weight="bold" x="835" y="152">Stakeholder Analysis &amp; Case</text><text fill="#1a1a2e" font-family="Arial" font-size="11px" font-weight="bold" x="835" y="166">Study Review</text><text fill="#6c757d" font-family="Arial" font-size="10px" x="835" y="185">Assignee: Jayrup Nakawala</text><text fill="#e94560" font-family="Arial" font-size="9px" font-weight="bold" text-anchor="end" x="1155" y="185">High</text><rect fill="#ffffff" height="70" rx="5" ry="5" stroke="#ddd" stroke-width="1" width="350" x="820" y="210" /><rect fill="#ffc107" height="70" width="5" x="820" y="210" /><text fill="#1a1a2e" font-family="Arial" font-size="11px" font-weight="bold" x="835" y="232">Initial BPMN Process Mapping</text><text fill="#1a1a2e" font-family="Arial" font-size="11px" font-weight="bold" x="835" y="246">(Bonita)</text><text fill="#6c757d" font-family="Arial" font-size="10px" x="835" y="265">Assignee: Hard Joshi</text><text fill="#ffc107" font-family="Arial" font-size="9px" font-weight="bold" text-anchor="end" x="1155" y="265">Medium</text><rect fill="#ffffff" height="70" rx="5" ry="5" stroke="#ddd" stroke-width="1" width="350" x="820" y="290" /><rect fill="#e94560" height="70" width="5" x="820" y="290" /><text fill="#1a1a2e" font-family="Arial" font-size="11px" font-weight="bold" x="835" y="312">Database Normalization (3NF) &amp;</text><text fill="#1a1a2e" font-family="Arial" font-size="11px" font-weight="bold" x="835" y="326">ERD Design</text><text fill="#6c757d" font-family="Arial" font-size="10px" x="835" y="345">Assignee: Sangeet Kaur</text><text fill="#e94560" font-family="Arial" font-size="9px" font-weight="bold" text-anchor="end" x="1155" y="345">High</text><rect fill="#ffffff" height="70" rx="5" ry="5" stroke="#ddd" stroke-width="1" width="350" x="820" y="370" /><rect fill="#e94560" height="70" width="5" x="820" y="370" /><text fill="#1a1a2e" font-family="Arial" font-size="11px" font-weight="bold" x="835" y="392">UML Class Diagram &amp;</text><text fill="#1a1a2e" font-family="Arial" font-size="11px" font-weight="bold" x="835" y="406">Operation Modeling</text><text fill="#6c757d" font-family="Arial" font-size="10px" x="835" y="425">Assignee: Hard Joshi</text><text fill="#e94560" font-family="Arial" font-size="9px" font-weight="bold" text-anchor="end" x="1155" y="425">High</text><rect fill="#ffffff" height="70" rx="5" ry="5" stroke="#ddd" stroke-width="1" width="350" x="820" y="450" /><rect fill="#ffc107" height="70" width="5" x="820" y="450" /><text fill="#1a1a2e" font-family="Arial" font-size="11px" font-weight="bold" x="835" y="472">AWS VPC &amp; Subnet</text><text fill="#1a1a2e" font-family="Arial" font-size="11px" font-weight="bold" x="835" y="486">Architecture Design</text><text fill="#6c757d" font-family="Arial" font-size="10px" x="835" y="505">Assignee: Hard Joshi</text><text fill="#ffc107" font-family="Arial" font-size="9px" font-weight="bold" text-anchor="end" x="1155" y="505">Medium</text><rect fill="#ffffff" height="70" rx="5" ry="5" stroke="#ddd" stroke-width="1" width="350" x="820" y="530" /><rect fill="#28a745" height="70" width="5" x="820" y="530" /><text fill="#1a1a2e" font-family="Arial" font-size="11px" font-weight="bold" x="835" y="552">Flask Project Initialization &amp;</text><text fill="#1a1a2e" font-family="Arial" font-size="11px" font-weight="bold" x="835" y="566">Env Setup</text><text fill="#6c757d" font-family="Arial" font-size="10px" x="835" y="585">Assignee: Sangeet Kaur</text><text fill="#28a745" font-family="Arial" font-size="9px" font-weight="bold" text-anchor="end" x="1155" y="585">Low</text><rect fill="#ffffff" height="70" rx="5" ry="5" stroke="#ddd" stroke-width="1" width="350" x="820" y="610" /><rect fill="#e94560" height="70" width="5" x="820" y="610" /><text fill="#1a1a2e" font-family="Arial" font-size="11px" font-weight="bold" x="835" y="632">SQLAlchemy Model Implementation (Patient/Staff)</text><text fill="#6c757d" font-family="Arial" font-size="10px" x="835" y="665">Assignee: Hard Joshi</text><text fill="#e94560" font-family="Arial" font-size="9px" font-weight="bold" text-anchor="end" x="1155" y="665">High</text><rect fill="#ffffff" height="70" rx="5" ry="5" stroke="#ddd" stroke-width="1" width="350" x="820" y="690" /><rect fill="#e94560" height="70" width="5" x="820" y="690" /><text fill="#1a1a2e" font-family="Arial" font-size="11px" font-weight="bold" x="835" y="712">Patient Portal: Registration &amp;</text><text fill="#1a1a2e" font-family="Arial" font-size="11px" font-weight="bold" x="835" y="726">Auth Logic</text><text fill="#6c757d" font-family="Arial" font-size="10px" x="835" y="745">Assignee: Fatema Doctor</text><text fill="#e94560" font-family="Arial" font-size="9px" font-weight="bold" text-anchor="end" x="1155" y="745">High</text><rect fill="#ffffff" height="70" rx="5" ry="5" stroke="#ddd" stroke-width="1" width="350" x="820" y="770" /><rect fill="#ffc107" height="70" width="5" x="820" y="770" /><text fill="#1a1a2e" font-family="Arial" font-size="11px" font-weight="bold" x="835" y="792">UI/UX: Brand Identity &amp;</text><text fill="#1a1a2e" font-family="Arial" font-size="11px" font-weight="bold" x="835" y="806">CSS Design System</text><text fill="#6c757d" font-family="Arial" font-size="10px" x="835" y="825">Assignee: Fatema Doctor</text><text fill="#ffc107" font-family="Arial" font-size="9px" font-weight="bold" text-anchor="end" x="1155" y="825">Medium</text><rect fill="#ffffff" height="70" rx="5" ry="5" stroke="#ddd" stroke-width="1" width="350" x="820" y="850" /><rect fill="#ffc107" height="70" width="5" x="820" y="850" /><text fill="#1a1a2e" font-family="Arial" font-size="11px" font-weight="bold" x="835" y="872">Appointment Booking API &amp;</text><text fill="#1a1a2e" font-family="Arial" font-size="11px" font-weight="bold" x="835" y="886">Frontend Logic</text><text fill="#6c757d" font-family="Arial" font-size="10px" x="835" y="905">Assignee: Fatema Doctor</text><text fill="#ffc107" font-family="Arial" font-size="9px" font-weight="bold" text-anchor="end" x="1155" y="905">Medium</text><rect fill="#ffffff" height="70" rx="5" ry="5" stroke="#ddd" stroke-width="1" width="350" x="820" y="930" /><rect fill="#ffc107" height="70" width="5" x="820" y="930" /><text fill="#1a1a2e" font-family="Arial" font-size="11px" font-weight="bold" x="835" y="952">Nurse Dashboard: Vitals Input</text><text fill="#1a1a2e" font-family="Arial" font-size="11px" font-weight="bold" x="835" y="966">Form</text><text fill="#6c757d" font-family="Arial" font-size="10px" x="835" y="985">Assignee: Sangeet Kaur</text><text fill="#ffc107" font-family="Arial" font-size="9px" font-weight="bold" text-anchor="end" x="1155" y="985">Medium</text><rect fill="#ffffff" height="70" rx="5" ry="5" stroke="#ddd" stroke-width="1" width="350" x="820" y="1010" /><rect fill="#e94560" height="70" width="5" x="820" y="1010" /><text fill="#1a1a2e" font-family="Arial" font-size="11px" font-weight="bold" x="835" y="1032">Consultant Dashboard: Section 2</text><text fill="#1a1a2e" font-family="Arial" font-size="11px" font-weight="bold" x="835" y="1046">Evaluation</text><text fill="#6c757d" font-family="Arial" font-size="10px" x="835" y="1065">Assignee: Jayrup Nakawala</text><text fill="#e94560" font-family="Arial" font-size="9px" font-weight="bold" text-anchor="end" x="1155" y="1065">High</text><rect fill="#ffffff" height="70" rx="5" ry="5" stroke="#ddd" stroke-width="1" width="350" x="820" y="1090" /><rect fill="#e94560" height="70" width="5" x="820" y="1090" /><text fill="#1a1a2e" font-family="Arial" font-size="11px" font-weight="bold" x="835" y="1112">Unified Medical Record Compilation</text><text fill="#1a1a2e" font-family="Arial" font-size="11px" font-weight="bold" x="835" y="1126">Logic</text><text fill="#6c757d" font-family="Arial" font-size="10px" x="835" y="1145">Assignee: Sangeet Kaur</text><text fill="#e94560" font-family="Arial" font-size="9px" font-weight="bold" text-anchor="end" x="1155" y="1145">High</text><rect fill="#ffffff" height="70" rx="5" ry="5" stroke="#ddd" stroke-width="1" width="350" x="820" y="1170" /><rect fill="#e94560" height="70" width="5" x="820" y="1170" /><text fill="#1a1a2e" font-family="Arial" font-size="11px" font-weight="bold" x="835" y="1192">Migration: SQLite to PostgreSQL</text><text fill="#1a1a2e" font-family="Arial" font-size="11px" font-weight="bold" x="835" y="1206">RDS</text><text fill="#6c757d" font-family="Arial" font-size="10px" x="835" y="1225">Assignee: Hard Joshi</text><text fill="#e94560" font-family="Arial" font-size="9px" font-weight="bold" text-anchor="end" x="1155" y="1225">High</text><rect fill="#ffffff" height="70" rx="5" ry="5" stroke="#ddd" stroke-width="1" width="350" x="820" y="1250" /><rect fill="#e94560" height="70" width="5" x="820" y="1250" /><text fill="#1a1a2e" font-family="Arial" font-size="11px" font-weight="bold" x="835" y="1272">BPMN Overhaul (Correction Loops</text><text fill="#1a1a2e" font-family="Arial" font-size="11px" font-weight="bold" x="835" y="1286">&amp; Lanes)</text><text fill="#6c757d" font-family="Arial" font-size="10px" x="835" y="1305">Assignee: Hard Joshi</text><text fill="#e94560" font-family="Arial" font-size="9px" font-weight="bold" text-anchor="end" x="1155" y="1305">High</text><rect fill="#ffffff" height="70" rx="5" ry="5" stroke="#ddd" stroke-width="1" width="350" x="820" y="1330" /><rect fill="#28a745" height="70" width="5" x="820" y="1330" /><text fill="#1a1a2e" font-family="Arial" font-size="11px" font-weight="bold" x="835" y="1352">Unit Testing: Authentication Endpoints</text><text fill="#6c757d" font-family="Arial" font-size="10px" x="835" y="1385">Assignee: Sangeet Kaur</text><text fill="#28a745" font-family="Arial" font-size="9px" font-weight="bold" text-anchor="end" x="1155" y="1385">Low</text></svg>