<?xml version="1.0" encoding="utf-8" ?>
<svg baseProfile="full" height="520px" version="1.1" viewBox="0 0 1200 520" width="1200px" xmlns="http://www.w3.org/2000/svg" xmlns:ev="http://www.w3.org/2001/xml-events" xmlns:xlink="http://www.w3.org/1999/xlink"><defs><marker id="id32" markerHeight="6" markerUnits="strokeWidth" markerWidth="8" orient="auto" refX="6" refY="3"><polygon fill="#6c757d" points="0,0 6,3 0,6" /></marker><marker id="id33" markerHeight="6" markerUnits="strokeWidth" markerWidth="8" orient="auto" refX="6" refY="3"><polygon fill="#6c757d" points="0,0 6,3 0,6" /></marker><marker id="id34" markerHeight="6" markerUnits="strokeWidth" markerWidth="8" orient="auto" refX="6" refY="3"><polygon fill="#6c757d" points="0,0 6,3 0,6" /></marker><marker id="id35" markerHeight="6" markerUnits="strokeWidth" markerWidth="8" orient="auto" refX="6" refY="3"><polygon fill="#6c757d" points="0,0 6,3 0,6" /></marker><marker id="id36" markerHeight="6" markerUnits="strokeWidth" markerWidth="8" orient="auto" refX="6" refY="3"><polygon fill="#6c757d" points="0,0 6,3 0,6" /></marker><marker id="id37" markerHeight="6" markerUnits="strokeWidth" markerWidth="8" orient="auto" refX="6" refY="3"><polygon fill="#6c757d" points="0,0 6,3 0,6" /></marker><marker id="id38" markerHeight="6" markerUnits="strokeWidth" markerWidth="8" orient="auto" refX="6" refY="3"><polygon fill="#6c757d" points="0,0 6,3 0,6" /></marker><marker id="id39" markerHeight="6" markerUnits="strokeWidth" markerWidth="8" orient="auto" refX="6" refY="3"><polygon fill="#0f3460" points="0,0 6,3 0,6" /></marker><marker id="id40" markerHeight="6" markerUnits="strokeWidth" markerWidth="8" orient="auto" refX="6" refY="3"><polygon fill="#0f3460" points="0,0 6,3 0,6" /></marker><marker id="id41" markerHeight="6" markerUnits="strokeWidth" markerWidth="8" orient="auto" refX="6" refY="3"><polygon fill="#0f3460" points="0,0 6,3 0,6" /></marker><marker id="id42" markerHeight="6" markerUnits="strokeWidth" markerWidth="8" orient="auto" refX="6" refY="3"><polygon fill="#6c757d" points="0,0 6,3 0,6" /></marker><marker id="id43" markerHeight="6" markerUnits="strokeWidth" markerWidth="8" orient="auto" refX="6" refY="3"><polygon fill="#0f3460" points="0,0 6,3 0,6" /></marker><marker id="id44" markerHeight="6" markerUnits="strokeWidth" markerWidth="8" orient="auto" refX="6" refY="3"><polygon fill="#6c757d" points="0,0 6,3 0,6" /></marker><marker id="id45" markerHeight="6" markerUnits="strokeWidth" markerWidth="8" orient="auto" refX="6" refY="3"><polygon fill="#0f3460" points="0,0 6,3 0,6" /></marker></defs><rect fill="#ffffff" height="520" width="1200" x="0" y="0" /><text fill="#1a1a2e" font-family="Helvetica, Arial, sans-serif" font-size="16" font-weight="bold" text-anchor="middle" x="600.0" y="28">BPMN Diagram 2: Appointment Booking Process</text><line stroke="#e94560" stroke-width="1.5" x1="150" x2="1050" y1="38" y2="38" /><rect fill="#0f3460" height="30" rx="4" ry="4" width="1180" x="10" y="50" /><text fill="#ffffff" font-family="Helvetica, Arial, sans-serif" font-size="14" font-weight="bold" text-anchor="middle" x="600.0" y="70">CVD Clinic — Appointment Booking</text><rect fill="#eef2f7" height="190" opacity="0.5" stroke="#0f3460" stroke-width="0.5" width="1180" x="10" y="85" /><rect fill="#0f3460" height="190" opacity="0.12" stroke="none" width="35" x="10" y="85" /><line opacity="0.4" stroke="#0f3460" stroke-width="0.5" x1="45" x2="45" y1="85" y2="275" /><text fill="#0f3460" font-family="Helvetica, Arial, sans-serif" font-size="13" font-weight="bold" text-anchor="middle" transform="rotate(-90, 27.5, 180.0)" x="27.5" y="180.0">Patient</text><rect fill="#f7f0ee" height="190" opacity="0.5" stroke="#0f3460" stroke-width="0.5" width="1180" x="10" y="275" /><rect fill="#0f3460" height="190" opacity="0.12" stroke="none" width="35" x="10" y="275" /><line opacity="0.4" stroke="#0f3460" stroke-width="0.5" x1="45" x2="45" y1="275" y2="465" /><text fill="#0f3460" font-family="Helvetica, Arial, sans-serif" font-size="13" font-weight="bold" text-anchor="middle" transform="rotate(-90, 27.5, 370.0)" x="27.5" y="370.0">Admin Staff</text><circle cx="80" cy="180.0" fill="#e8f5e9" r="14" stroke="#388e3c" stroke-width="2.5" /><polygon fill="#388e3c" opacity="0.6" points="76,174.0 76,186.0 86,180.0" /><rect fill="#ffffff" height="50" rx="8" ry="8" stroke="#0f3460" stroke-width="2" width="130" x="125" y="155.0" /><circle cx="135" cy="165.0" fill="none" r="4" stroke="#0f3460" stroke-width="1" /><line stroke="#0f3460" stroke-width="1" x1="135" x2="135" y1="169.0" y2="175.0" /><line stroke="#0f3460" stroke-width="1" x1="131" x2="139" y1="172.0" y2="172.0" /><text fill="#1a1a2e" font-family="Helvetica, Arial, sans-serif" font-size="11" font-weight="500" text-anchor="middle" x="190.0" y="169.0">Request</text><text fill="#1a1a2e" font-family="Helvetica, Arial, sans-serif" font-size="11" font-weight="500" text-anchor="middle" x="190.0" y="183.0">Appointment</text><text fill="#1a1a2e" font-family="Helvetica, Arial, sans-serif" font-size="11" font-weight="500" text-anchor="middle" x="190.0" y="197.0">Online</text><line marker-end="url(#id32)" stroke="#6c757d" stroke-dasharray="none" stroke-width="1.5" x1="94" x2="125" y1="180.0" y2="180.0" /><polygon fill="#fff8e1" points="325,160.0 345,180.0 325,200.0 305,180.0" stroke="#f57c00" stroke-width="2" /><line stroke="#f57c00" stroke-width="2.5" x1="318" x2="332" y1="173.0" y2="187.0" /><line stroke="#f57c00" stroke-width="2.5" x1="332" x2="318" y1="173.0" y2="187.0" /><text fill="#6c757d" font-family="Helvetica, Arial, sans-serif" font-size="9" font-style="italic" text-anchor="middle" x="325" y="216.0">Preferred date
available?</text><rect fill="#ffffff" height="34" rx="8" ry="8" stroke="#0f3460" stroke-width="2" width="130" x="145" y="103.0" /><circle cx="155" cy="113.0" fill="none" r="4" stroke="#0f3460" stroke-width="1" /><line stroke="#0f3460" stroke-width="1" x1="155" x2="155" y1="117.0" y2="123.0" /><line stroke="#0f3460" stroke-width="1" x1="151" x2="159" y1="120.0" y2="120.0" /><text fill="#1a1a2e" font-family="Helvetica, Arial, sans-serif" font-size="11" font-weight="500" text-anchor="middle" x="210.0" y="116.0">Select</text><text fill="#1a1a2e" font-family="Helvetica, Arial, sans-serif" font-size="11" font-weight="500" text-anchor="middle" x="210.0" y="130.0">Alternative Date</text><line marker-end="url(#id33)" stroke="#6c757d" stroke-dasharray="none" stroke-width="1.5" x1="305" x2="275" y1="180.0" y2="137.0" /><rect fill="#ffffff" height="14" opacity="0.9" rx="3" ry="3" width="50" x="265.0" y="148.5" /><text fill="#f57c00" font-family="Helvetica, Arial, sans-serif" font-size="9" font-weight="600" text-anchor="middle" x="290.0" y="158.5">No</text><polyline fill="none" marker-end="url(#id34)" points="145,137.0 120,137.0 120,200.0 305,200.0" stroke="#6c757d" stroke-dasharray="none" stroke-width="1.5" /><rect fill="#ffffff" height="50" rx="8" ry="8" stroke="#0f3460" stroke-width="2" width="120" x="405" y="155.0" /><circle cx="415" cy="165.0" fill="none" r="4" stroke="#0f3460" stroke-width="1" /><line stroke="#0f3460" stroke-width="1" x1="415" x2="415" y1="169.0" y2="175.0" /><line stroke="#0f3460" stroke-width="1" x1="411" x2="419" y1="172.0" y2="172.0" /><text fill="#1a1a2e" font-family="Helvetica, Arial, sans-serif" font-size="11" font-weight="500" text-anchor="middle" x="465.0" y="176.0">Confirm</text><text fill="#1a1a2e" font-family="Helvetica, Arial, sans-serif" font-size="11" font-weight="500" text-anchor="middle" x="465.0" y="190.0">Appointment</text><line marker-end="url(#id35)" stroke="#6c757d" stroke-dasharray="none" stroke-width="1.5" x1="345" x2="405" y1="180.0" y2="180.0" /><rect fill="#ffffff" height="14" opacity="0.9" rx="3" ry="3" width="50" x="350.0" y="170.0" /><text fill="#f57c00" font-family="Helvetica, Arial, sans-serif" font-size="9" font-weight="600" text-anchor="middle" x="375.0" y="180.0">Yes</text><rect fill="#ffffff" height="50" rx="8" ry="8" stroke="#0f3460" stroke-width="2" width="130" x="560" y="155.0" /><circle cx="570" cy="165.0" fill="none" r="4" stroke="#0f3460" stroke-width="1" /><line stroke="#0f3460" stroke-width="1" x1="570" x2="570" y1="169.0" y2="175.0" /><line stroke="#0f3460" stroke-width="1" x1="566" x2="574" y1="172.0" y2="172.0" /><text fill="#1a1a2e" font-family="Helvetica, Arial, sans-serif" font-size="11" font-weight="500" text-anchor="middle" x="625.0" y="176.0">Receive</text><text fill="#1a1a2e" font-family="Helvetica, Arial, sans-serif" font-size="11" font-weight="500" text-anchor="middle" x="625.0" y="190.0">Confirmation</text><line marker-end="url(#id36)" stroke="#6c757d" stroke-dasharray="none" stroke-width="1.5" x1="525" x2="560" y1="180.0" y2="180.0" /><rect fill="#ffffff" height="50" rx="8" ry="8" stroke="#0f3460" stroke-width="2" width="130" x="725" y="155.0" /><circle cx="735" cy="165.0" fill="none" r="4" stroke="#0f3460" stroke-width="1" /><line stroke="#0f3460" stroke-width="1" x1="735" x2="735" y1="169.0" y2="175.0" /><line stroke="#0f3460" stroke-width="1" x1="731" x2="739" y1="172.0" y2="172.0" /><text fill="#1a1a2e" font-family="Helvetica, Arial, sans-serif" font-size="11" font-weight="500" text-anchor="middle" x="790.0" y="176.0">Complete</text><text fill="#1a1a2e" font-family="Helvetica, Arial, sans-serif" font-size="11" font-weight="500" text-anchor="middle" x="790.0" y="190.0">Pre-Visit Forms</text><line marker-end="url(#id37)" stroke="#6c757d" stroke-dasharray="none" stroke-width="1.5" x1="690" x2="725" y1="180.0" y2="180.0" /><circle cx="890" cy="180.0" fill="#ffebee" r="14" stroke="#e94560" stroke-width="3.5" /><rect fill="#e94560" height="7" opacity="0.7" rx="1" ry="1" width="7" x="886.5" y="176.5" /><line marker-end="url(#id38)" stroke="#6c757d" stroke-dasharray="none" stroke-width="1.5" x1="855" x2="876" y1="180.0" y2="180.0" /><rect fill="#ffffff" height="50" rx="8" ry="8" stroke="#0f3460" stroke-width="2" width="140" x="125" y="345.0" /><circle cx="135" cy="355.0" fill="none" r="4" stroke="#0f3460" stroke-width="1" /><line stroke="#0f3460" stroke-width="1" x1="135" x2="135" y1="359.0" y2="365.0" /><line stroke="#0f3460" stroke-width="1" x1="131" x2="139" y1="362.0" y2="362.0" /><text fill="#1a1a2e" font-family="Helvetica, Arial, sans-serif" font-size="11" font-weight="500" text-anchor="middle" x="195.0" y="366.0">Check Consultant</text><text fill="#1a1a2e" font-family="Helvetica, Arial, sans-serif" font-size="11" font-weight="500" text-anchor="middle" x="195.0" y="380.0">Schedule</text><polyline fill="none" marker-end="url(#id39)" points="190,205.0 190,345.0" stroke="#0f3460" stroke-dasharray="6,3" stroke-width="1.5" /><polyline fill="none" marker-end="url(#id40)" points="265,370.0 325,370.0 325,200.0" stroke="#0f3460" stroke-dasharray="6,3" stroke-width="1.5" /><rect fill="#ffffff" height="50" rx="8" ry="8" stroke="#0f3460" stroke-width="2" width="120" x="405" y="345.0" /><circle cx="415" cy="355.0" fill="none" r="4" stroke="#0f3460" stroke-width="1" /><line stroke="#0f3460" stroke-width="1" x1="415" x2="415" y1="359.0" y2="365.0" /><line stroke="#0f3460" stroke-width="1" x1="411" x2="419" y1="362.0" y2="362.0" /><text fill="#1a1a2e" font-family="Helvetica, Arial, sans-serif" font-size="11" font-weight="500" text-anchor="middle" x="465.0" y="359.0">Block</text><text fill="#1a1a2e" font-family="Helvetica, Arial, sans-serif" font-size="11" font-weight="500" text-anchor="middle" x="465.0" y="373.0">Appointment</text><text fill="#1a1a2e" font-family="Helvetica, Arial, sans-serif" font-size="11" font-weight="500" text-anchor="middle" x="465.0" y="387.0">Slot</text><polyline fill="none" marker-end="url(#id41)" points="465,205.0 465,345.0" stroke="#0f3460" stroke-dasharray="6,3" stroke-width="1.5" /><rect fill="#f3e5f5" height="50" rx="8" ry="8" stroke="#7b1fa2" stroke-width="2" width="130" x="560" y="345.0" /><circle cx="572" cy="357.0" fill="none" r="5" stroke="#7b1fa2" stroke-width="1.5" /><circle cx="572" cy="357.0" fill="#7b1fa2" r="2" /><text fill="#1a1a2e" font-family="Helvetica, Arial, sans-serif" font-size="11" font-weight="500" text-anchor="middle" x="625.0" y="359.0">Send</text><text fill="#1a1a2e" font-family="Helvetica, Arial, sans-serif" font-size="11" font-weight="500" text-anchor="middle" x="625.0" y="373.0">Confirmation</text><text fill="#1a1a2e" font-family="Helvetica, Arial, sans-serif" font-size="11" font-weight="500" text-anchor="middle" x="625.0" y="387.0">Email / SMS</text><line marker-end="url(#id42)" stroke="#6c757d" stroke-dasharray="none" stroke-width="1.5" x1="525" x2="560" y1="370.0" y2="370.0" /><polyline fill="none" marker-end="url(#id43)" points="625,345.0 625,205.0" stroke="#0f3460" stroke-dasharray="6,3" stroke-width="1.5" /><rect fill="#f3e5f5" height="50" rx="8" ry="8" stroke="#7b1fa2" stroke-width="2" width="130" x="725" y="345.0" /><circle cx="737" cy="357.0" fill="none" r="5" stroke="#7b1fa2" stroke-width="1.5" /><circle cx="737" cy="357.0" fill="#7b1fa2" r="2" /><text fill="#1a1a2e" font-family="Helvetica, Arial, sans-serif" font-size="11" font-weight="500" text-anchor="middle" x="790.0" y="366.0">Send Pre-Visit</text><text fill="#1a1a2e" font-family="Helvetica, Arial, sans-serif" font-size="11" font-weight="500" text-anchor="middle" x="790.0" y="380.0">Form Link</text><line marker-end="url(#id44)" stroke="#6c757d" stroke-dasharray="none" stroke-width="1.5" x1="690" x2="725" y1="370.0" y2="370.0" /><polyline fill="none" marker-end="url(#id45)" points="790,345.0 790,205.0" stroke="#0f3460" stroke-dasharray="6,3" stroke-width="1.5" /><path d="M755,410.0 L790,410.0 L800,420.0 L800,460.0 L755,460.0 Z" fill="#e3f2fd" stroke="#1976d2" stroke-width="1.5" /><path d="M790,410.0 L790,420.0 L800,420.0" fill="none" stroke="#1976d2" stroke-width="1.5" /><text fill="#1976d2" font-family="Helvetica, Arial, sans-serif" font-size="9" text-anchor="middle" x="777.5" y="474.0">Form</text><text fill="#1976d2" font-family="Helvetica, Arial, sans-serif" font-size="9" text-anchor="middle" x="777.5" y="486.0">Link</text><rect fill="#ffffff" height="35" rx="4" stroke="#6c757d" stroke-width="0.5" width="1040" x="70" y="588" /><text fill="#6c757d" font-family="Helvetica, Arial, sans-serif" font-size="9" x="80" y="608">• Start/End Events</text><text fill="#6c757d" font-family="Helvetica, Arial, sans-serif" font-size="9" x="280" y="608">• User Tasks</text><text fill="#6c757d" font-family="Helvetica, Arial, sans-serif" font-size="9" x="480" y="608">• Service Tasks</text><text fill="#6c757d" font-family="Helvetica, Arial, sans-serif" font-size="9" x="680" y="608">• Exclusive Gateway</text><text fill="#6c757d" font-family="Helvetica, Arial, sans-serif" font-size="9" x="880" y="608">• Message Flow (dashed)</text></svg>