<?xml version="1.0" encoding="utf-8" ?>
<svg baseProfile="full" height="950px" version="1.1" width="1350px" xmlns="http://www.w3.org/2000/svg" xmlns:ev="http://www.w3.org/2001/xml-events" xmlns:xlink="http://www.w3.org/1999/xlink"><defs><marker id="arrow_seq" markerHeight="10" markerWidth="10" orient="auto" refX="10" refY="5"><polygon fill="#1a1a2e" points="0,0 10,5 0,10" /></marker><marker id="arrow_msg" markerHeight="10" markerWidth="10" orient="auto" refX="10" refY="5"><polygon fill="none" points="0,0 10,5 0,10" stroke="#0f3460" /></marker></defs><rect fill="none" height="950" stroke="#1a1a2e" stroke-width="2" width="1350" x="0" y="0" /><rect fill="#0f3460" height="40" width="1350" x="0" y="0" /><text fill="#ffffff" font-family="Helvetica, Arial, sans-serif" font-size="20px" font-weight="bold" text-anchor="middle" x="675.0" y="25">CVD Clinic - Patient Admission &amp; Form Completion</text><rect fill="#eef2f7" height="250" stroke="#1a1a2e" stroke-width="1" width="1350" x="0" y="40" /><rect fill="#0f3460" height="250" stroke="#1a1a2e" stroke-width="1" width="40" x="0" y="40" /><g transform="translate(25, 165.0) rotate(-90)"><text fill="#ffffff" font-family="Helvetica, Arial, sans-serif" font-size="16px" font-weight="bold" text-anchor="middle" x="0" y="0">Patient</text></g><rect fill="#f7f0ee" height="300" stroke="#1a1a2e" stroke-width="1" width="1350" x="0" y="290" /><rect fill="#0f3460" height="300" stroke="#1a1a2e" stroke-width="1" width="40" x="0" y="290" /><g transform="translate(25, 440.0) rotate(-90)"><text fill="#ffffff" font-family="Helvetica, Arial, sans-serif" font-size="16px" font-weight="bold" text-anchor="middle" x="0" y="0">Nurse / Admin Staff</text></g><rect fill="#eef7f0" height="360" stroke="#1a1a2e" stroke-width="1" width="1350" x="0" y="590" /><rect fill="#0f3460" height="360" stroke="#1a1a2e" stroke-width="1" width="40" x="0" y="590" /><g transform="translate(25, 770.0) rotate(-90)"><text fill="#ffffff" font-family="Helvetica, Arial, sans-serif" font-size="16px" font-weight="bold" text-anchor="middle" x="0" y="0">Consultant</text></g><circle cx="80" cy="140" fill="#ffffff" r="15" stroke="#28a745" stroke-width="2" /><g><rect fill="#ffffff" height="60" rx="8" ry="8" stroke="#0f3460" stroke-width="2" width="120" x="130" y="110" /><circle cx="142" cy="120" fill="#0f3460" r="3" /><path d="M137,128 C137,123 147,123 147,128 Z" fill="#0f3460" /><text fill="#1a1a2e" font-family="Helvetica, Arial, sans-serif" font-size="12px" text-anchor="middle" x="190.0" y="129.0">Login /</text><text fill="#1a1a2e" font-family="Helvetica, Arial, sans-serif" font-size="12px" text-anchor="middle" x="190.0" y="143.0">Register on</text><text fill="#1a1a2e" font-family="Helvetica, Arial, sans-serif" font-size="12px" text-anchor="middle" x="190.0" y="157.0">Portal</text></g><g><rect fill="#ffffff" height="60" rx="8" ry="8" stroke="#0f3460" stroke-width="2" width="120" x="300" y="110" /><circle cx="312" cy="120" fill="#0f3460" r="3" /><path d="M307,128 C307,123 317,123 317,128 Z" fill="#0f3460" /><text fill="#1a1a2e" font-family="Helvetica, Arial, sans-serif" font-size="12px" text-anchor="middle" x="360.0" y="136.0">Fill Section 1</text><text fill="#1a1a2e" font-family="Helvetica, Arial, sans-serif" font-size="12px" text-anchor="middle" x="360.0" y="150.0">Form</text></g><polygon fill="#ffffff" points="490.0,120 510,140.0 490.0,160 470,140.0" stroke="#6c757d" stroke-width="2" /><line stroke="#6c757d" stroke-width="2" x1="482.0" x2="498.0" y1="132.0" y2="148.0" /><line stroke="#6c757d" stroke-width="2" x1="482.0" x2="498.0" y1="148.0" y2="132.0" /><text font-size="11px" text-anchor="middle" x="490" y="110">Section 1 Valid?</text><g><rect fill="#ffffff" height="60" rx="8" ry="8" stroke="#0f3460" stroke-width="2" width="120" x="570" y="110" /><circle cx="582" cy="122" fill="none" r="4" stroke="#0f3460" stroke-width="2" /><circle cx="582" cy="122" fill="#0f3460" r="1" /><text fill="#1a1a2e" font-family="Helvetica, Arial, sans-serif" font-size="12px" text-anchor="middle" x="630.0" y="136.0">Validate</text><text fill="#1a1a2e" font-family="Helvetica, Arial, sans-serif" font-size="12px" text-anchor="middle" x="630.0" y="150.0">Section 1</text></g><g><rect fill="#ffffff" height="60" rx="8" ry="8" stroke="#0f3460" stroke-width="2" width="120" x="750" y="110" /><circle cx="762" cy="120" fill="#0f3460" r="3" /><path d="M757,128 C757,123 767,123 767,128 Z" fill="#0f3460" /><text fill="#1a1a2e" font-family="Helvetica, Arial, sans-serif" font-size="12px" text-anchor="middle" x="810.0" y="129.0">Wait in Queue /</text><text fill="#1a1a2e" font-family="Helvetica, Arial, sans-serif" font-size="12px" text-anchor="middle" x="810.0" y="143.0">Escorted to</text><text fill="#1a1a2e" font-family="Helvetica, Arial, sans-serif" font-size="12px" text-anchor="middle" x="810.0" y="157.0">Consultant</text></g><g><rect fill="#ffffff" height="60" rx="8" ry="8" stroke="#0f3460" stroke-width="2" width="120" x="920" y="110" /><circle cx="932" cy="120" fill="#0f3460" r="3" /><path d="M927,128 C927,123 937,123 937,128 Z" fill="#0f3460" /><text fill="#1a1a2e" font-family="Helvetica, Arial, sans-serif" font-size="12px" text-anchor="middle" x="980.0" y="136.0">Attend</text><text fill="#1a1a2e" font-family="Helvetica, Arial, sans-serif" font-size="12px" text-anchor="middle" x="980.0" y="150.0">Consultation</text></g><g><rect fill="#ffffff" height="60" rx="8" ry="8" stroke="#0f3460" stroke-width="2" width="120" x="1100" y="110" /><rect fill="#ffffff" height="8" stroke="#0f3460" stroke-width="1" width="12" x="1106" y="118" /><polyline fill="none" points="1106,118 1112,123 1118,118" stroke="#0f3460" stroke-width="1" /><text fill="#1a1a2e" font-family="Helvetica, Arial, sans-serif" font-size="12px" text-anchor="middle" x="1160.0" y="136.0">Receive</text><text fill="#1a1a2e" font-family="Helvetica, Arial, sans-serif" font-size="12px" text-anchor="middle" x="1160.0" y="150.0">Prescription</text></g><circle cx="1280" cy="140" fill="#ffffff" r="15" stroke="#e94560" stroke-width="4" /><g><rect fill="#ffffff" height="50" rx="8" ry="8" stroke="#0f3460" stroke-width="2" width="120" x="300" y="210" /><circle cx="312" cy="220" fill="#0f3460" r="3" /><path d="M307,228 C307,223 317,223 317,228 Z" fill="#0f3460" /><text fill="#1a1a2e" font-family="Helvetica, Arial, sans-serif" font-size="12px" text-anchor="middle" x="360.0" y="231.0">Edit Section 1</text><text fill="#1a1a2e" font-family="Helvetica, Arial, sans-serif" font-size="12px" text-anchor="middle" x="360.0" y="245.0">(Corrections)</text></g><polygon fill="#fdfdfd" points="340,50 370,50 380,60 380,100 340,100" stroke="#0f3460" stroke-width="1" /><polyline fill="none" points="370,50 370,60 380,60" stroke="#0f3460" stroke-width="1" /><text fill="#1a1a2e" font-family="Helvetica, Arial, sans-serif" font-size="10px" text-anchor="middle" x="360.0" y="79.0">Patient Form</text><polyline fill="none" marker-end="url(#arrow_seq)" points="95,140 130,140" stroke="#1a1a2e" stroke-width="1.5" /><polyline fill="none" marker-end="url(#arrow_seq)" points="250,140 300,140" stroke="#1a1a2e" stroke-width="1.5" /><polyline fill="none" marker-end="url(#arrow_seq)" points="420,140 470,140" stroke="#1a1a2e" stroke-width="1.5" /><polyline fill="none" marker-end="url(#arrow_seq)" points="510,140 570,140" stroke="#1a1a2e" stroke-width="1.5" /><text fill="#1a1a2e" font-family="Helvetica, Arial, sans-serif" font-size="10px" text-anchor="middle" x="540.0" y="135.0">Yes</text><polyline fill="none" marker-end="url(#arrow_seq)" points="490,160 490,235 420,235" stroke="#1a1a2e" stroke-width="1.5" /><text fill="#1a1a2e" font-family="Helvetica, Arial, sans-serif" font-size="10px" text-anchor="middle" x="490.0" y="192.5">No</text><polyline fill="none" marker-end="url(#arrow_seq)" points="300,235 280,235 280,160 300,160" stroke="#1a1a2e" stroke-width="1.5" /><polyline fill="none" marker-end="url(#arrow_seq)" points="690,140 750,140" stroke="#1a1a2e" stroke-width="1.5" /><polyline fill="none" marker-end="url(#arrow_seq)" points="870,140 920,140" stroke="#1a1a2e" stroke-width="1.5" /><polyline fill="none" marker-end="url(#arrow_seq)" points="1040,140 1100,140" stroke="#1a1a2e" stroke-width="1.5" /><polyline fill="none" marker-end="url(#arrow_seq)" points="1220,140 1265,140" stroke="#1a1a2e" stroke-width="1.5" /><polyline fill="none" points="360,100 360,110" stroke="#6c757d" stroke-dasharray="2,4" stroke-width="1.5" /><g><rect fill="#ffffff" height="60" rx="8" ry="8" stroke="#0f3460" stroke-width="2" width="120" x="130" y="410" /><circle cx="142" cy="420" fill="#0f3460" r="3" /><path d="M137,428 C137,423 147,423 147,428 Z" fill="#0f3460" /><text fill="#1a1a2e" font-family="Helvetica, Arial, sans-serif" font-size="12px" text-anchor="middle" x="190.0" y="436.0">Verify Patient</text><text fill="#1a1a2e" font-family="Helvetica, Arial, sans-serif" font-size="12px" text-anchor="middle" x="190.0" y="450.0">Identity</text></g><polygon fill="#ffffff" points="300.0,420 320,440.0 300.0,460 280,440.0" stroke="#6c757d" stroke-width="2" /><line stroke="#6c757d" stroke-width="2" x1="300.0" x2="300.0" y1="430.0" y2="450.0" /><line stroke="#6c757d" stroke-width="2" x1="290.0" x2="310.0" y1="440.0" y2="440.0" /><g><rect fill="#ffffff" height="50" rx="8" ry="8" stroke="#0f3460" stroke-width="2" width="120" x="360" y="310" /><circle cx="372" cy="320" fill="#0f3460" r="3" /><path d="M367,328 C367,323 377,323 377,328 Z" fill="#0f3460" /><text fill="#1a1a2e" font-family="Helvetica, Arial, sans-serif" font-size="12px" text-anchor="middle" x="420.0" y="331.0">Check Blood</text><text fill="#1a1a2e" font-family="Helvetica, Arial, sans-serif" font-size="12px" text-anchor="middle" x="420.0" y="345.0">Pressure</text></g><g><rect fill="#ffffff" height="50" rx="8" ry="8" stroke="#0f3460" stroke-width="2" width="120" x="360" y="380" /><circle cx="372" cy="390" fill="#0f3460" r="3" /><path d="M367,398 C367,393 377,393 377,398 Z" fill="#0f3460" /><text fill="#1a1a2e" font-family="Helvetica, Arial, sans-serif" font-size="12px" text-anchor="middle" x="420.0" y="408.0">Check BMI</text></g><g><rect fill="#ffffff" height="50" rx="8" ry="8" stroke="#0f3460" stroke-width="2" width="120" x="360" y="450" /><circle cx="372" cy="460" fill="#0f3460" r="3" /><path d="M367,468 C367,463 377,463 377,468 Z" fill="#0f3460" /><text fill="#1a1a2e" font-family="Helvetica, Arial, sans-serif" font-size="12px" text-anchor="middle" x="420.0" y="471.0">Check Blood</text><text fill="#1a1a2e" font-family="Helvetica, Arial, sans-serif" font-size="12px" text-anchor="middle" x="420.0" y="485.0">Sugar</text></g><g><rect fill="#ffffff" height="50" rx="8" ry="8" stroke="#0f3460" stroke-width="2" width="120" x="360" y="520" /><circle cx="372" cy="530" fill="#0f3460" r="3" /><path d="M367,538 C367,533 377,533 377,538 Z" fill="#0f3460" /><text fill="#1a1a2e" font-family="Helvetica, Arial, sans-serif" font-size="12px" text-anchor="middle" x="420.0" y="541.0">Check Heart</text><text fill="#1a1a2e" font-family="Helvetica, Arial, sans-serif" font-size="12px" text-anchor="middle" x="420.0" y="555.0">Rate</text></g><polygon fill="#ffffff" points="540.0,420 560,440.0 540.0,460 520,440.0" stroke="#6c757d" stroke-width="2" /><line stroke="#6c757d" stroke-width="2" x1="540.0" x2="540.0" y1="430.0" y2="450.0" /><line stroke="#6c757d" stroke-width="2" x1="530.0" x2="550.0" y1="440.0" y2="440.0" /><g><rect fill="#ffffff" height="60" rx="8" ry="8" stroke="#0f3460" stroke-width="2" width="120" x="600" y="410" /><circle cx="612" cy="422" fill="none" r="4" stroke="#0f3460" stroke-width="2" /><circle cx="612" cy="422" fill="#0f3460" r="1" /><text fill="#1a1a2e" font-family="Helvetica, Arial, sans-serif" font-size="12px" text-anchor="middle" x="660.0" y="436.0">Record Vital</text><text fill="#1a1a2e" font-family="Helvetica, Arial, sans-serif" font-size="12px" text-anchor="middle" x="660.0" y="450.0">Signs in System</text></g><polyline fill="none" marker-end="url(#arrow_msg)" points="630,170 630,350 190,350 190,410" stroke="#0f3460" stroke-dasharray="6,4" stroke-width="1.5" /><polyline fill="none" marker-end="url(#arrow_seq)" points="250,440 280,440" stroke="#1a1a2e" stroke-width="1.5" /><polyline fill="none" marker-end="url(#arrow_seq)" points="320,440 340,440 340,335 360,335" stroke="#1a1a2e" stroke-width="1.5" /><polyline fill="none" marker-end="url(#arrow_seq)" points="320,440 340,440 340,405 360,405" stroke="#1a1a2e" stroke-width="1.5" /><polyline fill="none" marker-end="url(#arrow_seq)" points="320,440 340,440 340,475 360,475" stroke="#1a1a2e" stroke-width="1.5" /><polyline fill="none" marker-end="url(#arrow_seq)" points="320,440 340,440 340,545 360,545" stroke="#1a1a2e" stroke-width="1.5" /><polyline fill="none" marker-end="url(#arrow_seq)" points="480,335 500,335 500,440 520,440" stroke="#1a1a2e" stroke-width="1.5" /><polyline fill="none" marker-end="url(#arrow_seq)" points="480,405 500,405 500,440 520,440" stroke="#1a1a2e" stroke-width="1.5" /><polyline fill="none" marker-end="url(#arrow_seq)" points="480,475 500,475 500,440 520,440" stroke="#1a1a2e" stroke-width="1.5" /><polyline fill="none" marker-end="url(#arrow_seq)" points="480,545 500,545 500,440 520,440" stroke="#1a1a2e" stroke-width="1.5" /><polyline fill="none" marker-end="url(#arrow_seq)" points="560,440 600,440" stroke="#1a1a2e" stroke-width="1.5" /><polyline fill="none" marker-end="url(#arrow_msg)" points="660,410 660,250 810,250 810,170" stroke="#0f3460" stroke-dasharray="6,4" stroke-width="1.5" /><g><rect fill="#ffffff" height="60" rx="8" ry="8" stroke="#0f3460" stroke-width="2" width="120" x="130" y="650" /><circle cx="142" cy="660" fill="#0f3460" r="3" /><path d="M137,668 C137,663 147,663 147,668 Z" fill="#0f3460" /><text fill="#1a1a2e" font-family="Helvetica, Arial, sans-serif" font-size="12px" text-anchor="middle" x="190.0" y="676.0">Review Section</text><text fill="#1a1a2e" font-family="Helvetica, Arial, sans-serif" font-size="12px" text-anchor="middle" x="190.0" y="690.0">1 &amp; Vitals Data</text></g><g><rect fill="#ffffff" height="60" rx="8" ry="8" stroke="#0f3460" stroke-width="2" width="120" x="300" y="650" /><circle cx="312" cy="660" fill="#0f3460" r="3" /><path d="M307,668 C307,663 317,663 317,668 Z" fill="#0f3460" /><text fill="#1a1a2e" font-family="Helvetica, Arial, sans-serif" font-size="12px" text-anchor="middle" x="360.0" y="676.0">Conduct CVD</text><text fill="#1a1a2e" font-family="Helvetica, Arial, sans-serif" font-size="12px" text-anchor="middle" x="360.0" y="690.0">Examination</text></g><g><rect fill="#ffffff" height="60" rx="8" ry="8" stroke="#0f3460" stroke-width="2" width="120" x="470" y="650" /><circle cx="482" cy="660" fill="#0f3460" r="3" /><path d="M477,668 C477,663 487,663 487,668 Z" fill="#0f3460" /><text fill="#1a1a2e" font-family="Helvetica, Arial, sans-serif" font-size="12px" text-anchor="middle" x="530.0" y="676.0">Complete</text><text fill="#1a1a2e" font-family="Helvetica, Arial, sans-serif" font-size="12px" text-anchor="middle" x="530.0" y="690.0">Section 2 Notes</text></g><polygon fill="#ffffff" points="650.0,660 670,680.0 650.0,700 630,680.0" stroke="#6c757d" stroke-width="2" /><line stroke="#6c757d" stroke-width="2" x1="642.0" x2="658.0" y1="672.0" y2="688.0" /><line stroke="#6c757d" stroke-width="2" x1="642.0" x2="658.0" y1="688.0" y2="672.0" /><text font-size="11px" text-anchor="middle" x="650" y="650">Diagnosis Type?</text><g><rect fill="#ffffff" height="50" rx="8" ry="8" stroke="#0f3460" stroke-width="2" width="120" x="720" y="600" /><circle cx="732" cy="610" fill="#0f3460" r="3" /><path d="M727,618 C727,613 737,613 737,618 Z" fill="#0f3460" /><text fill="#1a1a2e" font-family="Helvetica, Arial, sans-serif" font-size="12px" text-anchor="middle" x="780.0" y="621.0">Hypertension</text><text fill="#1a1a2e" font-family="Helvetica, Arial, sans-serif" font-size="12px" text-anchor="middle" x="780.0" y="635.0">Plan</text></g><g><rect fill="#ffffff" height="50" rx="8" ry="8" stroke="#0f3460" stroke-width="2" width="120" x="720" y="665" /><circle cx="732" cy="675" fill="#0f3460" r="3" /><path d="M727,683 C727,678 737,678 737,683 Z" fill="#0f3460" /><text fill="#1a1a2e" font-family="Helvetica, Arial, sans-serif" font-size="12px" text-anchor="middle" x="780.0" y="686.0">Hypotension</text><text fill="#1a1a2e" font-family="Helvetica, Arial, sans-serif" font-size="12px" text-anchor="middle" x="780.0" y="700.0">Plan</text></g><g><rect fill="#ffffff" height="50" rx="8" ry="8" stroke="#0f3460" stroke-width="2" width="120" x="720" y="730" /><circle cx="732" cy="740" fill="#0f3460" r="3" /><path d="M727,748 C727,743 737,743 737,748 Z" fill="#0f3460" /><text fill="#1a1a2e" font-family="Helvetica, Arial, sans-serif" font-size="12px" text-anchor="middle" x="780.0" y="751.0">Diabetes</text><text fill="#1a1a2e" font-family="Helvetica, Arial, sans-serif" font-size="12px" text-anchor="middle" x="780.0" y="765.0">Management Plan</text></g><polygon fill="#ffffff" points="900.0,660 920,680.0 900.0,700 880,680.0" stroke="#6c757d" stroke-width="2" /><line stroke="#6c757d" stroke-width="2" x1="892.0" x2="908.0" y1="672.0" y2="688.0" /><line stroke="#6c757d" stroke-width="2" x1="892.0" x2="908.0" y1="688.0" y2="672.0" /><g><rect fill="#ffffff" height="60" rx="8" ry="8" stroke="#0f3460" stroke-width="2" width="120" x="960" y="650" /><circle cx="972" cy="662" fill="none" r="4" stroke="#0f3460" stroke-width="2" /><circle cx="972" cy="662" fill="#0f3460" r="1" /><text fill="#1a1a2e" font-family="Helvetica, Arial, sans-serif" font-size="12px" text-anchor="middle" x="1020.0" y="669.0">Generate</text><text fill="#1a1a2e" font-family="Helvetica, Arial, sans-serif" font-size="12px" text-anchor="middle" x="1020.0" y="683.0">Prescription</text><text fill="#1a1a2e" font-family="Helvetica, Arial, sans-serif" font-size="12px" text-anchor="middle" x="1020.0" y="697.0">PDF</text></g><polygon fill="#ffffff" points="1140.0,660 1160,680.0 1140.0,700 1120,680.0" stroke="#6c757d" stroke-width="2" /><line stroke="#6c757d" stroke-width="2" x1="1132.0" x2="1148.0" y1="672.0" y2="688.0" /><line stroke="#6c757d" stroke-width="2" x1="1132.0" x2="1148.0" y1="688.0" y2="672.0" /><text font-size="11px" text-anchor="middle" x="1140" y="650">Follow-up Required?</text><g><rect fill="#ffffff" height="60" rx="8" ry="8" stroke="#0f3460" stroke-width="2" width="120" x="1200" y="750" /><circle cx="1212" cy="760" fill="#0f3460" r="3" /><path d="M1207,768 C1207,763 1217,763 1217,768 Z" fill="#0f3460" /><text fill="#1a1a2e" font-family="Helvetica, Arial, sans-serif" font-size="12px" text-anchor="middle" x="1260.0" y="769.0">Schedule</text><text fill="#1a1a2e" font-family="Helvetica, Arial, sans-serif" font-size="12px" text-anchor="middle" x="1260.0" y="783.0">Follow-up</text><text fill="#1a1a2e" font-family="Helvetica, Arial, sans-serif" font-size="12px" text-anchor="middle" x="1260.0" y="797.0">Appointment</text></g><g><rect fill="#ffffff" height="60" rx="8" ry="8" stroke="#0f3460" stroke-width="2" width="100" x="1200" y="650" /><circle cx="1212" cy="662" fill="none" r="4" stroke="#0f3460" stroke-width="2" /><circle cx="1212" cy="662" fill="#0f3460" r="1" /><text fill="#1a1a2e" font-family="Helvetica, Arial, sans-serif" font-size="12px" text-anchor="middle" x="1250.0" y="676.0">Save Medical</text><text fill="#1a1a2e" font-family="Helvetica, Arial, sans-serif" font-size="12px" text-anchor="middle" x="1250.0" y="690.0">Record</text></g><circle cx="1330" cy="680" fill="#ffffff" r="15" stroke="#e94560" stroke-width="4" /><polygon fill="#fdfdfd" points="1000,750 1030,750 1040,760 1040,800 1000,800" stroke="#0f3460" stroke-width="1" /><polyline fill="none" points="1030,750 1030,760 1040,760" stroke="#0f3460" stroke-width="1" /><text fill="#1a1a2e" font-family="Helvetica, Arial, sans-serif" font-size="10px" text-anchor="middle" x="1020.0" y="779.0">Prescription</text><polygon fill="#fdfdfd" points="1150,570 1180,570 1190,580 1190,620 1150,620" stroke="#0f3460" stroke-width="1" /><polyline fill="none" points="1180,570 1180,580 1190,580" stroke="#0f3460" stroke-width="1" /><text fill="#1a1a2e" font-family="Helvetica, Arial, sans-serif" font-size="10px" text-anchor="middle" x="1170.0" y="599.0">Medical Record</text><polyline fill="none" marker-end="url(#arrow_seq)" points="720,440 840,440 840,580 190,580 190,650" stroke="#1a1a2e" stroke-width="1.5" /><polyline fill="none" marker-end="url(#arrow_seq)" points="250,680 300,680" stroke="#1a1a2e" stroke-width="1.5" /><polyline fill="none" marker-end="url(#arrow_seq)" points="420,680 470,680" stroke="#1a1a2e" stroke-width="1.5" /><polyline fill="none" marker-end="url(#arrow_seq)" points="590,680 630,680" stroke="#1a1a2e" stroke-width="1.5" /><polyline fill="none" marker-end="url(#arrow_seq)" points="670,680 690,680 690,625 720,625" stroke="#1a1a2e" stroke-width="1.5" /><polyline fill="none" marker-end="url(#arrow_seq)" points="670,680 720,680" stroke="#1a1a2e" stroke-width="1.5" /><polyline fill="none" marker-end="url(#arrow_seq)" points="670,680 690,680 690,755 720,755" stroke="#1a1a2e" stroke-width="1.5" /><polyline fill="none" marker-end="url(#arrow_seq)" points="840,625 860,625 860,680 880,680" stroke="#1a1a2e" stroke-width="1.5" /><polyline fill="none" marker-end="url(#arrow_seq)" points="840,690 880,690" stroke="#1a1a2e" stroke-width="1.5" /><polyline fill="none" marker-end="url(#arrow_seq)" points="840,755 860,755 860,680 880,680" stroke="#1a1a2e" stroke-width="1.5" /><polyline fill="none" marker-end="url(#arrow_seq)" points="920,680 960,680" stroke="#1a1a2e" stroke-width="1.5" /><polyline fill="none" marker-end="url(#arrow_seq)" points="1080,680 1120,680" stroke="#1a1a2e" stroke-width="1.5" /><polyline fill="none" marker-end="url(#arrow_seq)" points="1140,700 1140,780 1200,780" stroke="#1a1a2e" stroke-width="1.5" /><text fill="#1a1a2e" font-family="Helvetica, Arial, sans-serif" font-size="10px" text-anchor="middle" x="1140.0" y="735.0">Yes</text><polyline fill="none" marker-end="url(#arrow_seq)" points="1320,780 1340,780 1340,630 1180,630 1180,680 1200,680" stroke="#1a1a2e" stroke-width="1.5" /><polyline fill="none" marker-end="url(#arrow_seq)" points="1160,680 1200,680" stroke="#1a1a2e" stroke-width="1.5" /><text fill="#1a1a2e" font-family="Helvetica, Arial, sans-serif" font-size="10px" text-anchor="middle" x="1180.0" y="675.0">No</text><polyline fill="none" marker-end="url(#arrow_seq)" points="1300,680 1315,680" stroke="#1a1a2e" stroke-width="1.5" /><polyline fill="none" points="1020,710 1020,750" stroke="#6c757d" stroke-dasharray="2,4" stroke-width="1.5" /><polyline fill="none" points="1250,650 1190,600" stroke="#6c757d" stroke-dasharray="2,4" stroke-width="1.5" /><polyline fill="none" marker-end="url(#arrow_msg)" points="1250,650 1250,400 1160,400 1160,170" stroke="#0f3460" stroke-dasharray="6,4" stroke-width="1.5" /><rect fill="#ffffff" height="210" stroke="#6c757d" stroke-width="1" width="200" x="50" y="720" /><text fill="#1a1a2e" font-family="Helvetica, Arial, sans-serif" font-size="12px" font-weight="bold" text-anchor="middle" x="150.0" y="740">Legend</text><circle cx="70" cy="756" fill="#ffffff" r="8" stroke="#28a745" stroke-width="2" /><text fill="#1a1a2e" font-family="Helvetica, Arial, sans-serif" font-size="11px" x="90" y="760">Start Event</text><circle cx="70" cy="776" fill="#ffffff" r="8" stroke="#e94560" stroke-width="4" /><text fill="#1a1a2e" font-family="Helvetica, Arial, sans-serif" font-size="11px" x="90" y="780">End Event</text><rect fill="#ffffff" height="16" rx="3" stroke="#0f3460" width="20" x="60" y="788" /><circle cx="70" cy="796" fill="#0f3460" r="3" /><path d="M65,804 C65,799 75,799 75,804 Z" fill="#0f3460" /><text fill="#1a1a2e" font-family="Helvetica, Arial, sans-serif" font-size="11px" x="90" y="800">User Task</text><rect fill="#ffffff" height="16" rx="3" stroke="#0f3460" width="20" x="60" y="808" /><circle cx="70" cy="818" fill="none" r="4" stroke="#0f3460" stroke-width="2" /><circle cx="70" cy="818" fill="#0f3460" r="1" /><text fill="#1a1a2e" font-family="Helvetica, Arial, sans-serif" font-size="11px" x="90" y="820">Service Task</text><polygon fill="#ffffff" points="70.0,828 78,836.0 70.0,844 62,836.0" stroke="#6c757d" stroke-width="2" /><line stroke="#6c757d" stroke-width="2" x1="68.0" x2="72.0" y1="834.0" y2="838.0" /><line stroke="#6c757d" stroke-width="2" x1="68.0" x2="72.0" y1="838.0" y2="834.0" /><text fill="#1a1a2e" font-family="Helvetica, Arial, sans-serif" font-size="11px" x="90" y="840">Exclusive Gateway</text><polygon fill="#ffffff" points="70.0,848 78,856.0 70.0,864 62,856.0" stroke="#6c757d" stroke-width="2" /><line stroke="#6c757d" stroke-width="2" x1="70.0" x2="70.0" y1="852.0" y2="860.0" /><line stroke="#6c757d" stroke-width="2" x1="66.0" x2="74.0" y1="856.0" y2="856.0" /><text fill="#1a1a2e" font-family="Helvetica, Arial, sans-serif" font-size="11px" x="90" y="860">Parallel Gateway</text><polygon fill="#fdfdfd" points="64,868 66,868 76,878 76,884 64,884" stroke="#0f3460" stroke-width="1" /><polyline fill="none" points="66,868 66,878 76,878" stroke="#0f3460" stroke-width="1" /><text fill="#1a1a2e" font-family="Helvetica, Arial, sans-serif" font-size="10px" text-anchor="middle" x="70.0" y="880.0" /><text fill="#1a1a2e" font-family="Helvetica, Arial, sans-serif" font-size="11px" x="90" y="880">Data Object</text><line marker-end="url(#arrow_seq)" stroke="#1a1a2e" stroke-width="1.5" x1="60" x2="80" y1="896" y2="896" /><text fill="#1a1a2e" font-family="Helvetica, Arial, sans-serif" font-size="11px" x="90" y="900">Sequence Flow</text><line marker-end="url(#arrow_msg)" stroke="#0f3460" stroke-dasharray="6,4" stroke-width="1.5" x1="60" x2="80" y1="916" y2="916" /><text fill="#1a1a2e" font-family="Helvetica, Arial, sans-serif" font-size="11px" x="90" y="920">Message Flow</text></svg>