<?xml version="1.0" encoding="utf-8" ?>
<svg baseProfile="full" height="820px" version="1.1" viewBox="0 0 1300 820" width="1300px" xmlns="http://www.w3.org/2000/svg" xmlns:ev="http://www.w3.org/2001/xml-events" xmlns:xlink="http://www.w3.org/1999/xlink"><defs><marker id="id1" markerHeight="6" markerUnits="strokeWidth" markerWidth="8" orient="auto" refX="6" refY="3"><polygon fill="#6c757d" points="0,0 6,3 0,6" /></marker><marker id="id2" markerHeight="6" markerUnits="strokeWidth" markerWidth="8" orient="auto" refX="6" refY="3"><polygon fill="#6c757d" points="0,0 6,3 0,6" /></marker><marker id="id3" markerHeight="6" markerUnits="strokeWidth" markerWidth="8" orient="auto" refX="6" refY="3"><polygon fill="#6c757d" points="0,0 6,3 0,6" /></marker><marker id="id4" markerHeight="6" markerUnits="strokeWidth" markerWidth="8" orient="auto" refX="6" refY="3"><polygon fill="#e94560" points="0,0 6,3 0,6" /></marker><marker id="id5" markerHeight="6" markerUnits="strokeWidth" markerWidth="8" orient="auto" refX="6" refY="3"><polygon fill="#6c757d" points="0,0 6,3 0,6" /></marker><marker id="id6" markerHeight="6" markerUnits="strokeWidth" markerWidth="8" orient="auto" refX="6" refY="3"><polygon fill="#6c757d" points="0,0 6,3 0,6" /></marker><marker id="id7" markerHeight="6" markerUnits="strokeWidth" markerWidth="8" orient="auto" refX="6" refY="3"><polygon fill="#6c757d" points="0,0 6,3 0,6" /></marker><marker id="id8" markerHeight="6" markerUnits="strokeWidth" markerWidth="8" orient="auto" refX="6" refY="3"><polygon fill="#6c757d" points="0,0 6,3 0,6" /></marker><marker id="id9" markerHeight="6" markerUnits="strokeWidth" markerWidth="8" orient="auto" refX="6" refY="3"><polygon fill="#6c757d" points="0,0 6,3 0,6" /></marker><marker id="id10" markerHeight="6" markerUnits="strokeWidth" markerWidth="8" orient="auto" refX="6" refY="3"><polygon fill="#6c757d" points="0,0 6,3 0,6" /></marker><marker id="id11" markerHeight="6" markerUnits="strokeWidth" markerWidth="8" orient="auto" refX="6" refY="3"><polygon fill="#6c757d" points="0,0 6,3 0,6" /></marker><marker id="id12" markerHeight="6" markerUnits="strokeWidth" markerWidth="8" orient="auto" refX="6" refY="3"><polygon fill="#6c757d" points="0,0 6,3 0,6" /></marker><marker id="id13" markerHeight="6" markerUnits="strokeWidth" markerWidth="8" orient="auto" refX="6" refY="3"><polygon fill="#6c757d" points="0,0 6,3 0,6" /></marker><marker id="id14" markerHeight="6" markerUnits="strokeWidth" markerWidth="8" orient="auto" refX="6" refY="3"><polygon fill="#6c757d" points="0,0 6,3 0,6" /></marker><marker id="id15" markerHeight="6" markerUnits="strokeWidth" markerWidth="8" orient="auto" refX="6" refY="3"><polygon fill="#6c757d" points="0,0 6,3 0,6" /></marker><marker id="id16" markerHeight="6" markerUnits="strokeWidth" markerWidth="8" orient="auto" refX="6" refY="3"><polygon fill="#6c757d" points="0,0 6,3 0,6" /></marker><marker id="id17" markerHeight="6" markerUnits="strokeWidth" markerWidth="8" orient="auto" refX="6" refY="3"><polygon fill="#0f3460" points="0,0 6,3 0,6" /></marker><marker id="id18" markerHeight="6" markerUnits="strokeWidth" markerWidth="8" orient="auto" refX="6" refY="3"><polygon fill="#0f3460" points="0,0 6,3 0,6" /></marker><marker id="id19" markerHeight="6" markerUnits="strokeWidth" markerWidth="8" orient="auto" refX="6" refY="3"><polygon fill="#6c757d" points="0,0 6,3 0,6" /></marker><marker id="id20" markerHeight="6" markerUnits="strokeWidth" markerWidth="8" orient="auto" refX="6" refY="3"><polygon fill="#6c757d" points="0,0 6,3 0,6" /></marker><marker id="id21" markerHeight="6" markerUnits="strokeWidth" markerWidth="8" orient="auto" refX="6" refY="3"><polygon fill="#6c757d" points="0,0 6,3 0,6" /></marker><marker id="id22" markerHeight="6" markerUnits="strokeWidth" markerWidth="8" orient="auto" refX="6" refY="3"><polygon fill="#6c757d" points="0,0 6,3 0,6" /></marker><marker id="id23" markerHeight="6" markerUnits="strokeWidth" markerWidth="8" orient="auto" refX="6" refY="3"><polygon fill="#6c757d" points="0,0 6,3 0,6" /></marker><marker id="id24" markerHeight="6" markerUnits="strokeWidth" markerWidth="8" orient="auto" refX="6" refY="3"><polygon fill="#6c757d" points="0,0 6,3 0,6" /></marker><marker id="id25" markerHeight="6" markerUnits="strokeWidth" markerWidth="8" orient="auto" refX="6" refY="3"><polygon fill="#6c757d" points="0,0 6,3 0,6" /></marker><marker id="id26" markerHeight="6" markerUnits="strokeWidth" markerWidth="8" orient="auto" refX="6" refY="3"><polygon fill="#6c757d" points="0,0 6,3 0,6" /></marker><marker id="id27" markerHeight="6" markerUnits="strokeWidth" markerWidth="8" orient="auto" refX="6" refY="3"><polygon fill="#6c757d" points="0,0 6,3 0,6" /></marker><marker id="id28" markerHeight="6" markerUnits="strokeWidth" markerWidth="8" orient="auto" refX="6" refY="3"><polygon fill="#6c757d" points="0,0 6,3 0,6" /></marker><marker id="id29" markerHeight="6" markerUnits="strokeWidth" markerWidth="8" orient="auto" refX="6" refY="3"><polygon fill="#6c757d" points="0,0 6,3 0,6" /></marker><marker id="id30" markerHeight="6" markerUnits="strokeWidth" markerWidth="8" orient="auto" refX="6" refY="3"><polygon fill="#0f3460" points="0,0 6,3 0,6" /></marker><marker id="id31" markerHeight="6" markerUnits="strokeWidth" markerWidth="8" orient="auto" refX="6" refY="3"><polygon fill="#1976d2" points="0,0 6,3 0,6" /></marker></defs><rect fill="#ffffff" height="820" width="1300" x="0" y="0" /><text fill="#1a1a2e" font-family="Helvetica, Arial, sans-serif" font-size="16" font-weight="bold" text-anchor="middle" x="650.0" y="28">BPMN Diagram 1: Patient Admission &amp; Form Completion Process</text><line stroke="#e94560" stroke-width="1.5" x1="100" x2="1200" y1="38" y2="38" /><rect fill="#0f3460" height="30" rx="4" ry="4" width="1280" x="10" y="50" /><text fill="#ffffff" font-family="Helvetica, Arial, sans-serif" font-size="14" font-weight="bold" text-anchor="middle" x="650.0" y="70">CVD Clinic — Patient Admission Process</text><rect fill="#eef2f7" height="220" opacity="0.5" stroke="#0f3460" stroke-width="0.5" width="1280" x="10" y="85" /><rect fill="#0f3460" height="220" opacity="0.12" stroke="none" width="35" x="10" y="85" /><line opacity="0.4" stroke="#0f3460" stroke-width="0.5" x1="45" x2="45" y1="85" y2="305" /><text fill="#0f3460" font-family="Helvetica, Arial, sans-serif" font-size="13" font-weight="bold" text-anchor="middle" transform="rotate(-90, 27.5, 195.0)" x="27.5" y="195.0">Patient</text><rect fill="#f7f0ee" height="200" opacity="0.5" stroke="#0f3460" stroke-width="0.5" width="1280" x="10" y="305" /><rect fill="#0f3460" height="200" opacity="0.12" stroke="none" width="35" x="10" y="305" /><line opacity="0.4" stroke="#0f3460" stroke-width="0.5" x1="45" x2="45" y1="305" y2="505" /><text fill="#0f3460" font-family="Helvetica, Arial, sans-serif" font-size="13" font-weight="bold" text-anchor="middle" transform="rotate(-90, 27.5, 405.0)" x="27.5" y="405.0">Nurse / Admin</text><rect fill="#eef7f0" height="240" opacity="0.5" stroke="#0f3460" stroke-width="0.5" width="1280" x="10" y="505" /><rect fill="#0f3460" height="240" opacity="0.12" stroke="none" width="35" x="10" y="505" /><line opacity="0.4" stroke="#0f3460" stroke-width="0.5" x1="45" x2="45" y1="505" y2="745" /><text fill="#0f3460" font-family="Helvetica, Arial, sans-serif" font-size="13" font-weight="bold" text-anchor="middle" transform="rotate(-90, 27.5, 625.0)" x="27.5" y="625.0">Consultant</text><circle cx="80" cy="195.0" fill="#e8f5e9" r="14" stroke="#388e3c" stroke-width="2.5" /><polygon fill="#388e3c" opacity="0.6" points="76,189.0 76,201.0 86,195.0" /><text fill="#6c757d" font-family="Helvetica, Arial, sans-serif" font-size="10" text-anchor="middle" x="80" y="223.0">Arrive at
Clinic</text><rect fill="#ffffff" height="50" rx="8" ry="8" stroke="#0f3460" stroke-width="2" width="120" x="130" y="170.0" /><circle cx="140" cy="180.0" fill="none" r="4" stroke="#0f3460" stroke-width="1" /><line stroke="#0f3460" stroke-width="1" x1="140" x2="140" y1="184.0" y2="190.0" /><line stroke="#0f3460" stroke-width="1" x1="136" x2="144" y1="187.0" y2="187.0" /><text fill="#1a1a2e" font-family="Helvetica, Arial, sans-serif" font-size="11" font-weight="500" text-anchor="middle" x="190.0" y="184.0">Login /</text><text fill="#1a1a2e" font-family="Helvetica, Arial, sans-serif" font-size="11" font-weight="500" text-anchor="middle" x="190.0" y="198.0">Register on</text><text fill="#1a1a2e" font-family="Helvetica, Arial, sans-serif" font-size="11" font-weight="500" text-anchor="middle" x="190.0" y="212.0">Portal</text><line marker-end="url(#id1)" stroke="#6c757d" stroke-dasharray="none" stroke-width="1.5" x1="94" x2="130" y1="195.0" y2="195.0" /><rect fill="#ffffff" height="50" rx="8" ry="8" stroke="#0f3460" stroke-width="2" width="130" x="280" y="170.0" /><circle cx="290" cy="180.0" fill="none" r="4" stroke="#0f3460" stroke-width="1" /><line stroke="#0f3460" stroke-width="1" x1="290" x2="290" y1="184.0" y2="190.0" /><line stroke="#0f3460" stroke-width="1" x1="286" x2="294" y1="187.0" y2="187.0" /><text fill="#1a1a2e" font-family="Helvetica, Arial, sans-serif" font-size="11" font-weight="500" text-anchor="middle" x="345.0" y="191.0">Fill Section 1</text><text fill="#1a1a2e" font-family="Helvetica, Arial, sans-serif" font-size="11" font-weight="500" text-anchor="middle" x="345.0" y="205.0">Form</text><line marker-end="url(#id2)" stroke="#6c757d" stroke-dasharray="none" stroke-width="1.5" x1="250" x2="280" y1="195.0" y2="195.0" /><polygon fill="#fff8e1" points="445,175.0 465,195.0 445,215.0 425,195.0" stroke="#f57c00" stroke-width="2" /><line stroke="#f57c00" stroke-width="2.5" x1="438" x2="452" y1="188.0" y2="202.0" /><line stroke="#f57c00" stroke-width="2.5" x1="452" x2="438" y1="188.0" y2="202.0" /><text fill="#6c757d" font-family="Helvetica, Arial, sans-serif" font-size="9" font-style="italic" text-anchor="middle" x="445" y="231.0">Form
complete?</text><line marker-end="url(#id3)" stroke="#6c757d" stroke-dasharray="none" stroke-width="1.5" x1="410" x2="425" y1="195.0" y2="195.0" /><polyline fill="none" marker-end="url(#id4)" points="445,175.0 445,135.0 345,135.0 345,170.0" stroke="#e94560" stroke-dasharray="none" stroke-width="1.5" /><text fill="#f57c00" font-family="Helvetica, Arial, sans-serif" font-size="9" font-weight="600" text-anchor="start" x="400.0" y="167.5">No</text><rect fill="#ffffff" height="50" rx="8" ry="8" stroke="#0f3460" stroke-width="2" width="110" x="495" y="170.0" /><circle cx="505" cy="180.0" fill="none" r="4" stroke="#0f3460" stroke-width="1" /><line stroke="#0f3460" stroke-width="1" x1="505" x2="505" y1="184.0" y2="190.0" /><line stroke="#0f3460" stroke-width="1" x1="501" x2="509" y1="187.0" y2="187.0" /><text fill="#1a1a2e" font-family="Helvetica, Arial, sans-serif" font-size="11" font-weight="500" text-anchor="middle" x="550.0" y="198.0">Submit Form</text><line marker-end="url(#id5)" stroke="#6c757d" stroke-dasharray="none" stroke-width="1.5" x1="465" x2="495" y1="195.0" y2="195.0" /><rect fill="#ffffff" height="14" opacity="0.9" rx="3" ry="3" width="50" x="455.0" y="185.0" /><text fill="#f57c00" font-family="Helvetica, Arial, sans-serif" font-size="9" font-weight="600" text-anchor="middle" x="480.0" y="195.0">Yes</text><rect fill="#ffffff" height="50" rx="8" ry="8" stroke="#0f3460" stroke-width="2" width="120" x="635" y="170.0" /><circle cx="645" cy="180.0" fill="none" r="4" stroke="#0f3460" stroke-width="1" /><line stroke="#0f3460" stroke-width="1" x1="645" x2="645" y1="184.0" y2="190.0" /><line stroke="#0f3460" stroke-width="1" x1="641" x2="649" y1="187.0" y2="187.0" /><text fill="#1a1a2e" font-family="Helvetica, Arial, sans-serif" font-size="11" font-weight="500" text-anchor="middle" x="695.0" y="191.0">Wait for Vital</text><text fill="#1a1a2e" font-family="Helvetica, Arial, sans-serif" font-size="11" font-weight="500" text-anchor="middle" x="695.0" y="205.0">Signs Check</text><line marker-end="url(#id6)" stroke="#6c757d" stroke-dasharray="none" stroke-width="1.5" x1="605" x2="635" y1="195.0" y2="195.0" /><rect fill="#ffffff" height="50" rx="8" ry="8" stroke="#0f3460" stroke-width="2" width="120" x="785" y="170.0" /><circle cx="795" cy="180.0" fill="none" r="4" stroke="#0f3460" stroke-width="1" /><line stroke="#0f3460" stroke-width="1" x1="795" x2="795" y1="184.0" y2="190.0" /><line stroke="#0f3460" stroke-width="1" x1="791" x2="799" y1="187.0" y2="187.0" /><text fill="#1a1a2e" font-family="Helvetica, Arial, sans-serif" font-size="11" font-weight="500" text-anchor="middle" x="845.0" y="191.0">Attend</text><text fill="#1a1a2e" font-family="Helvetica, Arial, sans-serif" font-size="11" font-weight="500" text-anchor="middle" x="845.0" y="205.0">Consultation</text><line marker-end="url(#id7)" stroke="#6c757d" stroke-dasharray="none" stroke-width="1.5" x1="755" x2="785" y1="195.0" y2="195.0" /><rect fill="#ffffff" height="50" rx="8" ry="8" stroke="#0f3460" stroke-width="2" width="120" x="935" y="170.0" /><circle cx="945" cy="180.0" fill="none" r="4" stroke="#0f3460" stroke-width="1" /><line stroke="#0f3460" stroke-width="1" x1="945" x2="945" y1="184.0" y2="190.0" /><line stroke="#0f3460" stroke-width="1" x1="941" x2="949" y1="187.0" y2="187.0" /><text fill="#1a1a2e" font-family="Helvetica, Arial, sans-serif" font-size="11" font-weight="500" text-anchor="middle" x="995.0" y="191.0">Receive</text><text fill="#1a1a2e" font-family="Helvetica, Arial, sans-serif" font-size="11" font-weight="500" text-anchor="middle" x="995.0" y="205.0">Prescription</text><line marker-end="url(#id8)" stroke="#6c757d" stroke-dasharray="none" stroke-width="1.5" x1="905" x2="935" y1="195.0" y2="195.0" /><circle cx="1085" cy="195.0" fill="#ffebee" r="14" stroke="#e94560" stroke-width="3.5" /><rect fill="#e94560" height="7" opacity="0.7" rx="1" ry="1" width="7" x="1081.5" y="191.5" /><text fill="#6c757d" font-family="Helvetica, Arial, sans-serif" font-size="10" text-anchor="middle" x="1085" y="223.0">Process
Complete</text><line marker-end="url(#id9)" stroke="#6c757d" stroke-dasharray="none" stroke-width="1.5" x1="1055" x2="1071" y1="195.0" y2="195.0" /><rect fill="#ffffff" height="50" rx="8" ry="8" stroke="#0f3460" stroke-width="2" width="130" x="130" y="380.0" /><circle cx="140" cy="390.0" fill="none" r="4" stroke="#0f3460" stroke-width="1" /><line stroke="#0f3460" stroke-width="1" x1="140" x2="140" y1="394.0" y2="400.0" /><line stroke="#0f3460" stroke-width="1" x1="136" x2="144" y1="397.0" y2="397.0" /><text fill="#1a1a2e" font-family="Helvetica, Arial, sans-serif" font-size="11" font-weight="500" text-anchor="middle" x="195.0" y="401.0">Verify Patient</text><text fill="#1a1a2e" font-family="Helvetica, Arial, sans-serif" font-size="11" font-weight="500" text-anchor="middle" x="195.0" y="415.0">Identity</text><polygon fill="#fff8e1" points="295,385.0 315,405.0 295,425.0 275,405.0" stroke="#f57c00" stroke-width="2" /><line stroke="#f57c00" stroke-width="2.5" x1="287" x2="303" y1="405.0" y2="405.0" /><line stroke="#f57c00" stroke-width="2.5" x1="295" x2="295" y1="397.0" y2="413.0" /><line marker-end="url(#id10)" stroke="#6c757d" stroke-dasharray="none" stroke-width="1.5" x1="260" x2="275" y1="405.0" y2="405.0" /><rect fill="#ffffff" height="40" rx="8" ry="8" stroke="#0f3460" stroke-width="2" width="120" x="340" y="340.0" /><circle cx="350" cy="350.0" fill="none" r="4" stroke="#0f3460" stroke-width="1" /><line stroke="#0f3460" stroke-width="1" x1="350" x2="350" y1="354.0" y2="360.0" /><line stroke="#0f3460" stroke-width="1" x1="346" x2="354" y1="357.0" y2="357.0" /><text fill="#1a1a2e" font-family="Helvetica, Arial, sans-serif" font-size="11" font-weight="500" text-anchor="middle" x="400.0" y="356.0">Check Blood</text><text fill="#1a1a2e" font-family="Helvetica, Arial, sans-serif" font-size="11" font-weight="500" text-anchor="middle" x="400.0" y="370.0">Pressure</text><line marker-end="url(#id11)" stroke="#6c757d" stroke-dasharray="none" stroke-width="1.5" x1="315" x2="340" y1="405.0" y2="360.0" /><rect fill="#ffffff" height="40" rx="8" ry="8" stroke="#0f3460" stroke-width="2" width="120" x="340" y="420.0" /><circle cx="350" cy="430.0" fill="none" r="4" stroke="#0f3460" stroke-width="1" /><line stroke="#0f3460" stroke-width="1" x1="350" x2="350" y1="434.0" y2="440.0" /><line stroke="#0f3460" stroke-width="1" x1="346" x2="354" y1="437.0" y2="437.0" /><text fill="#1a1a2e" font-family="Helvetica, Arial, sans-serif" font-size="11" font-weight="500" text-anchor="middle" x="400.0" y="436.0">Check BMI &amp;</text><text fill="#1a1a2e" font-family="Helvetica, Arial, sans-serif" font-size="11" font-weight="500" text-anchor="middle" x="400.0" y="450.0">Sugar</text><line marker-end="url(#id12)" stroke="#6c757d" stroke-dasharray="none" stroke-width="1.5" x1="315" x2="340" y1="405.0" y2="440.0" /><polygon fill="#fff8e1" points="495,385.0 515,405.0 495,425.0 475,405.0" stroke="#f57c00" stroke-width="2" /><line stroke="#f57c00" stroke-width="2.5" x1="487" x2="503" y1="405.0" y2="405.0" /><line stroke="#f57c00" stroke-width="2.5" x1="495" x2="495" y1="397.0" y2="413.0" /><line marker-end="url(#id13)" stroke="#6c757d" stroke-dasharray="none" stroke-width="1.5" x1="460" x2="475" y1="360.0" y2="405.0" /><line marker-end="url(#id14)" stroke="#6c757d" stroke-dasharray="none" stroke-width="1.5" x1="460" x2="475" y1="440.0" y2="405.0" /><rect fill="#f3e5f5" height="50" rx="8" ry="8" stroke="#7b1fa2" stroke-width="2" width="130" x="540" y="380.0" /><circle cx="552" cy="392.0" fill="none" r="5" stroke="#7b1fa2" stroke-width="1.5" /><circle cx="552" cy="392.0" fill="#7b1fa2" r="2" /><text fill="#1a1a2e" font-family="Helvetica, Arial, sans-serif" font-size="11" font-weight="500" text-anchor="middle" x="605.0" y="401.0">Record Vital</text><text fill="#1a1a2e" font-family="Helvetica, Arial, sans-serif" font-size="11" font-weight="500" text-anchor="middle" x="605.0" y="415.0">Signs in System</text><line marker-end="url(#id15)" stroke="#6c757d" stroke-dasharray="none" stroke-width="1.5" x1="515" x2="540" y1="405.0" y2="405.0" /><rect fill="#ffffff" height="50" rx="8" ry="8" stroke="#0f3460" stroke-width="2" width="130" x="705" y="380.0" /><circle cx="715" cy="390.0" fill="none" r="4" stroke="#0f3460" stroke-width="1" /><line stroke="#0f3460" stroke-width="1" x1="715" x2="715" y1="394.0" y2="400.0" /><line stroke="#0f3460" stroke-width="1" x1="711" x2="719" y1="397.0" y2="397.0" /><text fill="#1a1a2e" font-family="Helvetica, Arial, sans-serif" font-size="11" font-weight="500" text-anchor="middle" x="770.0" y="401.0">Escort to</text><text fill="#1a1a2e" font-family="Helvetica, Arial, sans-serif" font-size="11" font-weight="500" text-anchor="middle" x="770.0" y="415.0">Consultant</text><line marker-end="url(#id16)" stroke="#6c757d" stroke-dasharray="none" stroke-width="1.5" x1="670" x2="705" y1="405.0" y2="405.0" /><polyline fill="none" marker-end="url(#id17)" points="550,220.0 550,380.0" stroke="#0f3460" stroke-dasharray="6,3" stroke-width="1.5" /><polyline fill="none" marker-end="url(#id18)" points="695,220.0 695,380.0" stroke="#0f3460" stroke-dasharray="6,3" stroke-width="1.5" /><rect fill="#ffffff" height="50" rx="8" ry="8" stroke="#0f3460" stroke-width="2" width="130" x="130" y="570.0" /><circle cx="140" cy="580.0" fill="none" r="4" stroke="#0f3460" stroke-width="1" /><line stroke="#0f3460" stroke-width="1" x1="140" x2="140" y1="584.0" y2="590.0" /><line stroke="#0f3460" stroke-width="1" x1="136" x2="144" y1="587.0" y2="587.0" /><text fill="#1a1a2e" font-family="Helvetica, Arial, sans-serif" font-size="11" font-weight="500" text-anchor="middle" x="195.0" y="591.0">Review Section 1</text><text fill="#1a1a2e" font-family="Helvetica, Arial, sans-serif" font-size="11" font-weight="500" text-anchor="middle" x="195.0" y="605.0">(Patient Data)</text><rect fill="#ffffff" height="50" rx="8" ry="8" stroke="#0f3460" stroke-width="2" width="130" x="295" y="570.0" /><circle cx="305" cy="580.0" fill="none" r="4" stroke="#0f3460" stroke-width="1" /><line stroke="#0f3460" stroke-width="1" x1="305" x2="305" y1="584.0" y2="590.0" /><line stroke="#0f3460" stroke-width="1" x1="301" x2="309" y1="587.0" y2="587.0" /><text fill="#1a1a2e" font-family="Helvetica, Arial, sans-serif" font-size="11" font-weight="500" text-anchor="middle" x="360.0" y="591.0">Conduct CVD</text><text fill="#1a1a2e" font-family="Helvetica, Arial, sans-serif" font-size="11" font-weight="500" text-anchor="middle" x="360.0" y="605.0">Examination</text><line marker-end="url(#id19)" stroke="#6c757d" stroke-dasharray="none" stroke-width="1.5" x1="260" x2="295" y1="595.0" y2="595.0" /><rect fill="#ffffff" height="50" rx="8" ry="8" stroke="#0f3460" stroke-width="2" width="130" x="460" y="570.0" /><circle cx="470" cy="580.0" fill="none" r="4" stroke="#0f3460" stroke-width="1" /><line stroke="#0f3460" stroke-width="1" x1="470" x2="470" y1="584.0" y2="590.0" /><line stroke="#0f3460" stroke-width="1" x1="466" x2="474" y1="587.0" y2="587.0" /><text fill="#1a1a2e" font-family="Helvetica, Arial, sans-serif" font-size="11" font-weight="500" text-anchor="middle" x="525.0" y="591.0">Complete Section</text><text fill="#1a1a2e" font-family="Helvetica, Arial, sans-serif" font-size="11" font-weight="500" text-anchor="middle" x="525.0" y="605.0">2 (Notes)</text><line marker-end="url(#id20)" stroke="#6c757d" stroke-dasharray="none" stroke-width="1.5" x1="425" x2="460" y1="595.0" y2="595.0" /><polygon fill="#fff8e1" points="625,575.0 645,595.0 625,615.0 605,595.0" stroke="#f57c00" stroke-width="2" /><line stroke="#f57c00" stroke-width="2.5" x1="618" x2="632" y1="588.0" y2="602.0" /><line stroke="#f57c00" stroke-width="2.5" x1="632" x2="618" y1="588.0" y2="602.0" /><text fill="#6c757d" font-family="Helvetica, Arial, sans-serif" font-size="9" font-style="italic" text-anchor="middle" x="625" y="631.0">Diagnosis
Type?</text><line marker-end="url(#id21)" stroke="#6c757d" stroke-dasharray="none" stroke-width="1.5" x1="590" x2="605" y1="595.0" y2="595.0" /><rect fill="#ffffff" height="34" rx="8" ry="8" stroke="#0f3460" stroke-width="2" width="130" x="680" y="523.0" /><circle cx="690" cy="533.0" fill="none" r="4" stroke="#0f3460" stroke-width="1" /><line stroke="#0f3460" stroke-width="1" x1="690" x2="690" y1="537.0" y2="543.0" /><line stroke="#0f3460" stroke-width="1" x1="686" x2="694" y1="540.0" y2="540.0" /><text fill="#1a1a2e" font-family="Helvetica, Arial, sans-serif" font-size="11" font-weight="500" text-anchor="middle" x="745.0" y="536.0">Hypertension</text><text fill="#1a1a2e" font-family="Helvetica, Arial, sans-serif" font-size="11" font-weight="500" text-anchor="middle" x="745.0" y="550.0">Plan</text><rect fill="#ffffff" height="34" rx="8" ry="8" stroke="#0f3460" stroke-width="2" width="130" x="680" y="578.0" /><circle cx="690" cy="588.0" fill="none" r="4" stroke="#0f3460" stroke-width="1" /><line stroke="#0f3460" stroke-width="1" x1="690" x2="690" y1="592.0" y2="598.0" /><line stroke="#0f3460" stroke-width="1" x1="686" x2="694" y1="595.0" y2="595.0" /><text fill="#1a1a2e" font-family="Helvetica, Arial, sans-serif" font-size="11" font-weight="500" text-anchor="middle" x="745.0" y="598.0">Hypotension Plan</text><rect fill="#ffffff" height="34" rx="8" ry="8" stroke="#0f3460" stroke-width="2" width="130" x="680" y="633.0" /><circle cx="690" cy="643.0" fill="none" r="4" stroke="#0f3460" stroke-width="1" /><line stroke="#0f3460" stroke-width="1" x1="690" x2="690" y1="647.0" y2="653.0" /><line stroke="#0f3460" stroke-width="1" x1="686" x2="694" y1="650.0" y2="650.0" /><text fill="#1a1a2e" font-family="Helvetica, Arial, sans-serif" font-size="11" font-weight="500" text-anchor="middle" x="745.0" y="653.0">Diabetes Plan</text><line marker-end="url(#id22)" stroke="#6c757d" stroke-dasharray="none" stroke-width="1.5" x1="625" x2="680" y1="575.0" y2="540.0" /><line marker-end="url(#id23)" stroke="#6c757d" stroke-dasharray="none" stroke-width="1.5" x1="645" x2="680" y1="595.0" y2="595.0" /><line marker-end="url(#id24)" stroke="#6c757d" stroke-dasharray="none" stroke-width="1.5" x1="625" x2="680" y1="615.0" y2="650.0" /><polygon fill="#fff8e1" points="845,575.0 865,595.0 845,615.0 825,595.0" stroke="#f57c00" stroke-width="2" /><line stroke="#f57c00" stroke-width="2.5" x1="838" x2="852" y1="588.0" y2="602.0" /><line stroke="#f57c00" stroke-width="2.5" x1="852" x2="838" y1="588.0" y2="602.0" /><line marker-end="url(#id25)" stroke="#6c757d" stroke-dasharray="none" stroke-width="1.5" x1="810" x2="825" y1="540.0" y2="595.0" /><line marker-end="url(#id26)" stroke="#6c757d" stroke-dasharray="none" stroke-width="1.5" x1="810" x2="825" y1="595.0" y2="595.0" /><line marker-end="url(#id27)" stroke="#6c757d" stroke-dasharray="none" stroke-width="1.5" x1="810" x2="825" y1="650.0" y2="595.0" /><rect fill="#f3e5f5" height="50" rx="8" ry="8" stroke="#7b1fa2" stroke-width="2" width="120" x="890" y="570.0" /><circle cx="902" cy="582.0" fill="none" r="5" stroke="#7b1fa2" stroke-width="1.5" /><circle cx="902" cy="582.0" fill="#7b1fa2" r="2" /><text fill="#1a1a2e" font-family="Helvetica, Arial, sans-serif" font-size="11" font-weight="500" text-anchor="middle" x="950.0" y="591.0">Generate</text><text fill="#1a1a2e" font-family="Helvetica, Arial, sans-serif" font-size="11" font-weight="500" text-anchor="middle" x="950.0" y="605.0">Prescription</text><line marker-end="url(#id28)" stroke="#6c757d" stroke-dasharray="none" stroke-width="1.5" x1="865" x2="890" y1="595.0" y2="595.0" /><rect fill="#f3e5f5" height="50" rx="8" ry="8" stroke="#7b1fa2" stroke-width="2" width="120" x="1040" y="570.0" /><circle cx="1052" cy="582.0" fill="none" r="5" stroke="#7b1fa2" stroke-width="1.5" /><circle cx="1052" cy="582.0" fill="#7b1fa2" r="2" /><text fill="#1a1a2e" font-family="Helvetica, Arial, sans-serif" font-size="11" font-weight="500" text-anchor="middle" x="1100.0" y="591.0">Save Medical</text><text fill="#1a1a2e" font-family="Helvetica, Arial, sans-serif" font-size="11" font-weight="500" text-anchor="middle" x="1100.0" y="605.0">Record</text><line marker-end="url(#id29)" stroke="#6c757d" stroke-dasharray="none" stroke-width="1.5" x1="1010" x2="1040" y1="595.0" y2="595.0" /><polyline fill="none" marker-end="url(#id30)" points="770,430.0 770,545.0 195,545.0 195,570.0" stroke="#0f3460" stroke-dasharray="6,3" stroke-width="1.5" /><path d="M1090,665.0 L1130,665.0 L1140,675.0 L1140,720.0 L1090,720.0 Z" fill="#e3f2fd" stroke="#1976d2" stroke-width="1.5" /><path d="M1130,665.0 L1130,675.0 L1140,675.0" fill="none" stroke="#1976d2" stroke-width="1.5" /><text fill="#1976d2" font-family="Helvetica, Arial, sans-serif" font-size="9" text-anchor="middle" x="1115.0" y="734.0">Medical</text><text fill="#1976d2" font-family="Helvetica, Arial, sans-serif" font-size="9" text-anchor="middle" x="1115.0" y="746.0">Record</text><polyline fill="none" marker-end="url(#id31)" points="1100,620.0 1115,665.0" stroke="#1976d2" stroke-dasharray="6,3" stroke-width="1.5" /><rect fill="#ffffff" height="50" rx="6" stroke="#6c757d" stroke-width="0.5" width="1220" x="40" y="705" /><text fill="#1a1a2e" font-family="Helvetica, Arial, sans-serif" font-size="10" font-weight="bold" x="50" y="725">Legend:</text><circle cx="110" cy="722" fill="none" r="8" stroke="#388e3c" stroke-width="2" /><text fill="#6c757d" font-family="Helvetica, Arial, sans-serif" font-size="9" x="126" y="726">Start Event</text><circle cx="230" cy="722" fill="none" r="8" stroke="#e94560" stroke-width="2" /><text fill="#6c757d" font-family="Helvetica, Arial, sans-serif" font-size="9" x="246" y="726">End Event</text><rect fill="#ffffff" height="16" rx="3" stroke="#0f3460" stroke-width="1.5" width="20" x="330" y="714" /><text fill="#6c757d" font-family="Helvetica, Arial, sans-serif" font-size="9" x="356" y="726">User Task</text><rect fill="#f3e5f5" height="16" rx="3" stroke="#7b1fa2" stroke-width="1.5" width="20" x="440" y="714" /><text fill="#6c757d" font-family="Helvetica, Arial, sans-serif" font-size="9" x="466" y="726">Service Task</text><polygon fill="#fff8e1" points="580,714 588,722 580,730 572,722" stroke="#f57c00" stroke-width="1.5" /><text fill="#6c757d" font-family="Helvetica, Arial, sans-serif" font-size="9" x="596" y="726">Exclusive Gateway</text><polygon fill="#fff8e1" points="750,714 758,722 750,730 742,722" stroke="#f57c00" stroke-width="1.5" /><line stroke="#f57c00" stroke-width="1.5" x1="746" x2="754" y1="722" y2="722" /><line stroke="#f57c00" stroke-width="1.5" x1="750" x2="750" y1="718" y2="726" /><text fill="#6c757d" font-family="Helvetica, Arial, sans-serif" font-size="9" x="766" y="726">Parallel Gateway</text><rect fill="#e3f2fd" height="18" stroke="#1976d2" stroke-width="1" width="16" x="912" y="715" /><text fill="#6c757d" font-family="Helvetica, Arial, sans-serif" font-size="9" x="936" y="726">Data Object</text><line stroke="#0f3460" stroke-dasharray="4,3" stroke-width="1.5" x1="1028" x2="1052" y1="722" y2="722" /><text fill="#6c757d" font-family="Helvetica, Arial, sans-serif" font-size="9" x="1056" y="726">Message Flow</text></svg>