<?xml version="1.0" encoding="utf-8" ?>
<svg baseProfile="full" height="750px" version="1.1" width="1250px" xmlns="http://www.w3.org/2000/svg" xmlns:ev="http://www.w3.org/2001/xml-events" xmlns:xlink="http://www.w3.org/1999/xlink"><defs><marker id="arrow_seq" markerHeight="10" markerWidth="10" orient="auto" refX="10" refY="5"><polygon fill="#1a1a2e" points="0,0 10,5 0,10" /></marker><marker id="arrow_msg" markerHeight="10" markerWidth="10" orient="auto" refX="10" refY="5"><polygon fill="none" points="0,0 10,5 0,10" stroke="#0f3460" /></marker></defs><rect fill="none" height="750" stroke="#1a1a2e" stroke-width="2" width="1250" x="0" y="0" /><rect fill="#0f3460" height="40" width="1250" x="0" y="0" /><text fill="#ffffff" font-family="Helvetica, Arial, sans-serif" font-size="20px" font-weight="bold" text-anchor="middle" x="625.0" y="25">CVD Clinic - Form Processing &amp; Data Flow</text><rect fill="#eef2f7" height="180" stroke="#1a1a2e" stroke-width="1" width="1250" x="0" y="40" /><rect fill="#0f3460" height="180" stroke="#1a1a2e" stroke-width="1" width="40" x="0" y="40" /><g transform="translate(25, 130.0) rotate(-90)"><text fill="#ffffff" font-family="Helvetica, Arial, sans-serif" font-size="16px" font-weight="bold" text-anchor="middle" x="0" y="0">Patient</text></g><rect fill="#f7f0ee" height="180" stroke="#1a1a2e" stroke-width="1" width="1250" x="0" y="220" /><rect fill="#0f3460" height="180" stroke="#1a1a2e" stroke-width="1" width="40" x="0" y="220" /><g transform="translate(25, 310.0) rotate(-90)"><text fill="#ffffff" font-family="Helvetica, Arial, sans-serif" font-size="16px" font-weight="bold" text-anchor="middle" x="0" y="0">Nurse</text></g><rect fill="#eef7f0" height="180" stroke="#1a1a2e" stroke-width="1" width="1250" x="0" y="400" /><rect fill="#0f3460" height="180" stroke="#1a1a2e" stroke-width="1" width="40" x="0" y="400" /><g transform="translate(25, 490.0) rotate(-90)"><text fill="#ffffff" font-family="Helvetica, Arial, sans-serif" font-size="16px" font-weight="bold" text-anchor="middle" x="0" y="0">Consultant</text></g><rect fill="#f0eef7" height="170" stroke="#1a1a2e" stroke-width="1" width="1250" x="0" y="580" /><rect fill="#0f3460" height="170" stroke="#1a1a2e" stroke-width="1" width="40" x="0" y="580" /><g transform="translate(25, 665.0) rotate(-90)"><text fill="#ffffff" font-family="Helvetica, Arial, sans-serif" font-size="16px" font-weight="bold" text-anchor="middle" x="0" y="0">System</text></g><circle cx="80" cy="120" fill="#ffffff" r="15" stroke="#28a745" stroke-width="2" /><g><rect fill="#ffffff" height="60" rx="8" ry="8" stroke="#0f3460" stroke-width="2" width="140" x="130" y="90" /><circle cx="142" cy="100" fill="#0f3460" r="3" /><path d="M137,108 C137,103 147,103 147,108 Z" fill="#0f3460" /><text fill="#1a1a2e" font-family="Helvetica, Arial, sans-serif" font-size="12px" text-anchor="middle" x="200.0" y="109.0">Fill Section 1:</text><text fill="#1a1a2e" font-family="Helvetica, Arial, sans-serif" font-size="12px" text-anchor="middle" x="200.0" y="123.0">Personal Info,</text><text fill="#1a1a2e" font-family="Helvetica, Arial, sans-serif" font-size="12px" text-anchor="middle" x="200.0" y="137.0">Symptoms</text></g><polygon fill="#ffffff" points="340.0,100 360,120.0 340.0,140 320,120.0" stroke="#6c757d" stroke-width="2" /><line stroke="#6c757d" stroke-width="2" x1="332.0" x2="348.0" y1="112.0" y2="128.0" /><line stroke="#6c757d" stroke-width="2" x1="332.0" x2="348.0" y1="128.0" y2="112.0" /><g><rect fill="#ffffff" height="60" rx="8" ry="8" stroke="#0f3460" stroke-width="2" width="120" x="420" y="90" /><circle cx="432" cy="100" fill="#0f3460" r="3" /><path d="M427,108 C427,103 437,103 437,108 Z" fill="#0f3460" /><text fill="#1a1a2e" font-family="Helvetica, Arial, sans-serif" font-size="12px" text-anchor="middle" x="480.0" y="116.0">Submit Section</text><text fill="#1a1a2e" font-family="Helvetica, Arial, sans-serif" font-size="12px" text-anchor="middle" x="480.0" y="130.0">1</text></g><circle cx="600" cy="120" fill="#ffffff" r="15" stroke="#e94560" stroke-width="4" /><g><rect fill="#ffffff" height="60" rx="8" ry="8" stroke="#0f3460" stroke-width="2" width="140" x="1000" y="90" /><rect fill="#ffffff" height="8" stroke="#0f3460" stroke-width="1" width="12" x="1006" y="98" /><polyline fill="none" points="1006,98 1012,103 1018,98" stroke="#0f3460" stroke-width="1" /><text fill="#1a1a2e" font-family="Helvetica, Arial, sans-serif" font-size="12px" text-anchor="middle" x="1070.0" y="109.0">Receive</text><text fill="#1a1a2e" font-family="Helvetica, Arial, sans-serif" font-size="12px" text-anchor="middle" x="1070.0" y="123.0">Completion</text><text fill="#1a1a2e" font-family="Helvetica, Arial, sans-serif" font-size="12px" text-anchor="middle" x="1070.0" y="137.0">Notification</text></g><circle cx="1200" cy="120" fill="#ffffff" r="15" stroke="#e94560" stroke-width="4" /><polyline fill="none" marker-end="url(#arrow_seq)" points="95,120 130,120" stroke="#1a1a2e" stroke-width="1.5" /><polyline fill="none" marker-end="url(#arrow_seq)" points="270,120 320,120" stroke="#1a1a2e" stroke-width="1.5" /><polyline fill="none" marker-end="url(#arrow_seq)" points="340,100 340,60 200,60 200,90" stroke="#1a1a2e" stroke-width="1.5" /><text fill="#1a1a2e" font-family="Helvetica, Arial, sans-serif" font-size="10px" text-anchor="middle" x="340.0" y="75.0">No</text><polyline fill="none" marker-end="url(#arrow_seq)" points="360,120 420,120" stroke="#1a1a2e" stroke-width="1.5" /><text fill="#1a1a2e" font-family="Helvetica, Arial, sans-serif" font-size="10px" text-anchor="middle" x="390.0" y="115.0">Yes</text><polyline fill="none" marker-end="url(#arrow_seq)" points="540,120 585,120" stroke="#1a1a2e" stroke-width="1.5" /><polyline fill="none" marker-end="url(#arrow_seq)" points="1140,120 1185,120" stroke="#1a1a2e" stroke-width="1.5" /><polygon fill="#fdfdfd" points="450,180 500,180 510,190 510,240 450,240" stroke="#0f3460" stroke-width="1" /><polyline fill="none" points="500,180 500,190 510,190" stroke="#0f3460" stroke-width="1" /><text fill="#1a1a2e" font-family="Helvetica, Arial, sans-serif" font-size="10px" text-anchor="middle" x="480.0" y="208.0">Section 1</text><text fill="#1a1a2e" font-family="Helvetica, Arial, sans-serif" font-size="10px" text-anchor="middle" x="480.0" y="220.0">Data</text><polyline fill="none" points="480,150 480,180" stroke="#6c757d" stroke-dasharray="2,4" stroke-width="1.5" /><g><rect fill="#ffffff" height="60" rx="8" ry="8" stroke="#0f3460" stroke-width="2" width="180" x="380" y="270" /><circle cx="392" cy="280" fill="#0f3460" r="3" /><path d="M387,288 C387,283 397,283 397,288 Z" fill="#0f3460" /><text fill="#1a1a2e" font-family="Helvetica, Arial, sans-serif" font-size="12px" text-anchor="middle" x="470.0" y="282.0">Record Vital</text><text fill="#1a1a2e" font-family="Helvetica, Arial, sans-serif" font-size="12px" text-anchor="middle" x="470.0" y="296.0">Signs (BP, BMI,</text><text fill="#1a1a2e" font-family="Helvetica, Arial, sans-serif" font-size="12px" text-anchor="middle" x="470.0" y="310.0">Blood Sugar,</text><text fill="#1a1a2e" font-family="Helvetica, Arial, sans-serif" font-size="12px" text-anchor="middle" x="470.0" y="324.0">Heart Rate)</text></g><g><rect fill="#ffffff" height="60" rx="8" ry="8" stroke="#0f3460" stroke-width="2" width="140" x="620" y="270" /><circle cx="632" cy="282" fill="none" r="4" stroke="#0f3460" stroke-width="2" /><circle cx="632" cy="282" fill="#0f3460" r="1" /><text fill="#1a1a2e" font-family="Helvetica, Arial, sans-serif" font-size="12px" text-anchor="middle" x="690.0" y="296.0">Store Vitals in</text><text fill="#1a1a2e" font-family="Helvetica, Arial, sans-serif" font-size="12px" text-anchor="middle" x="690.0" y="310.0">System</text></g><polyline fill="none" marker-end="url(#arrow_msg)" points="480,150 480,270" stroke="#0f3460" stroke-dasharray="6,4" stroke-width="1.5" /><polyline fill="none" marker-end="url(#arrow_seq)" points="560,300 620,300" stroke="#1a1a2e" stroke-width="1.5" /><polygon fill="#fdfdfd" points="660,350 710,350 720,360 720,410 660,410" stroke="#0f3460" stroke-width="1" /><polyline fill="none" points="710,350 710,360 720,360" stroke="#0f3460" stroke-width="1" /><text fill="#1a1a2e" font-family="Helvetica, Arial, sans-serif" font-size="10px" text-anchor="middle" x="690.0" y="378.0">Vital Signs</text><text fill="#1a1a2e" font-family="Helvetica, Arial, sans-serif" font-size="10px" text-anchor="middle" x="690.0" y="390.0">Data</text><polyline fill="none" points="690,330 690,350" stroke="#6c757d" stroke-dasharray="2,4" stroke-width="1.5" /><g><rect fill="#ffffff" height="60" rx="8" ry="8" stroke="#0f3460" stroke-width="2" width="140" x="620" y="460" /><circle cx="632" cy="470" fill="#0f3460" r="3" /><path d="M627,478 C627,473 637,473 637,478 Z" fill="#0f3460" /><text fill="#1a1a2e" font-family="Helvetica, Arial, sans-serif" font-size="12px" text-anchor="middle" x="690.0" y="486.0">Review Section</text><text fill="#1a1a2e" font-family="Helvetica, Arial, sans-serif" font-size="12px" text-anchor="middle" x="690.0" y="500.0">1 &amp; Vitals Data</text></g><g><rect fill="#ffffff" height="60" rx="8" ry="8" stroke="#0f3460" stroke-width="2" width="140" x="820" y="460" /><circle cx="832" cy="470" fill="#0f3460" r="3" /><path d="M827,478 C827,473 837,473 837,478 Z" fill="#0f3460" /><text fill="#1a1a2e" font-family="Helvetica, Arial, sans-serif" font-size="12px" text-anchor="middle" x="890.0" y="486.0">Conduct CVD</text><text fill="#1a1a2e" font-family="Helvetica, Arial, sans-serif" font-size="12px" text-anchor="middle" x="890.0" y="500.0">Examination</text></g><g><rect fill="#ffffff" height="60" rx="8" ry="8" stroke="#0f3460" stroke-width="2" width="140" x="1020" y="460" /><circle cx="1032" cy="470" fill="#0f3460" r="3" /><path d="M1027,478 C1027,473 1037,473 1037,478 Z" fill="#0f3460" /><text fill="#1a1a2e" font-family="Helvetica, Arial, sans-serif" font-size="12px" text-anchor="middle" x="1090.0" y="472.0">Complete</text><text fill="#1a1a2e" font-family="Helvetica, Arial, sans-serif" font-size="12px" text-anchor="middle" x="1090.0" y="486.0">Section 2</text><text fill="#1a1a2e" font-family="Helvetica, Arial, sans-serif" font-size="12px" text-anchor="middle" x="1090.0" y="500.0">(Diagnosis &amp;</text><text fill="#1a1a2e" font-family="Helvetica, Arial, sans-serif" font-size="12px" text-anchor="middle" x="1090.0" y="514.0">Notes)</text></g><polyline fill="none" marker-end="url(#arrow_msg)" points="690,330 690,460" stroke="#0f3460" stroke-dasharray="6,4" stroke-width="1.5" /><polyline fill="none" marker-end="url(#arrow_seq)" points="760,490 820,490" stroke="#1a1a2e" stroke-width="1.5" /><polyline fill="none" marker-end="url(#arrow_seq)" points="960,490 1020,490" stroke="#1a1a2e" stroke-width="1.5" /><polygon fill="#fdfdfd" points="1060,550 1110,550 1120,560 1120,610 1060,610" stroke="#0f3460" stroke-width="1" /><polyline fill="none" points="1110,550 1110,560 1120,560" stroke="#0f3460" stroke-width="1" /><text fill="#1a1a2e" font-family="Helvetica, Arial, sans-serif" font-size="10px" text-anchor="middle" x="1090.0" y="578.0">Section 2</text><text fill="#1a1a2e" font-family="Helvetica, Arial, sans-serif" font-size="10px" text-anchor="middle" x="1090.0" y="590.0">Data</text><polyline fill="none" points="1090,520 1090,550" stroke="#6c757d" stroke-dasharray="2,4" stroke-width="1.5" /><g><rect fill="#ffffff" height="60" rx="8" ry="8" stroke="#0f3460" stroke-width="2" width="160" x="650" y="640" /><circle cx="662" cy="652" fill="none" r="4" stroke="#0f3460" stroke-width="2" /><circle cx="662" cy="652" fill="#0f3460" r="1" /><text fill="#1a1a2e" font-family="Helvetica, Arial, sans-serif" font-size="12px" text-anchor="middle" x="730.0" y="659.0">Compile</text><text fill="#1a1a2e" font-family="Helvetica, Arial, sans-serif" font-size="12px" text-anchor="middle" x="730.0" y="673.0">Complete</text><text fill="#1a1a2e" font-family="Helvetica, Arial, sans-serif" font-size="12px" text-anchor="middle" x="730.0" y="687.0">Medical Record</text></g><g><rect fill="#ffffff" height="60" rx="8" ry="8" stroke="#0f3460" stroke-width="2" width="140" x="870" y="640" /><circle cx="882" cy="652" fill="none" r="4" stroke="#0f3460" stroke-width="2" /><circle cx="882" cy="652" fill="#0f3460" r="1" /><text fill="#1a1a2e" font-family="Helvetica, Arial, sans-serif" font-size="12px" text-anchor="middle" x="940.0" y="659.0">Generate</text><text fill="#1a1a2e" font-family="Helvetica, Arial, sans-serif" font-size="12px" text-anchor="middle" x="940.0" y="673.0">Prescription</text><text fill="#1a1a2e" font-family="Helvetica, Arial, sans-serif" font-size="12px" text-anchor="middle" x="940.0" y="687.0">PDF</text></g><g><rect fill="#ffffff" height="60" rx="8" ry="8" stroke="#0f3460" stroke-width="2" width="140" x="1070" y="640" /><rect fill="#0f3460" height="8" width="12" x="1076" y="648" /><polyline fill="none" points="1076,648 1082,653 1088,648" stroke="#ffffff" stroke-width="1" /><text fill="#1a1a2e" font-family="Helvetica, Arial, sans-serif" font-size="12px" text-anchor="middle" x="1140.0" y="659.0">Send Completion</text><text fill="#1a1a2e" font-family="Helvetica, Arial, sans-serif" font-size="12px" text-anchor="middle" x="1140.0" y="673.0">Notification to</text><text fill="#1a1a2e" font-family="Helvetica, Arial, sans-serif" font-size="12px" text-anchor="middle" x="1140.0" y="687.0">Patient</text></g><circle cx="1220" cy="670" fill="#ffffff" r="15" stroke="#e94560" stroke-width="4" /><polyline fill="none" marker-end="url(#arrow_msg)" points="1090,520 1150,520 1150,620 730,620 730,640" stroke="#0f3460" stroke-dasharray="6,4" stroke-width="1.5" /><polyline fill="none" marker-end="url(#arrow_seq)" points="810,670 870,670" stroke="#1a1a2e" stroke-width="1.5" /><polyline fill="none" marker-end="url(#arrow_seq)" points="1010,670 1070,670" stroke="#1a1a2e" stroke-width="1.5" /><polyline fill="none" marker-end="url(#arrow_seq)" points="1210,670 1205,670" stroke="#1a1a2e" stroke-width="1.5" /><polyline fill="none" marker-end="url(#arrow_msg)" points="1140,640 1140,150" stroke="#0f3460" stroke-dasharray="6,4" stroke-width="1.5" /><polygon fill="#fdfdfd" points="700,550 750,550 760,560 760,610 700,610" stroke="#0f3460" stroke-width="1" /><polyline fill="none" points="750,550 750,560 760,560" stroke="#0f3460" stroke-width="1" /><text fill="#1a1a2e" font-family="Helvetica, Arial, sans-serif" font-size="10px" text-anchor="middle" x="730.0" y="578.0">Complete Medical</text><text fill="#1a1a2e" font-family="Helvetica, Arial, sans-serif" font-size="10px" text-anchor="middle" x="730.0" y="590.0">Record</text><polyline fill="none" points="730,640 730,610" stroke="#6c757d" stroke-dasharray="2,4" stroke-width="1.5" /><polygon fill="#fdfdfd" points="910,550 960,550 970,560 970,610 910,610" stroke="#0f3460" stroke-width="1" /><polyline fill="none" points="960,550 960,560 970,560" stroke="#0f3460" stroke-width="1" /><text fill="#1a1a2e" font-family="Helvetica, Arial, sans-serif" font-size="10px" text-anchor="middle" x="940.0" y="584.0">Prescription PDF</text><polyline fill="none" points="940,640 940,610" stroke="#6c757d" stroke-dasharray="2,4" stroke-width="1.5" /><rect fill="#ffffff" height="210" stroke="#6c757d" stroke-width="1" width="200" x="50" y="500" /><text fill="#1a1a2e" font-family="Helvetica, Arial, sans-serif" font-size="12px" font-weight="bold" text-anchor="middle" x="150.0" y="520">Legend</text><circle cx="70" cy="536" fill="#ffffff" r="8" stroke="#28a745" stroke-width="2" /><text fill="#1a1a2e" font-family="Helvetica, Arial, sans-serif" font-size="11px" x="90" y="540">Start Event</text><circle cx="70" cy="556" fill="#ffffff" r="8" stroke="#e94560" stroke-width="4" /><text fill="#1a1a2e" font-family="Helvetica, Arial, sans-serif" font-size="11px" x="90" y="560">End Event</text><rect fill="#ffffff" height="16" rx="3" stroke="#0f3460" width="20" x="60" y="568" /><circle cx="70" cy="576" fill="#0f3460" r="3" /><path d="M65,584 C65,579 75,579 75,584 Z" fill="#0f3460" /><text fill="#1a1a2e" font-family="Helvetica, Arial, sans-serif" font-size="11px" x="90" y="580">User Task</text><rect fill="#ffffff" height="16" rx="3" stroke="#0f3460" width="20" x="60" y="588" /><circle cx="70" cy="598" fill="none" r="4" stroke="#0f3460" stroke-width="2" /><circle cx="70" cy="598" fill="#0f3460" r="1" /><text fill="#1a1a2e" font-family="Helvetica, Arial, sans-serif" font-size="11px" x="90" y="600">Service Task</text><polygon fill="#ffffff" points="70.0,608 78,616.0 70.0,624 62,616.0" stroke="#6c757d" stroke-width="2" /><line stroke="#6c757d" stroke-width="2" x1="68.0" x2="72.0" y1="614.0" y2="618.0" /><line stroke="#6c757d" stroke-width="2" x1="68.0" x2="72.0" y1="618.0" y2="614.0" /><text fill="#1a1a2e" font-family="Helvetica, Arial, sans-serif" font-size="11px" x="90" y="620">Exclusive Gateway</text><polygon fill="#fdfdfd" points="64,628 66,628 76,638 76,644 64,644" stroke="#0f3460" stroke-width="1" /><polyline fill="none" points="66,628 66,638 76,638" stroke="#0f3460" stroke-width="1" /><text fill="#1a1a2e" font-family="Helvetica, Arial, sans-serif" font-size="10px" text-anchor="middle" x="70.0" y="640.0" /><text fill="#1a1a2e" font-family="Helvetica, Arial, sans-serif" font-size="11px" x="90" y="640">Data Object</text><line marker-end="url(#arrow_seq)" stroke="#1a1a2e" stroke-width="1.5" x1="60" x2="80" y1="656" y2="656" /><text fill="#1a1a2e" font-family="Helvetica, Arial, sans-serif" font-size="11px" x="90" y="660">Sequence Flow</text><line marker-end="url(#arrow_msg)" stroke="#0f3460" stroke-dasharray="6,4" stroke-width="1.5" x1="60" x2="80" y1="676" y2="676" /><text fill="#1a1a2e" font-family="Helvetica, Arial, sans-serif" font-size="11px" x="90" y="680">Message Flow</text><text fill="#1a1a2e" font-family="Helvetica, Arial, sans-serif" font-size="11px" x="90" y="700">Data Association</text></svg>