<?xml version="1.0" encoding="utf-8" ?>
<svg baseProfile="full" height="550px" version="1.1" width="1150px" xmlns="http://www.w3.org/2000/svg" xmlns:ev="http://www.w3.org/2001/xml-events" xmlns:xlink="http://www.w3.org/1999/xlink"><defs><marker id="arrow_seq" markerHeight="10" markerWidth="10" orient="auto" refX="10" refY="5"><polygon fill="#1a1a2e" points="0,0 10,5 0,10" /></marker><marker id="arrow_msg" markerHeight="10" markerWidth="10" orient="auto" refX="10" refY="5"><polygon fill="none" points="0,0 10,5 0,10" stroke="#0f3460" /></marker></defs><rect fill="none" height="550" stroke="#1a1a2e" stroke-width="2" width="1150" x="0" y="0" /><rect fill="#0f3460" height="40" width="1150" x="0" y="0" /><text fill="#ffffff" font-family="Helvetica, Arial, sans-serif" font-size="20px" font-weight="bold" text-anchor="middle" x="575.0" y="25">CVD Clinic - Appointment Booking Process</text><rect fill="#eef2f7" height="250" stroke="#1a1a2e" stroke-width="1" width="1150" x="0" y="40" /><rect fill="#0f3460" height="250" stroke="#1a1a2e" stroke-width="1" width="40" x="0" y="40" /><g transform="translate(25, 165.0) rotate(-90)"><text fill="#ffffff" font-family="Helvetica, Arial, sans-serif" font-size="16px" font-weight="bold" text-anchor="middle" x="0" y="0">Patient</text></g><rect fill="#f7f0ee" height="260" stroke="#1a1a2e" stroke-width="1" width="1150" x="0" y="290" /><rect fill="#0f3460" height="260" stroke="#1a1a2e" stroke-width="1" width="40" x="0" y="290" /><g transform="translate(25, 420.0) rotate(-90)"><text fill="#ffffff" font-family="Helvetica, Arial, sans-serif" font-size="16px" font-weight="bold" text-anchor="middle" x="0" y="0">Admin Staff</text></g><circle cx="80" cy="140" fill="#ffffff" r="15" stroke="#28a745" stroke-width="2" /><g><rect fill="#ffffff" height="60" rx="8" ry="8" stroke="#0f3460" stroke-width="2" width="120" x="130" y="110" /><circle cx="142" cy="120" fill="#0f3460" r="3" /><path d="M137,128 C137,123 147,123 147,128 Z" fill="#0f3460" /><text fill="#1a1a2e" font-family="Helvetica, Arial, sans-serif" font-size="12px" text-anchor="middle" x="190.0" y="129.0">Request</text><text fill="#1a1a2e" font-family="Helvetica, Arial, sans-serif" font-size="12px" text-anchor="middle" x="190.0" y="143.0">Appointment</text><text fill="#1a1a2e" font-family="Helvetica, Arial, sans-serif" font-size="12px" text-anchor="middle" x="190.0" y="157.0">Online</text></g><g><rect fill="#ffffff" height="60" rx="8" ry="8" stroke="#0f3460" stroke-width="2" width="120" x="320" y="210" /><circle cx="332" cy="220" fill="#0f3460" r="3" /><path d="M327,228 C327,223 337,223 337,228 Z" fill="#0f3460" /><text fill="#1a1a2e" font-family="Helvetica, Arial, sans-serif" font-size="12px" text-anchor="middle" x="380.0" y="229.0">Select</text><text fill="#1a1a2e" font-family="Helvetica, Arial, sans-serif" font-size="12px" text-anchor="middle" x="380.0" y="243.0">Alternative</text><text fill="#1a1a2e" font-family="Helvetica, Arial, sans-serif" font-size="12px" text-anchor="middle" x="380.0" y="257.0">Date</text></g><g><rect fill="#ffffff" height="60" rx="8" ry="8" stroke="#0f3460" stroke-width="2" width="140" x="650" y="110" /><rect fill="#ffffff" height="8" stroke="#0f3460" stroke-width="1" width="12" x="656" y="118" /><polyline fill="none" points="656,118 662,123 668,118" stroke="#0f3460" stroke-width="1" /><text fill="#1a1a2e" font-family="Helvetica, Arial, sans-serif" font-size="12px" text-anchor="middle" x="720.0" y="129.0">Receive</text><text fill="#1a1a2e" font-family="Helvetica, Arial, sans-serif" font-size="12px" text-anchor="middle" x="720.0" y="143.0">Appointment</text><text fill="#1a1a2e" font-family="Helvetica, Arial, sans-serif" font-size="12px" text-anchor="middle" x="720.0" y="157.0">Confirmation</text></g><g><rect fill="#ffffff" height="60" rx="8" ry="8" stroke="#0f3460" stroke-width="2" width="140" x="850" y="110" /><circle cx="862" cy="120" fill="#0f3460" r="3" /><path d="M857,128 C857,123 867,123 867,128 Z" fill="#0f3460" /><text fill="#1a1a2e" font-family="Helvetica, Arial, sans-serif" font-size="12px" text-anchor="middle" x="920.0" y="129.0">Complete</text><text fill="#1a1a2e" font-family="Helvetica, Arial, sans-serif" font-size="12px" text-anchor="middle" x="920.0" y="143.0">Pre-Visit Form</text><text fill="#1a1a2e" font-family="Helvetica, Arial, sans-serif" font-size="12px" text-anchor="middle" x="920.0" y="157.0">(Section 1)</text></g><circle cx="1050" cy="140" fill="#ffffff" r="15" stroke="#e94560" stroke-width="4" /><polyline fill="none" marker-end="url(#arrow_seq)" points="95,140 130,140" stroke="#1a1a2e" stroke-width="1.5" /><polyline fill="none" marker-end="url(#arrow_seq)" points="320,240 190,240 190,170" stroke="#1a1a2e" stroke-width="1.5" /><polyline fill="none" marker-end="url(#arrow_seq)" points="790,140 850,140" stroke="#1a1a2e" stroke-width="1.5" /><polyline fill="none" marker-end="url(#arrow_seq)" points="990,140 1035,140" stroke="#1a1a2e" stroke-width="1.5" /><g><rect fill="#ffffff" height="60" rx="8" ry="8" stroke="#0f3460" stroke-width="2" width="120" x="130" y="360" /><circle cx="142" cy="370" fill="#0f3460" r="3" /><path d="M137,378 C137,373 147,373 147,378 Z" fill="#0f3460" /><text fill="#1a1a2e" font-family="Helvetica, Arial, sans-serif" font-size="12px" text-anchor="middle" x="190.0" y="379.0">Check</text><text fill="#1a1a2e" font-family="Helvetica, Arial, sans-serif" font-size="12px" text-anchor="middle" x="190.0" y="393.0">Consultant</text><text fill="#1a1a2e" font-family="Helvetica, Arial, sans-serif" font-size="12px" text-anchor="middle" x="190.0" y="407.0">Schedule</text></g><polygon fill="#ffffff" points="320.0,370 340,390.0 320.0,410 300,390.0" stroke="#6c757d" stroke-width="2" /><line stroke="#6c757d" stroke-width="2" x1="312.0" x2="328.0" y1="382.0" y2="398.0" /><line stroke="#6c757d" stroke-width="2" x1="312.0" x2="328.0" y1="398.0" y2="382.0" /><text font-size="11px" text-anchor="middle" x="320" y="360">Preferred Date Available?</text><g><rect fill="#ffffff" height="60" rx="8" ry="8" stroke="#0f3460" stroke-width="2" width="120" x="450" y="360" /><circle cx="462" cy="372" fill="none" r="4" stroke="#0f3460" stroke-width="2" /><circle cx="462" cy="372" fill="#0f3460" r="1" /><text fill="#1a1a2e" font-family="Helvetica, Arial, sans-serif" font-size="12px" text-anchor="middle" x="510.0" y="379.0">Block</text><text fill="#1a1a2e" font-family="Helvetica, Arial, sans-serif" font-size="12px" text-anchor="middle" x="510.0" y="393.0">Appointment</text><text fill="#1a1a2e" font-family="Helvetica, Arial, sans-serif" font-size="12px" text-anchor="middle" x="510.0" y="407.0">Slot</text></g><g><rect fill="#ffffff" height="60" rx="8" ry="8" stroke="#0f3460" stroke-width="2" width="120" x="620" y="360" /><rect fill="#0f3460" height="8" width="12" x="626" y="368" /><polyline fill="none" points="626,368 632,373 638,368" stroke="#ffffff" stroke-width="1" /><text fill="#1a1a2e" font-family="Helvetica, Arial, sans-serif" font-size="12px" text-anchor="middle" x="680.0" y="379.0">Send</text><text fill="#1a1a2e" font-family="Helvetica, Arial, sans-serif" font-size="12px" text-anchor="middle" x="680.0" y="393.0">Confirmation</text><text fill="#1a1a2e" font-family="Helvetica, Arial, sans-serif" font-size="12px" text-anchor="middle" x="680.0" y="407.0">Email/SMS</text></g><g><rect fill="#ffffff" height="60" rx="8" ry="8" stroke="#0f3460" stroke-width="2" width="120" x="790" y="360" /><rect fill="#0f3460" height="8" width="12" x="796" y="368" /><polyline fill="none" points="796,368 802,373 808,368" stroke="#ffffff" stroke-width="1" /><text fill="#1a1a2e" font-family="Helvetica, Arial, sans-serif" font-size="12px" text-anchor="middle" x="850.0" y="386.0">Send Pre-Visit</text><text fill="#1a1a2e" font-family="Helvetica, Arial, sans-serif" font-size="12px" text-anchor="middle" x="850.0" y="400.0">Form Link</text></g><circle cx="960" cy="390" fill="#ffffff" r="15" stroke="#e94560" stroke-width="4" /><polygon fill="#fdfdfd" points="660,460 700,460 710,470 710,520 660,520" stroke="#0f3460" stroke-width="1" /><polyline fill="none" points="700,460 700,470 710,470" stroke="#0f3460" stroke-width="1" /><text fill="#1a1a2e" font-family="Helvetica, Arial, sans-serif" font-size="10px" text-anchor="middle" x="685.0" y="494.0">Appointment Confirmation</text><polygon fill="#fdfdfd" points="820,460 860,460 870,470 870,520 820,520" stroke="#0f3460" stroke-width="1" /><polyline fill="none" points="860,460 860,470 870,470" stroke="#0f3460" stroke-width="1" /><text fill="#1a1a2e" font-family="Helvetica, Arial, sans-serif" font-size="10px" text-anchor="middle" x="845.0" y="488.0">Pre-Visit Form</text><text fill="#1a1a2e" font-family="Helvetica, Arial, sans-serif" font-size="10px" text-anchor="middle" x="845.0" y="500.0">Link</text><polyline fill="none" marker-end="url(#arrow_msg)" points="190,170 190,360" stroke="#0f3460" stroke-dasharray="6,4" stroke-width="1.5" /><polyline fill="none" marker-end="url(#arrow_seq)" points="250,390 300,390" stroke="#1a1a2e" stroke-width="1.5" /><polyline fill="none" marker-end="url(#arrow_msg)" points="320,370 320,270" stroke="#0f3460" stroke-dasharray="6,4" stroke-width="1.5" /><text fill="#1a1a2e" font-family="Helvetica, Arial, sans-serif" font-size="10px" text-anchor="middle" x="320.0" y="315.0">No</text><polyline fill="none" marker-end="url(#arrow_seq)" points="340,390 450,390" stroke="#1a1a2e" stroke-width="1.5" /><text fill="#1a1a2e" font-family="Helvetica, Arial, sans-serif" font-size="10px" text-anchor="middle" x="395.0" y="385.0">Yes</text><polyline fill="none" marker-end="url(#arrow_seq)" points="570,390 620,390" stroke="#1a1a2e" stroke-width="1.5" /><polyline fill="none" marker-end="url(#arrow_seq)" points="740,390 790,390" stroke="#1a1a2e" stroke-width="1.5" /><polyline fill="none" marker-end="url(#arrow_seq)" points="910,390 945,390" stroke="#1a1a2e" stroke-width="1.5" /><polyline fill="none" marker-end="url(#arrow_msg)" points="680,360 680,170" stroke="#0f3460" stroke-dasharray="6,4" stroke-width="1.5" /><polyline fill="none" marker-end="url(#arrow_msg)" points="850,360 850,170" stroke="#0f3460" stroke-dasharray="6,4" stroke-width="1.5" /><polyline fill="none" points="680,420 680,460" stroke="#6c757d" stroke-dasharray="2,4" stroke-width="1.5" /><polyline fill="none" points="850,420 850,460" stroke="#6c757d" stroke-dasharray="2,4" stroke-width="1.5" /><rect fill="#ffffff" height="190" stroke="#6c757d" stroke-width="1" width="200" x="50" y="340" /><text fill="#1a1a2e" font-family="Helvetica, Arial, sans-serif" font-size="12px" font-weight="bold" text-anchor="middle" x="150.0" y="360">Legend</text><circle cx="70" cy="376" fill="#ffffff" r="8" stroke="#28a745" stroke-width="2" /><text fill="#1a1a2e" font-family="Helvetica, Arial, sans-serif" font-size="11px" x="90" y="380">Start Event</text><circle cx="70" cy="396" fill="#ffffff" r="8" stroke="#e94560" stroke-width="4" /><text fill="#1a1a2e" font-family="Helvetica, Arial, sans-serif" font-size="11px" x="90" y="400">End Event</text><rect fill="#ffffff" height="16" rx="3" stroke="#0f3460" width="20" x="60" y="408" /><circle cx="70" cy="416" fill="#0f3460" r="3" /><path d="M65,424 C65,419 75,419 75,424 Z" fill="#0f3460" /><text fill="#1a1a2e" font-family="Helvetica, Arial, sans-serif" font-size="11px" x="90" y="420">User Task</text><rect fill="#ffffff" height="16" rx="3" stroke="#0f3460" width="20" x="60" y="428" /><circle cx="70" cy="438" fill="none" r="4" stroke="#0f3460" stroke-width="2" /><circle cx="70" cy="438" fill="#0f3460" r="1" /><text fill="#1a1a2e" font-family="Helvetica, Arial, sans-serif" font-size="11px" x="90" y="440">Service Task</text><polygon fill="#ffffff" points="70.0,448 78,456.0 70.0,464 62,456.0" stroke="#6c757d" stroke-width="2" /><line stroke="#6c757d" stroke-width="2" x1="68.0" x2="72.0" y1="454.0" y2="458.0" /><line stroke="#6c757d" stroke-width="2" x1="68.0" x2="72.0" y1="458.0" y2="454.0" /><text fill="#1a1a2e" font-family="Helvetica, Arial, sans-serif" font-size="11px" x="90" y="460">Exclusive Gateway</text><polygon fill="#fdfdfd" points="64,468 66,468 76,478 76,484 64,484" stroke="#0f3460" stroke-width="1" /><polyline fill="none" points="66,468 66,478 76,478" stroke="#0f3460" stroke-width="1" /><text fill="#1a1a2e" font-family="Helvetica, Arial, sans-serif" font-size="10px" text-anchor="middle" x="70.0" y="480.0" /><text fill="#1a1a2e" font-family="Helvetica, Arial, sans-serif" font-size="11px" x="90" y="480">Data Object</text><line marker-end="url(#arrow_seq)" stroke="#1a1a2e" stroke-width="1.5" x1="60" x2="80" y1="496" y2="496" /><text fill="#1a1a2e" font-family="Helvetica, Arial, sans-serif" font-size="11px" x="90" y="500">Sequence Flow</text><line marker-end="url(#arrow_msg)" stroke="#0f3460" stroke-dasharray="6,4" stroke-width="1.5" x1="60" x2="80" y1="516" y2="516" /><text fill="#1a1a2e" font-family="Helvetica, Arial, sans-serif" font-size="11px" x="90" y="520">Message Flow</text></svg>