<?xml version="1.0" encoding="UTF-8" standalone="no"?>
<svg
   width="1650"
   height="1300"
   style="background-color:#f7f6f2; font-family:sans-serif;"
   version="1.1"
   id="svg138"
   sodipodi:docname="CVD_class_diagram.svg"
   inkscape:version="1.4.3 (0d15f75042, 2025-12-25)"
   xmlns:inkscape="http://www.inkscape.org/namespaces/inkscape"
   xmlns:sodipodi="http://sodipodi.sourceforge.net/DTD/sodipodi-0.dtd"
   xmlns="http://www.w3.org/2000/svg"
   xmlns:svg="http://www.w3.org/2000/svg">
  <sodipodi:namedview
     id="namedview138"
     pagecolor="#505050"
     bordercolor="#eeeeee"
     borderopacity="1"
     inkscape:showpageshadow="0"
     inkscape:pageopacity="0"
     inkscape:pagecheckerboard="0"
     inkscape:deskcolor="#505050"
     inkscape:zoom="1.1323077"
     inkscape:cx="357.67663"
     inkscape:cy="511.3451"
     inkscape:window-width="1900"
     inkscape:window-height="1025"
     inkscape:window-x="0"
     inkscape:window-y="0"
     inkscape:window-maximized="1"
     inkscape:current-layer="svg138" />
  <defs
     id="defs1">
    <filter
       id="shadow"
       x="-0.0019230769"
       y="-0.0029585799"
       width="1.0038462"
       height="1.0059172">
      <feDropShadow
         dx="0"
         dy="4"
         stdDeviation="6"
         flood-color="#000000"
         flood-opacity="0.06" />
    </filter>
    <marker
       id="arrow-open"
       markerWidth="12"
       markerHeight="8"
       refX="10"
       refY="4"
       orient="auto">
      <polyline
         points="0,0 10,4 0,8"
         fill="none"
         stroke="#28251d"
         stroke-width="1.5"
         id="polyline1" />
    </marker>
  </defs>
  <!-- Title -->
  <rect
     x="0"
     y="0"
     width="1650"
     height="60"
     fill="#01696f"
     id="rect1" />
  <text
     x="30"
     y="38"
     font-size="24"
     font-weight="bold"
     fill="#ffffff"
     id="text1">UML Class Diagram: CVD Clinic System</text>
  <!-- Lines (drawn under boxes) -->
  <g
     fill="none"
     stroke="#28251d"
     stroke-width="2"
     id="g15">
    <!-- Patient to MedicalRecord -->
    <polyline
       points="350,218 310,218"
       id="polyline2" />
    <!-- Patient to Appointment -->
    <polyline
       points="480,260 480,450"
       id="polyline3" />
    <!-- AdminStaff to Appointment -->
    <polyline
       points="780,260 780,370 550,370 550,450"
       id="polyline4" />
    <!-- Consultant to Appointment -->
    <polyline
       points="1380,280 1380,410 590,410 590,450"
       id="polyline5" />
    <!-- Nurse to VitalSigns -->
    <polyline
       points="1080,260 1080,439"
       id="polyline6" />
    <!-- Consultant to Prescription -->
    <polyline
       points="1380,280 1380,450"
       id="polyline7" />
    <!-- Appointment to MedicalForm -->
    <polyline
       points="480,640 480,750"
       id="polyline8" />
    <!-- Appointment to VitalSigns -->
    <polyline
       points="610,540 950,540"
       id="polyline9" />
    <!-- MedicalForm to SectionOne (Composition) -->
    <polyline
       points="450,930 450,980 330,980 330,1030"
       id="polyline10" />
    <!-- MedicalForm to SectionTwo (Composition) -->
    <polyline
       points="510,930 510,980 630,980 630,1030"
       id="polyline11" />
    <!-- MedicalRecord to MedicalForm (Aggregation) -->
    <polyline
       points="180,280 180,846 350,846"
       id="polyline12" />
    <!-- Consultant to SectionTwo -->
    <polyline
       points="1510,218 1560,218 1560,1115 760,1115"
       id="polyline13" />
    <!-- Patient to SectionOne -->
    <polyline
       points="380,335 380,1030"
       id="polyline14" />
    <!-- Appointment to Prescription -->
    <polyline
       points="610,480 640,480 640,425 1230,425 1230,480 1250,480"
       id="polyline15" />
  </g>
  <!-- Line Arrows and Diamonds -->
  <g
     fill="#28251d"
     stroke="#28251d"
     stroke-width="2"
     id="g16">
    <!-- MF to S1 Composition Diamond -->
    <polygon
       points="450,914 455,922 450,930 445,922"
       id="polygon15" />
    <!-- MF to S2 Composition Diamond -->
    <polygon
       points="510,914 515,922 510,930 505,922"
       id="polygon16" />
  </g>
  <g
     fill="#ffffff"
     stroke="#28251d"
     stroke-width="2"
     id="g17">
    <!-- MR to MF Aggregation Diamond -->
    <polygon
       points="180,264 185,272 180,280 175,272"
       id="polygon17" />
  </g>
  <g
     fill="none"
     stroke="#28251d"
     stroke-width="1.5"
     id="g28">
    <!-- Arrow heads on associations -->
    <polyline
       points="318,214 310,218 318,222"
       id="polyline17" />
    <!-- Pat->MR -->
    <polyline
       points="476,442 480,450 484,442"
       id="polyline18" />
    <!-- Pat->Appt -->
    <polyline
       points="546,442 550,450 554,442"
       id="polyline19" />
    <!-- Admin->Appt -->
    <polyline
       points="586,442 590,450 594,442"
       id="polyline20" />
    <!-- Cons->Appt -->
    <polyline
       points="1076,431 1080,439 1084,431"
       id="polyline21" />
    <!-- Nurse->Vitals -->
    <polyline
       points="1376,442 1380,450 1384,442"
       id="polyline22" />
    <!-- Cons->Presc -->
    <polyline
       points="476,742 480,750 484,742"
       id="polyline23" />
    <!-- Appt->MF -->
    <polyline
       points="942,536 950,540 942,544"
       id="polyline24" />
    <!-- Appt->Vitals -->
    <polyline
       points="342,842 350,846 342,850"
       id="polyline25" />
    <!-- MR->MF -->
    <polyline
       points="768,1111 760,1115 768,1119"
       id="polyline26" />
    <!-- Cons->S2 -->
    <!-- Pat->S1 -->
    <polyline
       points="376,1022 380,1030 384,1022"
       id="polyline27" />
    <!-- Appt->Presc -->
    <polyline
       points="1242,476 1250,480 1242,484"
       id="polyline28" />
  </g>
  <!-- Multiplicities Text -->
  <g
     font-size="14"
     fill="#28251d"
     font-weight="bold"
     id="g55">
    <!-- Pat to MR -->
    <text
       x="330"
       y="210"
       id="text28">1</text>
    <text
       x="290"
       y="210"
       id="text29">1</text>
    <!-- Pat to Appt -->
    <text
       x="490"
       y="285"
       id="text30">1</text>
    <text
       x="490"
       y="435"
       id="text31">1..*</text>
    <!-- Admin to Appt -->
    <text
       x="790"
       y="285"
       id="text32">1</text>
    <text
       x="560"
       y="435"
       id="text33">*</text>
    <!-- Nurse to Vitals -->
    <text
       x="1090"
       y="285"
       id="text34">1</text>
    <text
       x="1090"
       y="425"
       id="text35">*</text>
    <!-- Cons to Presc -->
    <text
       x="1390"
       y="305"
       id="text36">1</text>
    <text
       x="1390"
       y="435"
       id="text37">*</text>
    <!-- Cons to Appt -->
    <text
       x="1390"
       y="400"
       id="text38">1</text>
    <text
       x="600"
       y="435"
       id="text39">*</text>
    <!-- Appt to MF -->
    <text
       x="490"
       y="665"
       id="text40">1</text>
    <text
       x="490"
       y="735"
       id="text41">1</text>
    <!-- Appt to Vitals -->
    <text
       x="620"
       y="530"
       id="text42">1</text>
    <text
       x="930"
       y="530"
       id="text43">1</text>
    <!-- MF to S1 -->
    <text
       x="460"
       y="940"
       id="text44">1</text>
    <text
       x="340"
       y="1015"
       id="text45">1</text>
    <!-- MF to S2 -->
    <text
       x="520"
       y="940"
       id="text46">1</text>
    <text
       x="640"
       y="1015"
       id="text47">1</text>
    <!-- MR to MF -->
    <text
       x="190"
       y="305"
       id="text48">1</text>
    <text
       x="330"
       y="835"
       id="text49">*</text>
    <!-- Cons to S2 -->
    <text
       x="1520"
       y="205"
       id="text50">1</text>
    <text
       x="770"
       y="1105"
       id="text51">*</text>
    <!-- Pat to S1 -->
    <text
       x="390"
       y="350"
       id="text52">1</text>
    <text
       x="390"
       y="1020"
       id="text53">1..*</text>
    <!-- Appt to Presc -->
    <text
       x="620"
       y="475"
       id="text54">1</text>
    <text
       x="1230"
       y="475"
       id="text55">*</text>
  </g>
  <!-- Verb Labels -->
  <g
     font-size="13"
     font-style="italic"
     fill="#01696f"
     font-family="sans-serif"
     id="g68">
    <!-- Pat to MR -->
    <text
       x="330"
       y="235"
       text-anchor="middle"
       id="text56">owns</text>
    <!-- Pat to Appt -->
    <text
       x="490"
       y="355"
       id="text57">schedules</text>
    <!-- Admin to Appt -->
    <text
       x="665"
       y="362"
       text-anchor="middle"
       id="text58">manages</text>
    <!-- Cons to Appt -->
    <text
       x="985"
       y="402"
       text-anchor="middle"
       id="text59">conducts</text>
    <!-- Nurse to Vitals -->
    <text
       x="1090"
       y="355"
       id="text60">records</text>
    <!-- Cons to Presc -->
    <text
       x="1390"
       y="365"
       id="text61">issues</text>
    <!-- Appt to MF -->
    <text
       x="490"
       y="700"
       id="text62">produces</text>
    <!-- Appt to Vitals -->
    <text
       x="780"
       y="532"
       text-anchor="middle"
       id="text63">generates</text>
    <!-- MF to S1 & S2 -->
    <text
       x="480"
       y="995"
       text-anchor="middle"
       id="text64">composed of</text>
    <!-- MR to MF -->
    <text
       x="190"
       y="563"
       id="text65">contains</text>
    <!-- Cons to S2 -->
    <text
       x="1570"
       y="666"
       text-anchor="start"
       id="text66">completes</text>
    <!-- Pat to S1 -->
    <text
       x="390"
       y="680"
       text-anchor="start"
       id="text67">fills</text>
    <!-- Appt to Presc -->
    <text
       x="940"
       y="420"
       text-anchor="middle"
       id="text68">results in</text>
  </g>
  <!-- CLASS BOXES -->
  <!-- Patient -->
  <rect
     x="350"
     y="100"
     width="260"
     height="235"
     fill="#ffffff"
     stroke="#d4d1ca"
     stroke-width="1"
     rx="8"
     filter="url(#shadow)"
     id="rect68"
     transform="matrix(1.0237319,0,0,0.99994991,-8.3002796,0.01089447)" />
  <path
     d="m 350.00589,108.00548 q 0,-7.99959 8.18985,-7.99959 h 249.79058 q 8.18986,0 8.18986,7.99959 v 31.9984 H 350.00589 Z"
     fill="#01696f"
     id="path68"
     style="stroke-width:1.01177" />
  <text
     x="480"
     y="126"
     font-family="sans-serif"
     font-size="16"
     font-weight="bold"
     fill="#ffffff"
     text-anchor="middle"
     id="text69">Patient</text>
  <rect
     x="351.02963"
     y="146.00359"
     width="264.12283"
     height="21.998898"
     fill="#ffffff"
     id="rect69"
     style="stroke-width:1.01177" />
  <text
     x="360"
     y="162"
     font-family="monospace"
     font-size="12"
     fill="#28251d"
     id="text70">- patientID: String</text>
  <rect
     x="351.02963"
     y="168.00247"
     width="264.12283"
     height="21.998898"
     fill="#fbfbf9"
     id="rect70"
     style="stroke-width:1.01177" />
  <text
     x="360"
     y="184"
     font-family="monospace"
     font-size="12"
     fill="#28251d"
     id="text71">- firstName: String</text>
  <rect
     x="351.02963"
     y="190.00137"
     width="264.12283"
     height="21.998898"
     fill="#ffffff"
     id="rect71"
     style="stroke-width:1.01177" />
  <text
     x="360"
     y="206"
     font-family="monospace"
     font-size="12"
     fill="#28251d"
     id="text72">- lastName: String</text>
  <rect
     x="351.02963"
     y="212.00027"
     width="264.12283"
     height="21.998898"
     fill="#fbfbf9"
     id="rect72"
     style="stroke-width:1.01177" />
  <text
     x="360"
     y="228"
     font-family="monospace"
     font-size="12"
     fill="#28251d"
     id="text73">- dateOfBirth: Date</text>
  <rect
     x="351.02963"
     y="233.99918"
     width="264.12283"
     height="21.998898"
     fill="#ffffff"
     id="rect73"
     style="stroke-width:1.01177" />
  <text
     x="360"
     y="250"
     font-family="monospace"
     font-size="12"
     fill="#28251d"
     id="text74">- email: String</text>
  <line
     x1="350.00589"
     y1="259.99786"
     x2="616.17621"
     y2="259.99786"
     stroke="#dcd9d5"
     stroke-width="1.01177"
     id="line74" />
  <rect
     x="351.02963"
     y="265.99756"
     width="264.12283"
     height="21.998898"
     fill="#ffffff"
     id="rect74"
     style="stroke-width:1.01177" />
  <text
     x="360"
     y="282"
     font-family="monospace"
     font-size="12"
     fill="#28251d"
     id="text75">+ register(data: DTO): void</text>
  <rect
     x="351.02963"
     y="287.99646"
     width="264.12283"
     height="21.998898"
     fill="#fbfbf9"
     id="rect75"
     style="stroke-width:1.01177" />
  <text
     x="360"
     y="304"
     font-family="monospace"
     font-size="12"
     fill="#28251d"
     id="text76">+ bookAppt(date: Date): Appointment</text>
  <!-- MedicalRecord -->
  <rect
     x="50"
     y="133"
     width="260"
     height="169"
     fill="#ffffff"
     stroke="#d4d1ca"
     stroke-width="1"
     rx="8"
     filter="url(#shadow)"
     id="rect76" />
  <path
     d="M 50 141 Q 50 133 58 133 L 302 133 Q 310 133 310 141 L 310 173 L 50 173 Z"
     fill="#01696f"
     id="path76" />
  <text
     x="180"
     y="159"
     font-family="sans-serif"
     font-size="16"
     font-weight="bold"
     fill="#ffffff"
     text-anchor="middle"
     id="text77">MedicalRecord</text>
  <rect
     x="51"
     y="179"
     width="258"
     height="22"
     fill="#ffffff"
     id="rect77" />
  <text
     x="60"
     y="195"
     font-family="monospace"
     font-size="12"
     fill="#28251d"
     id="text78">- recordID: String</text>
  <rect
     x="51"
     y="201"
     width="258"
     height="22"
     fill="#fbfbf9"
     id="rect78" />
  <text
     x="60"
     y="217"
     font-family="monospace"
     font-size="12"
     fill="#28251d"
     id="text79">- createdDate: Date</text>
  <line
     x1="50"
     y1="227"
     x2="310"
     y2="227"
     stroke="#dcd9d5"
     stroke-width="1"
     id="line79" />
  <rect
     x="51"
     y="233"
     width="258"
     height="22"
     fill="#ffffff"
     id="rect79" />
  <text
     x="60"
     y="249"
     font-family="monospace"
     font-size="12"
     fill="#28251d"
     id="text80">+ compileCompleteRecord(): void</text>
  <rect
     x="51"
     y="255"
     width="258"
     height="22"
     fill="#fbfbf9"
     id="rect80" />
  <text
     x="60"
     y="271"
     font-family="monospace"
     font-size="12"
     fill="#28251d"
     id="text81">+ exportToPDF(): File</text>
  <!-- AdminStaff -->
  <rect
     x="650"
     y="100"
     width="260"
     height="213"
     fill="#ffffff"
     stroke="#d4d1ca"
     stroke-width="1"
     rx="8"
     filter="url(#shadow)"
     id="rect81" />
  <path
     d="M 650 108 Q 650 100 658 100 L 902 100 Q 910 100 910 108 L 910 140 L 650 140 Z"
     fill="#01696f"
     id="path81" />
  <text
     x="780"
     y="126"
     font-family="sans-serif"
     font-size="16"
     font-weight="bold"
     fill="#ffffff"
     text-anchor="middle"
     id="text82">AdminStaff</text>
  <rect
     x="651"
     y="146"
     width="258"
     height="22"
     fill="#ffffff"
     id="rect82" />
  <text
     x="660"
     y="162"
     font-family="monospace"
     font-size="12"
     fill="#28251d"
     id="text83">- adminID: String</text>
  <rect
     x="651"
     y="168"
     width="258"
     height="22"
     fill="#fbfbf9"
     id="rect83" />
  <text
     x="660"
     y="184"
     font-family="monospace"
     font-size="12"
     fill="#28251d"
     id="text84">- firstName: String</text>
  <rect
     x="651"
     y="190"
     width="258"
     height="22"
     fill="#ffffff"
     id="rect84" />
  <text
     x="660"
     y="206"
     font-family="monospace"
     font-size="12"
     fill="#28251d"
     id="text85">- lastName: String</text>
  <rect
     x="651"
     y="212"
     width="258"
     height="22"
     fill="#fbfbf9"
     id="rect85" />
  <text
     x="660"
     y="228"
     font-family="monospace"
     font-size="12"
     fill="#28251d"
     id="text86">- role: String</text>
  <line
     x1="650"
     y1="238"
     x2="910"
     y2="238"
     stroke="#dcd9d5"
     stroke-width="1"
     id="line86" />
  <rect
     x="651"
     y="244"
     width="258"
     height="22"
     fill="#ffffff"
     id="rect86" />
  <text
     x="660"
     y="260"
     font-family="monospace"
     font-size="12"
     fill="#28251d"
     id="text87">+ checkSchedule(): List&lt;Appt&gt;</text>
  <rect
     x="651"
     y="266"
     width="258"
     height="22"
     fill="#fbfbf9"
     id="rect87" />
  <text
     x="660"
     y="282"
     font-family="monospace"
     font-size="12"
     fill="#28251d"
     id="text88">+ confirmBooking(a: Appt): void</text>
  <!-- Nurse -->
  <rect
     x="950"
     y="100"
     width="270"
     height="191"
     fill="#ffffff"
     stroke="#d4d1ca"
     stroke-width="1"
     rx="8"
     filter="url(#shadow)"
     id="rect88"
     transform="matrix(1.1518064,0,0,0.99961771,-144.17667,0.07473758)" />
  <path
     d="m 950.03942,108.03345 q 0,-7.99694 9.21445,-7.99694 h 292.55883 q 9.2145,0 9.2145,7.99694 v 31.98777 H 950.03942 Z"
     fill="#01696f"
     id="path88"
     style="stroke-width:1.07302" />
  <text
     x="1085"
     y="126"
     font-family="sans-serif"
     font-size="16"
     font-weight="bold"
     fill="#ffffff"
     text-anchor="middle"
     id="text89">Nurse</text>
  <rect
     x="951.19122"
     y="146.01892"
     width="308.68411"
     height="21.99159"
     fill="#ffffff"
     id="rect89"
     style="stroke-width:1.07302" />
  <text
     x="960"
     y="162"
     font-family="monospace"
     font-size="12"
     fill="#28251d"
     id="text90">- nurseID: String</text>
  <rect
     x="951.19122"
     y="168.01051"
     width="308.68411"
     height="21.99159"
     fill="#fbfbf9"
     id="rect90"
     style="stroke-width:1.07302" />
  <text
     x="960"
     y="184"
     font-family="monospace"
     font-size="12"
     fill="#28251d"
     id="text91">- firstName: String</text>
  <rect
     x="951.19122"
     y="190.00211"
     width="308.68411"
     height="21.99159"
     fill="#ffffff"
     id="rect91"
     style="stroke-width:1.07302" />
  <text
     x="960"
     y="206"
     font-family="monospace"
     font-size="12"
     fill="#28251d"
     id="text92">- lastName: String</text>
  <line
     x1="950.03943"
     y1="215.99216"
     x2="1261.0271"
     y2="215.99216"
     stroke="#dcd9d5"
     stroke-width="1.07302"
     id="line92" />
  <rect
     x="951.19122"
     y="221.98987"
     width="308.68411"
     height="21.99159"
     fill="#ffffff"
     id="rect92"
     style="stroke-width:1.07302" />
  <text
     x="960"
     y="238"
     font-family="monospace"
     font-size="12"
     fill="#28251d"
     id="text93">+ verifyIdentity(p: Patient): Boolean</text>
  <rect
     x="951.19122"
     y="243.98146"
     width="308.68411"
     height="21.99159"
     fill="#fbfbf9"
     id="rect93"
     style="stroke-width:1.07302" />
  <text
     x="960"
     y="260"
     font-family="monospace"
     font-size="12"
     fill="#28251d"
     id="text94">+ recordVitals(appID: Str, v: Data): void</text>
  <!-- Consultant -->
  <rect
     x="1297.6903"
     y="101.7663"
     width="270"
     height="235"
     fill="#ffffff"
     stroke="#d4d1ca"
     stroke-width="1"
     rx="8"
     filter="url(#shadow)"
     id="rect94"
     transform="matrix(1.0530923,0,0,0.99988875,-68.88327,0.02439394)" />
  <path
     d="m 1297.7043,109.77849 q 0,-7.99912 8.4247,-7.99912 h 267.4855 q 8.4247,0 8.4247,7.99912 v 31.99644 h -284.3349 z"
     fill="#01696f"
     id="path94"
     style="stroke-width:1.02615" />
  <text
     x="1432.6903"
     y="127.7663"
     font-family="sans-serif"
     font-size="16px"
     font-weight="bold"
     fill="#ffffff"
     text-anchor="middle"
     id="text95">Consultant</text>
  <rect
     x="1298.7574"
     y="147.77426"
     width="282.22873"
     height="21.997553"
     fill="#ffffff"
     id="rect95"
     style="stroke-width:1.02615" />
  <text
     x="1307.6903"
     y="163.76631"
     font-family="monospace"
     font-size="12px"
     fill="#28251d"
     id="text96">- consultantID: String</text>
  <rect
     x="1298.7574"
     y="169.77182"
     width="282.22873"
     height="21.997553"
     fill="#fbfbf9"
     id="rect96"
     style="stroke-width:1.02615" />
  <text
     x="1307.6903"
     y="185.76631"
     font-family="monospace"
     font-size="12px"
     fill="#28251d"
     id="text97">- firstName: String</text>
  <rect
     x="1298.7574"
     y="191.76938"
     width="282.22873"
     height="21.997553"
     fill="#ffffff"
     id="rect97"
     style="stroke-width:1.02615" />
  <text
     x="1307.6903"
     y="207.76631"
     font-family="monospace"
     font-size="12px"
     fill="#28251d"
     id="text98">- lastName: String</text>
  <rect
     x="1298.7574"
     y="213.76692"
     width="282.22873"
     height="21.997553"
     fill="#fbfbf9"
     id="rect98"
     style="stroke-width:1.02615" />
  <text
     x="1307.6903"
     y="229.76631"
     font-family="monospace"
     font-size="12px"
     fill="#28251d"
     id="text99">- specialization: String</text>
  <line
     x1="1297.7043"
     y1="239.76404"
     x2="1582.0393"
     y2="239.76404"
     stroke="#dcd9d5"
     stroke-width="1.02615"
     id="line99" />
  <rect
     x="1298.7574"
     y="245.76337"
     width="282.22873"
     height="21.997553"
     fill="#ffffff"
     id="rect99"
     style="stroke-width:1.02615" />
  <text
     x="1307.6903"
     y="261.7663"
     font-family="monospace"
     font-size="12px"
     fill="#28251d"
     id="text100">+ conductExam(a: Appt): void</text>
  <rect
     x="1298.7574"
     y="267.76089"
     width="282.22873"
     height="21.997553"
     fill="#fbfbf9"
     id="rect100"
     style="stroke-width:1.02615" />
  <text
     x="1307.6903"
     y="283.7663"
     font-family="monospace"
     font-size="12px"
     fill="#28251d"
     id="text101">+ completeSecTwo(f: MedForm): void</text>
  <rect
     x="1298.7574"
     y="289.75845"
     width="282.22873"
     height="21.997553"
     fill="#ffffff"
     id="rect101"
     style="stroke-width:1.02615" />
  <text
     x="1307.6903"
     y="305.7663"
     font-family="monospace"
     font-size="12px"
     fill="#28251d"
     id="text102">+ generatePrescription(m: Str): Presc</text>
  <!-- Appointment -->
  <rect
     x="350"
     y="450"
     width="260"
     height="213"
     fill="#ffffff"
     stroke="#d4d1ca"
     stroke-width="1"
     rx="8"
     filter="url(#shadow)"
     id="rect102"
     transform="matrix(1.0058611,0,0,0.9999863,-2.0503075,0.00762259)" />
  <path
     d="m 340.01065,458.00985 q 0,-7.9992 8.34521,-7.9992 h 254.52897 q 8.34521,0 8.34521,7.9992 v 31.9968 H 340.01065 Z"
     fill="#01696f"
     id="path102"
     style="stroke-width:1.0213" />
  <text
     x="470"
     y="476"
     font-family="sans-serif"
     font-size="16px"
     font-weight="bold"
     fill="#ffffff"
     text-anchor="middle"
     id="text103">Appointment</text>
  <rect
     x="341.0538"
     y="496.00604"
     width="269.13309"
     height="21.997801"
     fill="#ffffff"
     id="rect103"
     style="stroke-width:1.0213" />
  <text
     x="350"
     y="512"
     font-family="monospace"
     font-size="12px"
     fill="#28251d"
     id="text104">- appointmentID: String</text>
  <rect
     x="341.0538"
     y="518.00385"
     width="269.13309"
     height="21.997801"
     fill="#fbfbf9"
     id="rect104"
     style="stroke-width:1.0213" />
  <text
     x="350"
     y="534"
     font-family="monospace"
     font-size="12px"
     fill="#28251d"
     id="text105">- appointmentDate: DateTime</text>
  <rect
     x="341.0538"
     y="540.00165"
     width="269.13309"
     height="21.997801"
     fill="#ffffff"
     id="rect105"
     style="stroke-width:1.0213" />
  <text
     x="350"
     y="556"
     font-family="monospace"
     font-size="12px"
     fill="#28251d"
     id="text106">- status: String</text>
  <rect
     x="341.0538"
     y="561.99945"
     width="269.13309"
     height="21.997801"
     fill="#fbfbf9"
     id="rect106"
     style="stroke-width:1.0213" />
  <text
     x="350"
     y="578"
     font-family="monospace"
     font-size="12px"
     fill="#28251d"
     id="text107">- type: String</text>
  <line
     x1="340.01065"
     y1="587.99683"
     x2="611.23004"
     y2="587.99683"
     stroke="#dcd9d5"
     stroke-width="1.0213"
     id="line107" />
  <rect
     x="341.0538"
     y="593.99628"
     width="269.13309"
     height="21.997801"
     fill="#ffffff"
     id="rect107"
     style="stroke-width:1.0213" />
  <text
     x="350"
     y="610"
     font-family="monospace"
     font-size="12px"
     fill="#28251d"
     id="text108">+ reschedule(newDate: Date): Boolean</text>
  <rect
     x="341.0538"
     y="615.99408"
     width="269.13309"
     height="21.997801"
     fill="#fbfbf9"
     id="rect108"
     style="stroke-width:1.0213" />
  <text
     x="350"
     y="632"
     font-family="monospace"
     font-size="12px"
     fill="#28251d"
     id="text109">+ cancel(): void</text>
  <!-- VitalSigns -->
  <rect
     x="950"
     y="439"
     width="260"
     height="213"
     fill="#ffffff"
     stroke="#d4d1ca"
     stroke-width="1"
     rx="8"
     filter="url(#shadow)"
     id="rect109" />
  <path
     d="M 950 447 Q 950 439 958 439 L 1202 439 Q 1210 439 1210 447 L 1210 479 L 950 479 Z"
     fill="#01696f"
     id="path109" />
  <text
     x="1080"
     y="465"
     font-family="sans-serif"
     font-size="16"
     font-weight="bold"
     fill="#ffffff"
     text-anchor="middle"
     id="text110">VitalSigns</text>
  <rect
     x="951"
     y="485"
     width="258"
     height="22"
     fill="#ffffff"
     id="rect110" />
  <text
     x="960"
     y="501"
     font-family="monospace"
     font-size="12"
     fill="#28251d"
     id="text111">- vitalID: String</text>
  <rect
     x="951"
     y="507"
     width="258"
     height="22"
     fill="#fbfbf9"
     id="rect111" />
  <text
     x="960"
     y="523"
     font-family="monospace"
     font-size="12"
     fill="#28251d"
     id="text112">- bpSystolic: Int</text>
  <rect
     x="951"
     y="529"
     width="258"
     height="22"
     fill="#ffffff"
     id="rect112" />
  <text
     x="960"
     y="545"
     font-family="monospace"
     font-size="12"
     fill="#28251d"
     id="text113">- bpDiastolic: Int</text>
  <rect
     x="951"
     y="551"
     width="258"
     height="22"
     fill="#fbfbf9"
     id="rect113" />
  <text
     x="960"
     y="567"
     font-family="monospace"
     font-size="12"
     fill="#28251d"
     id="text114">- bmi: Float</text>
  <line
     x1="950"
     y1="577"
     x2="1210"
     y2="577"
     stroke="#dcd9d5"
     stroke-width="1"
     id="line114" />
  <rect
     x="951"
     y="583"
     width="258"
     height="22"
     fill="#ffffff"
     id="rect114" />
  <text
     x="960"
     y="599"
     font-family="monospace"
     font-size="12"
     fill="#28251d"
     id="text115">+ calculateBMI(): Float</text>
  <rect
     x="951"
     y="605"
     width="258"
     height="22"
     fill="#fbfbf9"
     id="rect115" />
  <text
     x="960"
     y="621"
     font-family="monospace"
     font-size="12"
     fill="#28251d"
     id="text116">+ flagAbnormal(): Boolean</text>
  <!-- Prescription -->
  <rect
     x="1250"
     y="450"
     width="260"
     height="191"
     fill="#ffffff"
     stroke="#d4d1ca"
     stroke-width="1"
     rx="8"
     filter="url(#shadow)"
     id="rect116" />
  <path
     d="M 1250 458 Q 1250 450 1258 450 L 1502 450 Q 1510 450 1510 458 L 1510 490 L 1250 490 Z"
     fill="#01696f"
     id="path116" />
  <text
     x="1380"
     y="476"
     font-family="sans-serif"
     font-size="16"
     font-weight="bold"
     fill="#ffffff"
     text-anchor="middle"
     id="text117">Prescription</text>
  <rect
     x="1251"
     y="496"
     width="258"
     height="22"
     fill="#ffffff"
     id="rect117" />
  <text
     x="1260"
     y="512"
     font-family="monospace"
     font-size="12"
     fill="#28251d"
     id="text118">- prescriptionID: String</text>
  <rect
     x="1251"
     y="518"
     width="258"
     height="22"
     fill="#fbfbf9"
     id="rect118" />
  <text
     x="1260"
     y="534"
     font-family="monospace"
     font-size="12"
     fill="#28251d"
     id="text119">- medications: String</text>
  <rect
     x="1251"
     y="540"
     width="258"
     height="22"
     fill="#ffffff"
     id="rect119" />
  <text
     x="1260"
     y="556"
     font-family="monospace"
     font-size="12"
     fill="#28251d"
     id="text120">- dosage: String</text>
  <line
     x1="1250"
     y1="566"
     x2="1510"
     y2="566"
     stroke="#dcd9d5"
     stroke-width="1"
     id="line120" />
  <rect
     x="1251"
     y="572"
     width="258"
     height="22"
     fill="#ffffff"
     id="rect120" />
  <text
     x="1260"
     y="588"
     font-family="monospace"
     font-size="12"
     fill="#28251d"
     id="text121">+ printPrescription(): void</text>
  <rect
     x="1251"
     y="594"
     width="258"
     height="22"
     fill="#fbfbf9"
     id="rect121" />
  <text
     x="1260"
     y="610"
     font-family="monospace"
     font-size="12"
     fill="#28251d"
     id="text122">+ emailToPatient(): void</text>
  <!-- MedicalForm -->
  <rect
     x="350"
     y="750"
     width="260"
     height="191"
     fill="#ffffff"
     stroke="#d4d1ca"
     stroke-width="1"
     rx="8"
     filter="url(#shadow)"
     id="rect122" />
  <path
     d="M 350 758 Q 350 750 358 750 L 602 750 Q 610 750 610 758 L 610 790 L 350 790 Z"
     fill="#01696f"
     id="path122" />
  <text
     x="480"
     y="776"
     font-family="sans-serif"
     font-size="16"
     font-weight="bold"
     fill="#ffffff"
     text-anchor="middle"
     id="text123">MedicalForm</text>
  <rect
     x="351"
     y="796"
     width="258"
     height="22"
     fill="#ffffff"
     id="rect123" />
  <text
     x="360"
     y="812"
     font-family="monospace"
     font-size="12"
     fill="#28251d"
     id="text124">- formID: String</text>
  <rect
     x="351"
     y="818"
     width="258"
     height="22"
     fill="#fbfbf9"
     id="rect124" />
  <text
     x="360"
     y="834"
     font-family="monospace"
     font-size="12"
     fill="#28251d"
     id="text125">- formType: String</text>
  <rect
     x="351"
     y="840"
     width="258"
     height="22"
     fill="#ffffff"
     id="rect125" />
  <text
     x="360"
     y="856"
     font-family="monospace"
     font-size="12"
     fill="#28251d"
     id="text126">- status: String</text>
  <line
     x1="350"
     y1="866"
     x2="610"
     y2="866"
     stroke="#dcd9d5"
     stroke-width="1"
     id="line126" />
  <rect
     x="351"
     y="872"
     width="258"
     height="22"
     fill="#ffffff"
     id="rect126" />
  <text
     x="360"
     y="888"
     font-family="monospace"
     font-size="12"
     fill="#28251d"
     id="text127">+ validateForm(): Boolean</text>
  <rect
     x="351"
     y="894"
     width="258"
     height="22"
     fill="#fbfbf9"
     id="rect127" />
  <text
     x="360"
     y="910"
     font-family="monospace"
     font-size="12"
     fill="#28251d"
     id="text128">+ submitForm(): void</text>
  <!-- SectionOne -->
  <rect
     x="200"
     y="1030"
     width="260"
     height="169"
     fill="#ffffff"
     stroke="#d4d1ca"
     stroke-width="1"
     rx="8"
     filter="url(#shadow)"
     id="rect128" />
  <path
     d="M 200 1038 Q 200 1030 208 1030 L 452 1030 Q 460 1030 460 1038 L 460 1070 L 200 1070 Z"
     fill="#01696f"
     id="path128" />
  <text
     x="330"
     y="1056"
     font-family="sans-serif"
     font-size="16"
     font-weight="bold"
     fill="#ffffff"
     text-anchor="middle"
     id="text129">SectionOne</text>
  <rect
     x="201"
     y="1076"
     width="258"
     height="22"
     fill="#ffffff"
     id="rect129" />
  <text
     x="210"
     y="1092"
     font-family="monospace"
     font-size="12"
     fill="#28251d"
     id="text130">- sectionOneID: String</text>
  <rect
     x="201"
     y="1098"
     width="258"
     height="22"
     fill="#fbfbf9"
     id="rect130" />
  <text
     x="210"
     y="1114"
     font-family="monospace"
     font-size="12"
     fill="#28251d"
     id="text131">- symptoms: String</text>
  <rect
     x="201"
     y="1120"
     width="258"
     height="22"
     fill="#ffffff"
     id="rect131" />
  <text
     x="210"
     y="1136"
     font-family="monospace"
     font-size="12"
     fill="#28251d"
     id="text132">- allergies: String</text>
  <line
     x1="200"
     y1="1146"
     x2="460"
     y2="1146"
     stroke="#dcd9d5"
     stroke-width="1"
     id="line132" />
  <rect
     x="201"
     y="1152"
     width="258"
     height="22"
     fill="#ffffff"
     id="rect132" />
  <text
     x="210"
     y="1168"
     font-family="monospace"
     font-size="12"
     fill="#28251d"
     id="text133">+ autoFillFromHistory(): void</text>
  <!-- SectionTwo -->
  <rect
     x="500"
     y="1030"
     width="270"
     height="169"
     fill="#ffffff"
     stroke="#d4d1ca"
     stroke-width="1"
     rx="8"
     filter="url(#shadow)"
     id="rect133" />
  <path
     d="M 500 1038 Q 500 1030 508 1030 L 762 1030 Q 770 1030 770 1038 L 770 1070 L 500 1070 Z"
     fill="#01696f"
     id="path133" />
  <text
     x="635"
     y="1056"
     font-family="sans-serif"
     font-size="16"
     font-weight="bold"
     fill="#ffffff"
     text-anchor="middle"
     id="text134">SectionTwo</text>
  <rect
     x="501"
     y="1076"
     width="268"
     height="22"
     fill="#ffffff"
     id="rect134" />
  <text
     x="510"
     y="1092"
     font-family="monospace"
     font-size="12"
     fill="#28251d"
     id="text135">- sectionTwoID: String</text>
  <rect
     x="501"
     y="1098"
     width="268"
     height="22"
     fill="#fbfbf9"
     id="rect135" />
  <text
     x="510"
     y="1114"
     font-family="monospace"
     font-size="12"
     fill="#28251d"
     id="text136">- diagnosis: String</text>
  <rect
     x="501"
     y="1120"
     width="268"
     height="22"
     fill="#ffffff"
     id="rect136" />
  <text
     x="510"
     y="1136"
     font-family="monospace"
     font-size="12"
     fill="#28251d"
     id="text137">- clinicalNotes: String</text>
  <line
     x1="500"
     y1="1146"
     x2="770"
     y2="1146"
     stroke="#dcd9d5"
     stroke-width="1"
     id="line137" />
  <rect
     x="501"
     y="1152"
     width="268"
     height="22"
     fill="#ffffff"
     id="rect137" />
  <text
     x="510"
     y="1168"
     font-family="monospace"
     font-size="12"
     fill="#28251d"
     id="text138">+ setDiagnosis(diag: String): void</text>
</svg>
