<?xml version="1.0" encoding="utf-8" ?>
<svg baseProfile="full" height="700px" version="1.1" viewBox="0 0 1100 700" width="1100px" xmlns="http://www.w3.org/2000/svg" xmlns:ev="http://www.w3.org/2001/xml-events" xmlns:xlink="http://www.w3.org/1999/xlink"><defs /><rect fill="#ffffff" height="700" width="1100" x="0" y="0" /><text fill="#1a1a2e" font-family="Helvetica, Arial, sans-serif" font-size="15" font-weight="bold" text-anchor="middle" x="550.0" y="26">Enterprise Cloud Architecture (ECA) — CVD Clinic Patient Record System</text><line stroke="#e94560" stroke-width="1.5" x1="60" x2="1040" y1="36" y2="36" /><text fill="#6c757d" font-family="Helvetica, Arial, sans-serif" font-size="10" font-style="italic" text-anchor="middle" x="550.0" y="52">AWS Cloud Architecture  |  VPC with Public, Private (App), and Database Subnets  |  GDPR-compliant</text><rect fill="#f0f4f8" height="500" rx="8" ry="8" stroke="#0f3460" stroke-width="2" width="180" x="30" y="70" /><rect fill="#0f3460" height="30" rx="8" ry="0" stroke="#0f3460" width="180" x="30" y="70" /><rect fill="#f0f4f8" height="8" width="180" x="30" y="562" /><text fill="#ffffff" font-family="Helvetica, Arial, sans-serif" font-size="11" font-weight="bold" text-anchor="middle" x="120.0" y="90">On-Premise (Clinic)</text><rect fill="#fff3e0" height="80" rx="6" stroke="#e65100" stroke-width="2" width="60" x="220" y="280.0" /><text fill="#e65100" font-family="Helvetica, Arial, sans-serif" font-size="9" font-weight="bold" text-anchor="middle" x="250" y="320.0">VPN
Gateway</text><line stroke="#0f3460" stroke-width="2" x1="210" x2="220" y1="320.0" y2="320.0" /><line stroke="#0f3460" stroke-width="2" x1="280" x2="340" y1="320.0" y2="320.0" /><rect fill="#f3e5f5" height="500" rx="8" ry="8" stroke="#7b1fa2" stroke-width="2" width="720" x="350" y="70" /><rect fill="#7b1fa2" height="30" rx="8" ry="0" width="720" x="350" y="70" /><rect fill="#f3e5f5" height="8" width="720" x="350" y="562" /><text fill="#ffffff" font-family="Helvetica, Arial, sans-serif" font-size="11" font-weight="bold" text-anchor="middle" x="710.0" y="90">AWS Cloud (eu-west-2, London Region)</text><text fill="#7b1fa2" font-family="Helvetica, Arial, sans-serif" font-size="9" font-style="italic" text-anchor="middle" x="710.0" y="116">VPC: cvd-clinic-vpc (10.0.0.0/16)</text><rect fill="#e3f2fd" height="35" rx="4" stroke="#1565c0" stroke-width="1.5" width="100" x="380" y="125" /><text fill="#1565c0" font-family="Helvetica, Arial, sans-serif" font-size="9" font-weight="bold" text-anchor="middle" x="430" y="147">Internet Gateway</text><line stroke="#0f3460" stroke-width="1.5" x1="280" x2="430" y1="320.0" y2="160" /><rect fill="#e8f5e9" height="100" rx="6" stroke="#2e7d32" stroke-width="1.5" width="180" x="380" y="180" /><rect fill="#2e7d32" height="24" rx="6" ry="0" width="180" x="380" y="180" /><text fill="#ffffff" font-family="Helvetica, Arial, sans-serif" font-size="8.5" font-weight="bold" text-anchor="middle" x="470.0" y="196">Public Subnet 1 (Web Tier)</text><rect fill="#e8f5e9" height="30" rx="4" ry="4" stroke="#2e7d32" stroke-width="1.5" width="130" x="405" y="215" /><text fill="#1a1a2e" font-family="Helvetica, Arial, sans-serif" font-size="9" font-weight="bold" text-anchor="middle" x="470.0" y="224.0">Patient Portal</text><text fill="#1a1a2e" font-family="Helvetica, Arial, sans-serif" font-size="8" text-anchor="middle" x="470.0" y="238.0">EC2 Instance</text><text fill="#6c757d" font-family="Helvetica, Arial, sans-serif" font-size="7.5" font-style="italic" text-anchor="middle" x="470.0" y="260">Security Group: Allow HTTPS (443)</text><rect fill="#e8f5e9" height="100" rx="6" stroke="#2e7d32" stroke-width="1.5" width="180" x="380" y="300" /><rect fill="#2e7d32" height="24" rx="6" ry="0" width="180" x="380" y="300" /><text fill="#ffffff" font-family="Helvetica, Arial, sans-serif" font-size="8.5" font-weight="bold" text-anchor="middle" x="470.0" y="316">Public Subnet 2 (Web Tier)</text><rect fill="#e8f5e9" height="30" rx="4" ry="4" stroke="#2e7d32" stroke-width="1.5" width="130" x="405" y="335" /><text fill="#1a1a2e" font-family="Helvetica, Arial, sans-serif" font-size="9" font-weight="bold" text-anchor="middle" x="470.0" y="344.0">Staff Portal</text><text fill="#1a1a2e" font-family="Helvetica, Arial, sans-serif" font-size="8" text-anchor="middle" x="470.0" y="358.0">EC2 Instance</text><text fill="#6c757d" font-family="Helvetica, Arial, sans-serif" font-size="7.5" font-style="italic" text-anchor="middle" x="470.0" y="380">Security Group: Internal only (VPC)</text><rect fill="#fff8e1" height="70" rx="6" stroke="#f57c00" stroke-width="2" width="80" x="590" y="260.0" /><text fill="#f57c00" font-family="Helvetica, Arial, sans-serif" font-size="9" font-weight="bold" text-anchor="middle" x="630" y="295.0">Application
Load Balancer</text><text fill="#6c757d" font-family="Helvetica, Arial, sans-serif" font-size="7.5" text-anchor="middle" x="630" y="315.0">SSL Termination</text><line stroke="#f57c00" stroke-width="1.5" x1="430" x2="630" y1="160" y2="260.0" /><line stroke="#f57c00" stroke-width="1.5" x1="630" x2="470.0" y1="330.0" y2="280" /><line stroke="#f57c00" stroke-width="1.5" x1="630" x2="470.0" y1="330.0" y2="300" /><rect fill="#fff3e0" height="100" rx="6" stroke="#e65100" stroke-width="1.5" width="180" x="700" y="180" /><rect fill="#e65100" height="24" rx="6" ry="0" width="180" x="700" y="180" /><text fill="#ffffff" font-family="Helvetica, Arial, sans-serif" font-size="8.5" font-weight="bold" text-anchor="middle" x="790.0" y="196">Private Subnet 1 (App Tier)</text><rect fill="#fff3e0" height="30" rx="4" ry="4" stroke="#e65100" stroke-width="1.5" width="150" x="715" y="215" /><text fill="#1a1a2e" font-family="Helvetica, Arial, sans-serif" font-size="9" font-weight="bold" text-anchor="middle" x="790.0" y="224.0">App Server</text><text fill="#1a1a2e" font-family="Helvetica, Arial, sans-serif" font-size="8" text-anchor="middle" x="790.0" y="238.0">EC2 (Node.js/PHP)</text><text fill="#6c757d" font-family="Helvetica, Arial, sans-serif" font-size="7.5" font-style="italic" text-anchor="middle" x="790.0" y="260">Business Logic, Form Validation, APIs</text><rect fill="#fce4ec" height="100" rx="6" stroke="#e94560" stroke-width="1.5" width="180" x="700" y="300" /><rect fill="#e94560" height="24" rx="6" ry="0" width="180" x="700" y="300" /><text fill="#ffffff" font-family="Helvetica, Arial, sans-serif" font-size="8.5" font-weight="bold" text-anchor="middle" x="790.0" y="316">Private Subnet 2 (DB Tier)</text><rect fill="#fce4ec" height="30" rx="4" ry="4" stroke="#e94560" stroke-width="1.5" width="150" x="715" y="335" /><text fill="#1a1a2e" font-family="Helvetica, Arial, sans-serif" font-size="9" font-weight="bold" text-anchor="middle" x="790.0" y="344.0">RDS MySQL</text><text fill="#1a1a2e" font-family="Helvetica, Arial, sans-serif" font-size="8" text-anchor="middle" x="790.0" y="358.0">Multi-AZ</text><text fill="#1a1a2e" font-family="Helvetica, Arial, sans-serif" font-size="8" text-anchor="middle" x="790.0" y="380">Patients | MedicalForms | Prescriptions</text><text fill="#6c757d" font-family="Helvetica, Arial, sans-serif" font-size="7.5" font-style="italic" text-anchor="middle" x="790.0" y="395">KMS Encrypted  |  Daily Snapshots to S3</text><rect fill="#f3e5f5" height="70" rx="6" stroke="#7b1fa2" stroke-width="1.5" width="180" x="380" y="420" /><rect fill="#7b1fa2" height="22" rx="6" ry="0" width="180" x="380" y="420" /><text fill="#ffffff" font-family="Helvetica, Arial, sans-serif" font-size="8.5" font-weight="bold" text-anchor="middle" x="470" y="434">Management Subnet</text><rect fill="#f3e5f5" height="30" rx="4" ry="4" stroke="#7b1fa2" stroke-width="1.5" width="100" x="420" y="450" /><text fill="#1a1a2e" font-family="Helvetica, Arial, sans-serif" font-size="9" font-weight="bold" text-anchor="middle" x="470.0" y="459.0">Bastion Host</text><text fill="#1a1a2e" font-family="Helvetica, Arial, sans-serif" font-size="8" text-anchor="middle" x="470.0" y="473.0">SSH Admin Access</text><rect fill="#e1f5fe" height="60" rx="6" stroke="#0277bd" stroke-width="1.5" width="120" x="910" y="170" /><text fill="#0277bd" font-family="Helvetica, Arial, sans-serif" font-size="10" font-weight="bold" text-anchor="middle" x="970" y="190">Amazon S3</text><text fill="#1a1a2e" font-family="Helvetica, Arial, sans-serif" font-size="8" text-anchor="middle" x="970" y="212">DB Backups
&amp; Exports</text><line stroke="#e65100" stroke-width="1.5" x1="670" x2="700" y1="295.0" y2="230" /><line stroke="#e94560" stroke-width="1.5" x1="880" x2="700" y1="230" y2="350" /><line stroke="#0277bd" stroke-width="1.5" x1="880" x2="910" y1="350" y2="200" /><rect fill="#ffebee" height="35" rx="4" stroke="#e94560" stroke-width="1.5" width="80" x="590" y="130" /><text fill="#e94560" font-family="Helvetica, Arial, sans-serif" font-size="9" font-weight="bold" text-anchor="middle" x="630" y="152">AWS WAF</text><line stroke="#e94560" stroke-width="1.5" x1="480" x2="590" y1="142" y2="147" /><line stroke="#e94560" stroke-width="1.5" x1="670" x2="590" y1="147" y2="280.0" /><rect fill="#e8f5e9" height="55" rx="6" stroke="#2e7d32" stroke-width="1.5" width="120" x="910" y="250" /><text fill="#2e7d32" font-family="Helvetica, Arial, sans-serif" font-size="9" font-weight="bold" text-anchor="middle" x="970" y="268">Amazon CloudWatch</text><text fill="#1a1a2e" font-family="Helvetica, Arial, sans-serif" font-size="8" text-anchor="middle" x="970" y="288">Monitoring
&amp; Logging</text><rect fill="#fff8e1" height="120" rx="6" stroke="#f57c00" stroke-width="1.5" width="120" x="910" y="325" /><text fill="#f57c00" font-family="Helvetica, Arial, sans-serif" font-size="9" font-weight="bold" text-anchor="middle" x="970" y="343">Security &amp; IAM</text><text fill="#1a1a2e" font-family="Helvetica, Arial, sans-serif" font-size="8" text-anchor="start" x="918" y="359">• IAM Roles (RBAC)</text><text fill="#1a1a2e" font-family="Helvetica, Arial, sans-serif" font-size="8" text-anchor="start" x="918" y="375">• KMS Encryption</text><text fill="#1a1a2e" font-family="Helvetica, Arial, sans-serif" font-size="8" text-anchor="start" x="918" y="391">• CloudTrail Audit</text><text fill="#1a1a2e" font-family="Helvetica, Arial, sans-serif" font-size="8" text-anchor="start" x="918" y="407">• GDPR Compliant</text><text fill="#1a1a2e" font-family="Helvetica, Arial, sans-serif" font-size="8" text-anchor="start" x="918" y="423">• TLS 1.3 in Transit</text><rect fill="#ffffff" height="45" rx="5" stroke="#6c757d" stroke-width="0.5" width="1040" x="30" y="635" /><text fill="#1a1a2e" font-family="Helvetica, Arial, sans-serif" font-size="10" font-weight="bold" x="45" y="648">Legend:</text><rect fill="#e3f2fd" height="14" rx="2" stroke="#0277bd" stroke-width="1.5" width="16" x="120" y="639" /><text fill="#6c757d" font-family="Helvetica, Arial, sans-serif" font-size="8.5" x="142" y="649">AWS Managed Service</text><rect fill="#e8f5e9" height="14" rx="2" stroke="#2e7d32" stroke-width="1.5" width="16" x="280" y="639" /><text fill="#6c757d" font-family="Helvetica, Arial, sans-serif" font-size="8.5" x="302" y="649">EC2 Compute Instance</text><rect fill="#fce4ec" height="14" rx="2" stroke="#e94560" stroke-width="1.5" width="16" x="440" y="639" /><text fill="#6c757d" font-family="Helvetica, Arial, sans-serif" font-size="8.5" x="462" y="649">Encrypted Storage</text><rect fill="#fff3e0" height="14" rx="2" stroke="#e65100" stroke-width="1.5" width="16" x="600" y="639" /><text fill="#6c757d" font-family="Helvetica, Arial, sans-serif" font-size="8.5" x="622" y="649">VPN / Secure Tunnel</text><line stroke="#1565c0" stroke-width="2" x1="760" x2="776" y1="646" y2="646" /><text fill="#6c757d" font-family="Helvetica, Arial, sans-serif" font-size="8.5" x="782" y="649">Internet-facing</text><line stroke="#7b1fa2" stroke-width="2" x1="920" x2="936" y1="646" y2="646" /><text fill="#6c757d" font-family="Helvetica, Arial, sans-serif" font-size="8.5" x="942" y="649">Internal VPC Flow</text></svg>