<?xml version="1.0" encoding="utf-8" ?>
<svg baseProfile="full" height="660px" version="1.1" viewBox="0 0 1100 660" width="1100px" xmlns="http://www.w3.org/2000/svg" xmlns:ev="http://www.w3.org/2001/xml-events" xmlns:xlink="http://www.w3.org/1999/xlink"><defs /><rect fill="#ffffff" height="660" width="1100" x="0" y="0" /><text fill="#1a1a2e" font-family="Helvetica, Arial, sans-serif" font-size="15" font-weight="bold" text-anchor="middle" x="550.0" y="26">Entity Relationship Diagram (ERD) — CVD Clinic Patient Record System</text><line stroke="#e94560" stroke-width="1.5" x1="60" x2="1040" y1="36" y2="36" /><text fill="#6c757d" font-family="Helvetica, Arial, sans-serif" font-size="10" font-style="italic" text-anchor="middle" x="550.0" y="52">Converted from Class Diagram using UML-to-ERD principles  |  MySQL notation  |  Crow's foot notation</text><rect fill="#ffffff" height="175" rx="6" ry="6" stroke="#0f3460" stroke-width="2" width="200" x="50" y="60" /><rect fill="#0f3460" height="30" rx="6" ry="6" width="200" x="50" y="60" /><rect fill="#ffffff" height="6" width="200" x="50" y="84" /><text fill="#ffffff" font-family="Helvetica, Arial, sans-serif" font-size="12" font-weight="bold" text-anchor="middle" x="150.0" y="80">Patients</text><line stroke="#0f3460" stroke-width="1" x1="50" x2="250" y1="90" y2="90" /><rect fill="#f8f9fa" height="18" stroke="none" width="200" x="50" y="94" /><text fill="#e94560" font-family="Helvetica, Arial, sans-serif" font-size="7.5" font-weight="bold" text-anchor="start" x="54" y="106">PK</text><text fill="#1a1a2e" font-family="Helvetica, Arial, sans-serif" font-size="9" font-weight="500" text-anchor="start" x="78" y="106">patientID</text><text fill="#6c757d" font-family="Helvetica, Arial, sans-serif" font-size="8" font-style="italic" text-anchor="end" x="244" y="106">VARCHAR(20)</text><text fill="#1a1a2e" font-family="Helvetica, Arial, sans-serif" font-size="9" font-weight="500" text-anchor="start" x="60" y="124">firstName</text><text fill="#6c757d" font-family="Helvetica, Arial, sans-serif" font-size="8" font-style="italic" text-anchor="end" x="244" y="124">VARCHAR(50)</text><rect fill="#f8f9fa" height="18" stroke="none" width="200" x="50" y="130" /><text fill="#1a1a2e" font-family="Helvetica, Arial, sans-serif" font-size="9" font-weight="500" text-anchor="start" x="60" y="142">lastName</text><text fill="#6c757d" font-family="Helvetica, Arial, sans-serif" font-size="8" font-style="italic" text-anchor="end" x="244" y="142">VARCHAR(50)</text><text fill="#1a1a2e" font-family="Helvetica, Arial, sans-serif" font-size="9" font-weight="500" text-anchor="start" x="60" y="160">dateOfBirth</text><text fill="#6c757d" font-family="Helvetica, Arial, sans-serif" font-size="8" font-style="italic" text-anchor="end" x="244" y="160">DATE</text><rect fill="#f8f9fa" height="18" stroke="none" width="200" x="50" y="166" /><text fill="#1a1a2e" font-family="Helvetica, Arial, sans-serif" font-size="9" font-weight="500" text-anchor="start" x="60" y="178">gender</text><text fill="#6c757d" font-family="Helvetica, Arial, sans-serif" font-size="8" font-style="italic" text-anchor="end" x="244" y="178">VARCHAR(10)</text><text fill="#1a1a2e" font-family="Helvetica, Arial, sans-serif" font-size="9" font-weight="500" text-anchor="start" x="60" y="196">phone</text><text fill="#6c757d" font-family="Helvetica, Arial, sans-serif" font-size="8" font-style="italic" text-anchor="end" x="244" y="196">VARCHAR(20)</text><rect fill="#f8f9fa" height="18" stroke="none" width="200" x="50" y="202" /><text fill="#1a1a2e" font-family="Helvetica, Arial, sans-serif" font-size="9" font-weight="500" text-anchor="start" x="60" y="214">email</text><text fill="#6c757d" font-family="Helvetica, Arial, sans-serif" font-size="8" font-style="italic" text-anchor="end" x="244" y="214">VARCHAR(100)</text><line stroke="#6c757d" stroke-width="0.8" x1="60" x2="87.5" y1="216" y2="216" /><text fill="#1a1a2e" font-family="Helvetica, Arial, sans-serif" font-size="9" font-weight="500" text-anchor="start" x="60" y="232">address</text><text fill="#6c757d" font-family="Helvetica, Arial, sans-serif" font-size="8" font-style="italic" text-anchor="end" x="244" y="232">TEXT</text><rect fill="#f8f9fa" height="18" stroke="none" width="200" x="50" y="238" /><text fill="#1a1a2e" font-family="Helvetica, Arial, sans-serif" font-size="9" font-weight="500" text-anchor="start" x="60" y="250">nhsNumber</text><text fill="#6c757d" font-family="Helvetica, Arial, sans-serif" font-size="8" font-style="italic" text-anchor="end" x="244" y="250">VARCHAR(20)</text><line stroke="#6c757d" stroke-width="0.8" x1="60" x2="109.5" y1="252" y2="252" /><text fill="#1a1a2e" font-family="Helvetica, Arial, sans-serif" font-size="9" font-weight="500" text-anchor="start" x="60" y="268">registrationDate</text><text fill="#6c757d" font-family="Helvetica, Arial, sans-serif" font-size="8" font-style="italic" text-anchor="end" x="244" y="268">DATE</text><rect fill="#ffffff" height="135" rx="6" ry="6" stroke="#0f3460" stroke-width="2" width="200" x="50" y="280" /><rect fill="#0f3460" height="30" rx="6" ry="6" width="200" x="50" y="280" /><rect fill="#ffffff" height="6" width="200" x="50" y="304" /><text fill="#ffffff" font-family="Helvetica, Arial, sans-serif" font-size="12" font-weight="bold" text-anchor="middle" x="150.0" y="300">Consultants</text><line stroke="#0f3460" stroke-width="1" x1="50" x2="250" y1="310" y2="310" /><rect fill="#f8f9fa" height="18" stroke="none" width="200" x="50" y="314" /><text fill="#e94560" font-family="Helvetica, Arial, sans-serif" font-size="7.5" font-weight="bold" text-anchor="start" x="54" y="326">PK</text><text fill="#1a1a2e" font-family="Helvetica, Arial, sans-serif" font-size="9" font-weight="500" text-anchor="start" x="78" y="326">consultantID</text><text fill="#6c757d" font-family="Helvetica, Arial, sans-serif" font-size="8" font-style="italic" text-anchor="end" x="244" y="326">VARCHAR(20)</text><text fill="#1a1a2e" font-family="Helvetica, Arial, sans-serif" font-size="9" font-weight="500" text-anchor="start" x="60" y="344">firstName</text><text fill="#6c757d" font-family="Helvetica, Arial, sans-serif" font-size="8" font-style="italic" text-anchor="end" x="244" y="344">VARCHAR(50)</text><rect fill="#f8f9fa" height="18" stroke="none" width="200" x="50" y="350" /><text fill="#1a1a2e" font-family="Helvetica, Arial, sans-serif" font-size="9" font-weight="500" text-anchor="start" x="60" y="362">lastName</text><text fill="#6c757d" font-family="Helvetica, Arial, sans-serif" font-size="8" font-style="italic" text-anchor="end" x="244" y="362">VARCHAR(50)</text><text fill="#1a1a2e" font-family="Helvetica, Arial, sans-serif" font-size="9" font-weight="500" text-anchor="start" x="60" y="380">specialization</text><text fill="#6c757d" font-family="Helvetica, Arial, sans-serif" font-size="8" font-style="italic" text-anchor="end" x="244" y="380">VARCHAR(100)</text><rect fill="#f8f9fa" height="18" stroke="none" width="200" x="50" y="386" /><text fill="#1a1a2e" font-family="Helvetica, Arial, sans-serif" font-size="9" font-weight="500" text-anchor="start" x="60" y="398">licenseNumber</text><text fill="#6c757d" font-family="Helvetica, Arial, sans-serif" font-size="8" font-style="italic" text-anchor="end" x="244" y="398">VARCHAR(50)</text><text fill="#1a1a2e" font-family="Helvetica, Arial, sans-serif" font-size="9" font-weight="500" text-anchor="start" x="60" y="416">email</text><text fill="#6c757d" font-family="Helvetica, Arial, sans-serif" font-size="8" font-style="italic" text-anchor="end" x="244" y="416">VARCHAR(100)</text><rect fill="#f8f9fa" height="18" stroke="none" width="200" x="50" y="422" /><text fill="#1a1a2e" font-family="Helvetica, Arial, sans-serif" font-size="9" font-weight="500" text-anchor="start" x="60" y="434">password_hash</text><text fill="#6c757d" font-family="Helvetica, Arial, sans-serif" font-size="8" font-style="italic" text-anchor="end" x="244" y="434">VARCHAR(255)</text><text fill="#1a1a2e" font-family="Helvetica, Arial, sans-serif" font-size="9" font-weight="500" text-anchor="start" x="60" y="452">role</text><text fill="#6c757d" font-family="Helvetica, Arial, sans-serif" font-size="8" font-style="italic" text-anchor="end" x="244" y="452">VARCHAR(20)</text><rect fill="#ffffff" height="135" rx="6" ry="6" stroke="#0f3460" stroke-width="2" width="200" x="310" y="60" /><rect fill="#0f3460" height="30" rx="6" ry="6" width="200" x="310" y="60" /><rect fill="#ffffff" height="6" width="200" x="310" y="84" /><text fill="#ffffff" font-family="Helvetica, Arial, sans-serif" font-size="12" font-weight="bold" text-anchor="middle" x="410.0" y="80">MedicalForms</text><line stroke="#0f3460" stroke-width="1" x1="310" x2="510" y1="90" y2="90" /><rect fill="#f8f9fa" height="18" stroke="none" width="200" x="310" y="94" /><text fill="#e94560" font-family="Helvetica, Arial, sans-serif" font-size="7.5" font-weight="bold" text-anchor="start" x="314" y="106">PK</text><text fill="#1a1a2e" font-family="Helvetica, Arial, sans-serif" font-size="9" font-weight="500" text-anchor="start" x="338" y="106">formID</text><text fill="#6c757d" font-family="Helvetica, Arial, sans-serif" font-size="8" font-style="italic" text-anchor="end" x="504" y="106">VARCHAR(20)</text><text fill="#f57c00" font-family="Helvetica, Arial, sans-serif" font-size="7.5" font-weight="bold" text-anchor="start" x="314" y="124">FK</text><text fill="#1a1a2e" font-family="Helvetica, Arial, sans-serif" font-size="9" font-weight="500" text-anchor="start" x="338" y="124">patientID</text><text fill="#6c757d" font-family="Helvetica, Arial, sans-serif" font-size="8" font-style="italic" text-anchor="end" x="504" y="124">VARCHAR(20)</text><rect fill="#f8f9fa" height="18" stroke="none" width="200" x="310" y="130" /><text fill="#1a1a2e" font-family="Helvetica, Arial, sans-serif" font-size="9" font-weight="500" text-anchor="start" x="320" y="142">formType</text><text fill="#6c757d" font-family="Helvetica, Arial, sans-serif" font-size="8" font-style="italic" text-anchor="end" x="504" y="142">VARCHAR(50)</text><text fill="#1a1a2e" font-family="Helvetica, Arial, sans-serif" font-size="9" font-weight="500" text-anchor="start" x="320" y="160">status</text><text fill="#6c757d" font-family="Helvetica, Arial, sans-serif" font-size="8" font-style="italic" text-anchor="end" x="504" y="160">VARCHAR(20)</text><rect fill="#f8f9fa" height="18" stroke="none" width="200" x="310" y="166" /><text fill="#1a1a2e" font-family="Helvetica, Arial, sans-serif" font-size="9" font-weight="500" text-anchor="start" x="320" y="178">createdDate</text><text fill="#6c757d" font-family="Helvetica, Arial, sans-serif" font-size="8" font-style="italic" text-anchor="end" x="504" y="178">TIMESTAMP</text><rect fill="#ffffff" height="160" rx="6" ry="6" stroke="#0f3460" stroke-width="2" width="200" x="570" y="60" /><rect fill="#0f3460" height="30" rx="6" ry="6" width="200" x="570" y="60" /><rect fill="#ffffff" height="6" width="200" x="570" y="84" /><text fill="#ffffff" font-family="Helvetica, Arial, sans-serif" font-size="12" font-weight="bold" text-anchor="middle" x="670.0" y="80">SectionOne</text><line stroke="#0f3460" stroke-width="1" x1="570" x2="770" y1="90" y2="90" /><rect fill="#f8f9fa" height="18" stroke="none" width="200" x="570" y="94" /><text fill="#e94560" font-family="Helvetica, Arial, sans-serif" font-size="7.5" font-weight="bold" text-anchor="start" x="574" y="106">PK</text><text fill="#1a1a2e" font-family="Helvetica, Arial, sans-serif" font-size="9" font-weight="500" text-anchor="start" x="598" y="106">sectionOneID</text><text fill="#6c757d" font-family="Helvetica, Arial, sans-serif" font-size="8" font-style="italic" text-anchor="end" x="764" y="106">VARCHAR(20)</text><text fill="#f57c00" font-family="Helvetica, Arial, sans-serif" font-size="7.5" font-weight="bold" text-anchor="start" x="574" y="124">FK</text><text fill="#1a1a2e" font-family="Helvetica, Arial, sans-serif" font-size="9" font-weight="500" text-anchor="start" x="598" y="124">formID</text><text fill="#6c757d" font-family="Helvetica, Arial, sans-serif" font-size="8" font-style="italic" text-anchor="end" x="764" y="124">VARCHAR(20)</text><rect fill="#f8f9fa" height="18" stroke="none" width="200" x="570" y="130" /><text fill="#1a1a2e" font-family="Helvetica, Arial, sans-serif" font-size="9" font-weight="500" text-anchor="start" x="580" y="142">symptoms</text><text fill="#6c757d" font-family="Helvetica, Arial, sans-serif" font-size="8" font-style="italic" text-anchor="end" x="764" y="142">TEXT</text><text fill="#1a1a2e" font-family="Helvetica, Arial, sans-serif" font-size="9" font-weight="500" text-anchor="start" x="580" y="160">currentMedications</text><text fill="#6c757d" font-family="Helvetica, Arial, sans-serif" font-size="8" font-style="italic" text-anchor="end" x="764" y="160">TEXT</text><rect fill="#f8f9fa" height="18" stroke="none" width="200" x="570" y="166" /><text fill="#1a1a2e" font-family="Helvetica, Arial, sans-serif" font-size="9" font-weight="500" text-anchor="start" x="580" y="178">allergies</text><text fill="#6c757d" font-family="Helvetica, Arial, sans-serif" font-size="8" font-style="italic" text-anchor="end" x="764" y="178">TEXT</text><text fill="#1a1a2e" font-family="Helvetica, Arial, sans-serif" font-size="9" font-weight="500" text-anchor="start" x="580" y="196">familyHistory</text><text fill="#6c757d" font-family="Helvetica, Arial, sans-serif" font-size="8" font-style="italic" text-anchor="end" x="764" y="196">TEXT</text><rect fill="#f8f9fa" height="18" stroke="none" width="200" x="570" y="202" /><text fill="#1a1a2e" font-family="Helvetica, Arial, sans-serif" font-size="9" font-weight="500" text-anchor="start" x="580" y="214">lifestyleSmoking</text><text fill="#6c757d" font-family="Helvetica, Arial, sans-serif" font-size="8" font-style="italic" text-anchor="end" x="764" y="214">VARCHAR(20)</text><text fill="#1a1a2e" font-family="Helvetica, Arial, sans-serif" font-size="9" font-weight="500" text-anchor="start" x="580" y="232">lifestyleExercise</text><text fill="#6c757d" font-family="Helvetica, Arial, sans-serif" font-size="8" font-style="italic" text-anchor="end" x="764" y="232">VARCHAR(50)</text><rect fill="#f8f9fa" height="18" stroke="none" width="200" x="570" y="238" /><text fill="#1a1a2e" font-family="Helvetica, Arial, sans-serif" font-size="9" font-weight="500" text-anchor="start" x="580" y="250">submittedDate</text><text fill="#6c757d" font-family="Helvetica, Arial, sans-serif" font-size="8" font-style="italic" text-anchor="end" x="764" y="250">TIMESTAMP</text><rect fill="#ffffff" height="160" rx="6" ry="6" stroke="#0f3460" stroke-width="2" width="200" x="830" y="60" /><rect fill="#0f3460" height="30" rx="6" ry="6" width="200" x="830" y="60" /><rect fill="#ffffff" height="6" width="200" x="830" y="84" /><text fill="#ffffff" font-family="Helvetica, Arial, sans-serif" font-size="12" font-weight="bold" text-anchor="middle" x="930.0" y="80">SectionTwo</text><line stroke="#0f3460" stroke-width="1" x1="830" x2="1030" y1="90" y2="90" /><rect fill="#f8f9fa" height="18" stroke="none" width="200" x="830" y="94" /><text fill="#e94560" font-family="Helvetica, Arial, sans-serif" font-size="7.5" font-weight="bold" text-anchor="start" x="834" y="106">PK</text><text fill="#1a1a2e" font-family="Helvetica, Arial, sans-serif" font-size="9" font-weight="500" text-anchor="start" x="858" y="106">sectionTwoID</text><text fill="#6c757d" font-family="Helvetica, Arial, sans-serif" font-size="8" font-style="italic" text-anchor="end" x="1024" y="106">VARCHAR(20)</text><text fill="#f57c00" font-family="Helvetica, Arial, sans-serif" font-size="7.5" font-weight="bold" text-anchor="start" x="834" y="124">FK</text><text fill="#1a1a2e" font-family="Helvetica, Arial, sans-serif" font-size="9" font-weight="500" text-anchor="start" x="858" y="124">formID</text><text fill="#6c757d" font-family="Helvetica, Arial, sans-serif" font-size="8" font-style="italic" text-anchor="end" x="1024" y="124">VARCHAR(20)</text><rect fill="#f8f9fa" height="18" stroke="none" width="200" x="830" y="130" /><text fill="#f57c00" font-family="Helvetica, Arial, sans-serif" font-size="7.5" font-weight="bold" text-anchor="start" x="834" y="142">FK</text><text fill="#1a1a2e" font-family="Helvetica, Arial, sans-serif" font-size="9" font-weight="500" text-anchor="start" x="858" y="142">consultantID</text><text fill="#6c757d" font-family="Helvetica, Arial, sans-serif" font-size="8" font-style="italic" text-anchor="end" x="1024" y="142">VARCHAR(20)</text><text fill="#1a1a2e" font-family="Helvetica, Arial, sans-serif" font-size="9" font-weight="500" text-anchor="start" x="840" y="160">clinicalNotes</text><text fill="#6c757d" font-family="Helvetica, Arial, sans-serif" font-size="8" font-style="italic" text-anchor="end" x="1024" y="160">TEXT</text><rect fill="#f8f9fa" height="18" stroke="none" width="200" x="830" y="166" /><text fill="#1a1a2e" font-family="Helvetica, Arial, sans-serif" font-size="9" font-weight="500" text-anchor="start" x="840" y="178">diagnosis</text><text fill="#6c757d" font-family="Helvetica, Arial, sans-serif" font-size="8" font-style="italic" text-anchor="end" x="1024" y="178">VARCHAR(200)</text><text fill="#1a1a2e" font-family="Helvetica, Arial, sans-serif" font-size="9" font-weight="500" text-anchor="start" x="840" y="196">severity</text><text fill="#6c757d" font-family="Helvetica, Arial, sans-serif" font-size="8" font-style="italic" text-anchor="end" x="1024" y="196">VARCHAR(20)</text><rect fill="#f8f9fa" height="18" stroke="none" width="200" x="830" y="202" /><text fill="#1a1a2e" font-family="Helvetica, Arial, sans-serif" font-size="9" font-weight="500" text-anchor="start" x="840" y="214">completedDate</text><text fill="#6c757d" font-family="Helvetica, Arial, sans-serif" font-size="8" font-style="italic" text-anchor="end" x="1024" y="214">TIMESTAMP</text><rect fill="#ffffff" height="175" rx="6" ry="6" stroke="#0f3460" stroke-width="2" width="200" x="310" y="240" /><rect fill="#0f3460" height="30" rx="6" ry="6" width="200" x="310" y="240" /><rect fill="#ffffff" height="6" width="200" x="310" y="264" /><text fill="#ffffff" font-family="Helvetica, Arial, sans-serif" font-size="12" font-weight="bold" text-anchor="middle" x="410.0" y="260">VitalSigns</text><line stroke="#0f3460" stroke-width="1" x1="310" x2="510" y1="270" y2="270" /><rect fill="#f8f9fa" height="18" stroke="none" width="200" x="310" y="274" /><text fill="#e94560" font-family="Helvetica, Arial, sans-serif" font-size="7.5" font-weight="bold" text-anchor="start" x="314" y="286">PK</text><text fill="#1a1a2e" font-family="Helvetica, Arial, sans-serif" font-size="9" font-weight="500" text-anchor="start" x="338" y="286">vitalID</text><text fill="#6c757d" font-family="Helvetica, Arial, sans-serif" font-size="8" font-style="italic" text-anchor="end" x="504" y="286">VARCHAR(20)</text><text fill="#f57c00" font-family="Helvetica, Arial, sans-serif" font-size="7.5" font-weight="bold" text-anchor="start" x="314" y="304">FK</text><text fill="#1a1a2e" font-family="Helvetica, Arial, sans-serif" font-size="9" font-weight="500" text-anchor="start" x="338" y="304">patientID</text><text fill="#6c757d" font-family="Helvetica, Arial, sans-serif" font-size="8" font-style="italic" text-anchor="end" x="504" y="304">VARCHAR(20)</text><rect fill="#f8f9fa" height="18" stroke="none" width="200" x="310" y="310" /><text fill="#1a1a2e" font-family="Helvetica, Arial, sans-serif" font-size="9" font-weight="500" text-anchor="start" x="320" y="322">appointmentID</text><text fill="#6c757d" font-family="Helvetica, Arial, sans-serif" font-size="8" font-style="italic" text-anchor="end" x="504" y="322">VARCHAR(20)</text><text fill="#1a1a2e" font-family="Helvetica, Arial, sans-serif" font-size="9" font-weight="500" text-anchor="start" x="320" y="340">bpSystolic</text><text fill="#6c757d" font-family="Helvetica, Arial, sans-serif" font-size="8" font-style="italic" text-anchor="end" x="504" y="340">INT</text><rect fill="#f8f9fa" height="18" stroke="none" width="200" x="310" y="346" /><text fill="#1a1a2e" font-family="Helvetica, Arial, sans-serif" font-size="9" font-weight="500" text-anchor="start" x="320" y="358">bpDiastolic</text><text fill="#6c757d" font-family="Helvetica, Arial, sans-serif" font-size="8" font-style="italic" text-anchor="end" x="504" y="358">INT</text><text fill="#1a1a2e" font-family="Helvetica, Arial, sans-serif" font-size="9" font-weight="500" text-anchor="start" x="320" y="376">heartRate</text><text fill="#6c757d" font-family="Helvetica, Arial, sans-serif" font-size="8" font-style="italic" text-anchor="end" x="504" y="376">INT</text><rect fill="#f8f9fa" height="18" stroke="none" width="200" x="310" y="382" /><text fill="#1a1a2e" font-family="Helvetica, Arial, sans-serif" font-size="9" font-weight="500" text-anchor="start" x="320" y="394">weightKg</text><text fill="#6c757d" font-family="Helvetica, Arial, sans-serif" font-size="8" font-style="italic" text-anchor="end" x="504" y="394">DECIMAL(5,2)</text><text fill="#1a1a2e" font-family="Helvetica, Arial, sans-serif" font-size="9" font-weight="500" text-anchor="start" x="320" y="412">heightCm</text><text fill="#6c757d" font-family="Helvetica, Arial, sans-serif" font-size="8" font-style="italic" text-anchor="end" x="504" y="412">DECIMAL(5,2)</text><rect fill="#f8f9fa" height="18" stroke="none" width="200" x="310" y="418" /><text fill="#1a1a2e" font-family="Helvetica, Arial, sans-serif" font-size="9" font-weight="500" text-anchor="start" x="320" y="430">bmi</text><text fill="#6c757d" font-family="Helvetica, Arial, sans-serif" font-size="8" font-style="italic" text-anchor="end" x="504" y="430">DECIMAL(4,2)</text><text fill="#1a1a2e" font-family="Helvetica, Arial, sans-serif" font-size="9" font-weight="500" text-anchor="start" x="320" y="448">bloodSugar</text><text fill="#6c757d" font-family="Helvetica, Arial, sans-serif" font-size="8" font-style="italic" text-anchor="end" x="504" y="448">DECIMAL(5,2)</text><rect fill="#f8f9fa" height="18" stroke="none" width="200" x="310" y="454" /><text fill="#1a1a2e" font-family="Helvetica, Arial, sans-serif" font-size="9" font-weight="500" text-anchor="start" x="320" y="466">recordedBy</text><text fill="#6c757d" font-family="Helvetica, Arial, sans-serif" font-size="8" font-style="italic" text-anchor="end" x="504" y="466">VARCHAR(20)</text><text fill="#1a1a2e" font-family="Helvetica, Arial, sans-serif" font-size="9" font-weight="500" text-anchor="start" x="320" y="484">recordedDate</text><text fill="#6c757d" font-family="Helvetica, Arial, sans-serif" font-size="8" font-style="italic" text-anchor="end" x="504" y="484">TIMESTAMP</text><rect fill="#ffffff" height="175" rx="6" ry="6" stroke="#0f3460" stroke-width="2" width="200" x="830" y="280" /><rect fill="#0f3460" height="30" rx="6" ry="6" width="200" x="830" y="280" /><rect fill="#ffffff" height="6" width="200" x="830" y="304" /><text fill="#ffffff" font-family="Helvetica, Arial, sans-serif" font-size="12" font-weight="bold" text-anchor="middle" x="930.0" y="300">Appointments</text><line stroke="#0f3460" stroke-width="1" x1="830" x2="1030" y1="310" y2="310" /><rect fill="#f8f9fa" height="18" stroke="none" width="200" x="830" y="314" /><text fill="#e94560" font-family="Helvetica, Arial, sans-serif" font-size="7.5" font-weight="bold" text-anchor="start" x="834" y="326">PK</text><text fill="#1a1a2e" font-family="Helvetica, Arial, sans-serif" font-size="9" font-weight="500" text-anchor="start" x="858" y="326">appointmentID</text><text fill="#6c757d" font-family="Helvetica, Arial, sans-serif" font-size="8" font-style="italic" text-anchor="end" x="1024" y="326">VARCHAR(20)</text><text fill="#f57c00" font-family="Helvetica, Arial, sans-serif" font-size="7.5" font-weight="bold" text-anchor="start" x="834" y="344">FK</text><text fill="#1a1a2e" font-family="Helvetica, Arial, sans-serif" font-size="9" font-weight="500" text-anchor="start" x="858" y="344">patientID</text><text fill="#6c757d" font-family="Helvetica, Arial, sans-serif" font-size="8" font-style="italic" text-anchor="end" x="1024" y="344">VARCHAR(20)</text><rect fill="#f8f9fa" height="18" stroke="none" width="200" x="830" y="350" /><text fill="#f57c00" font-family="Helvetica, Arial, sans-serif" font-size="7.5" font-weight="bold" text-anchor="start" x="834" y="362">FK</text><text fill="#1a1a2e" font-family="Helvetica, Arial, sans-serif" font-size="9" font-weight="500" text-anchor="start" x="858" y="362">consultantID</text><text fill="#6c757d" font-family="Helvetica, Arial, sans-serif" font-size="8" font-style="italic" text-anchor="end" x="1024" y="362">VARCHAR(20)</text><text fill="#1a1a2e" font-family="Helvetica, Arial, sans-serif" font-size="9" font-weight="500" text-anchor="start" x="840" y="380">appointmentDate</text><text fill="#6c757d" font-family="Helvetica, Arial, sans-serif" font-size="8" font-style="italic" text-anchor="end" x="1024" y="380">DATE</text><rect fill="#f8f9fa" height="18" stroke="none" width="200" x="830" y="386" /><text fill="#1a1a2e" font-family="Helvetica, Arial, sans-serif" font-size="9" font-weight="500" text-anchor="start" x="840" y="398">appointmentTime</text><text fill="#6c757d" font-family="Helvetica, Arial, sans-serif" font-size="8" font-style="italic" text-anchor="end" x="1024" y="398">TIME</text><text fill="#1a1a2e" font-family="Helvetica, Arial, sans-serif" font-size="9" font-weight="500" text-anchor="start" x="840" y="416">duration</text><text fill="#6c757d" font-family="Helvetica, Arial, sans-serif" font-size="8" font-style="italic" text-anchor="end" x="1024" y="416">INT</text><rect fill="#f8f9fa" height="18" stroke="none" width="200" x="830" y="422" /><text fill="#1a1a2e" font-family="Helvetica, Arial, sans-serif" font-size="9" font-weight="500" text-anchor="start" x="840" y="434">type</text><text fill="#6c757d" font-family="Helvetica, Arial, sans-serif" font-size="8" font-style="italic" text-anchor="end" x="1024" y="434">VARCHAR(50)</text><text fill="#1a1a2e" font-family="Helvetica, Arial, sans-serif" font-size="9" font-weight="500" text-anchor="start" x="840" y="452">status</text><text fill="#6c757d" font-family="Helvetica, Arial, sans-serif" font-size="8" font-style="italic" text-anchor="end" x="1024" y="452">VARCHAR(20)</text><rect fill="#f8f9fa" height="18" stroke="none" width="200" x="830" y="458" /><text fill="#1a1a2e" font-family="Helvetica, Arial, sans-serif" font-size="9" font-weight="500" text-anchor="start" x="840" y="470">roomNumber</text><text fill="#6c757d" font-family="Helvetica, Arial, sans-serif" font-size="8" font-style="italic" text-anchor="end" x="1024" y="470">VARCHAR(10)</text><rect fill="#ffffff" height="180" rx="6" ry="6" stroke="#0f3460" stroke-width="2" width="200" x="570" y="280" /><rect fill="#0f3460" height="30" rx="6" ry="6" width="200" x="570" y="280" /><rect fill="#ffffff" height="6" width="200" x="570" y="304" /><text fill="#ffffff" font-family="Helvetica, Arial, sans-serif" font-size="12" font-weight="bold" text-anchor="middle" x="670.0" y="300">Prescriptions</text><line stroke="#0f3460" stroke-width="1" x1="570" x2="770" y1="310" y2="310" /><rect fill="#f8f9fa" height="18" stroke="none" width="200" x="570" y="314" /><text fill="#e94560" font-family="Helvetica, Arial, sans-serif" font-size="7.5" font-weight="bold" text-anchor="start" x="574" y="326">PK</text><text fill="#1a1a2e" font-family="Helvetica, Arial, sans-serif" font-size="9" font-weight="500" text-anchor="start" x="598" y="326">prescriptionID</text><text fill="#6c757d" font-family="Helvetica, Arial, sans-serif" font-size="8" font-style="italic" text-anchor="end" x="764" y="326">VARCHAR(20)</text><text fill="#f57c00" font-family="Helvetica, Arial, sans-serif" font-size="7.5" font-weight="bold" text-anchor="start" x="574" y="344">FK</text><text fill="#1a1a2e" font-family="Helvetica, Arial, sans-serif" font-size="9" font-weight="500" text-anchor="start" x="598" y="344">patientID</text><text fill="#6c757d" font-family="Helvetica, Arial, sans-serif" font-size="8" font-style="italic" text-anchor="end" x="764" y="344">VARCHAR(20)</text><rect fill="#f8f9fa" height="18" stroke="none" width="200" x="570" y="350" /><text fill="#f57c00" font-family="Helvetica, Arial, sans-serif" font-size="7.5" font-weight="bold" text-anchor="start" x="574" y="362">FK</text><text fill="#1a1a2e" font-family="Helvetica, Arial, sans-serif" font-size="9" font-weight="500" text-anchor="start" x="598" y="362">consultantID</text><text fill="#6c757d" font-family="Helvetica, Arial, sans-serif" font-size="8" font-style="italic" text-anchor="end" x="764" y="362">VARCHAR(20)</text><text fill="#1a1a2e" font-family="Helvetica, Arial, sans-serif" font-size="9" font-weight="500" text-anchor="start" x="580" y="380">formID</text><text fill="#6c757d" font-family="Helvetica, Arial, sans-serif" font-size="8" font-style="italic" text-anchor="end" x="764" y="380">VARCHAR(20)</text><rect fill="#f8f9fa" height="18" stroke="none" width="200" x="570" y="386" /><text fill="#1a1a2e" font-family="Helvetica, Arial, sans-serif" font-size="9" font-weight="500" text-anchor="start" x="580" y="398">issueDate</text><text fill="#6c757d" font-family="Helvetica, Arial, sans-serif" font-size="8" font-style="italic" text-anchor="end" x="764" y="398">DATE</text><text fill="#1a1a2e" font-family="Helvetica, Arial, sans-serif" font-size="9" font-weight="500" text-anchor="start" x="580" y="416">medications</text><text fill="#6c757d" font-family="Helvetica, Arial, sans-serif" font-size="8" font-style="italic" text-anchor="end" x="764" y="416">TEXT</text><rect fill="#f8f9fa" height="18" stroke="none" width="200" x="570" y="422" /><text fill="#1a1a2e" font-family="Helvetica, Arial, sans-serif" font-size="9" font-weight="500" text-anchor="start" x="580" y="434">dosage</text><text fill="#6c757d" font-family="Helvetica, Arial, sans-serif" font-size="8" font-style="italic" text-anchor="end" x="764" y="434">TEXT</text><text fill="#1a1a2e" font-family="Helvetica, Arial, sans-serif" font-size="9" font-weight="500" text-anchor="start" x="580" y="452">frequency</text><text fill="#6c757d" font-family="Helvetica, Arial, sans-serif" font-size="8" font-style="italic" text-anchor="end" x="764" y="452">TEXT</text><rect fill="#f8f9fa" height="18" stroke="none" width="200" x="570" y="458" /><text fill="#1a1a2e" font-family="Helvetica, Arial, sans-serif" font-size="9" font-weight="500" text-anchor="start" x="580" y="470">duration</text><text fill="#6c757d" font-family="Helvetica, Arial, sans-serif" font-size="8" font-style="italic" text-anchor="end" x="764" y="470">TEXT</text><text fill="#1a1a2e" font-family="Helvetica, Arial, sans-serif" font-size="9" font-weight="500" text-anchor="start" x="580" y="488">instructions</text><text fill="#6c757d" font-family="Helvetica, Arial, sans-serif" font-size="8" font-style="italic" text-anchor="end" x="764" y="488">TEXT</text><rect fill="#f8f9fa" height="18" stroke="none" width="200" x="570" y="494" /><text fill="#1a1a2e" font-family="Helvetica, Arial, sans-serif" font-size="9" font-weight="500" text-anchor="start" x="580" y="506">status</text><text fill="#6c757d" font-family="Helvetica, Arial, sans-serif" font-size="8" font-style="italic" text-anchor="end" x="764" y="506">VARCHAR(20)</text><rect fill="#ffffff" height="140" rx="6" ry="6" stroke="#0f3460" stroke-width="2" width="200" x="390" y="470" /><rect fill="#0f3460" height="30" rx="6" ry="6" width="200" x="390" y="470" /><rect fill="#ffffff" height="6" width="200" x="390" y="494" /><text fill="#ffffff" font-family="Helvetica, Arial, sans-serif" font-size="12" font-weight="bold" text-anchor="middle" x="490.0" y="490">MedicalRecords</text><line stroke="#0f3460" stroke-width="1" x1="390" x2="590" y1="500" y2="500" /><rect fill="#f8f9fa" height="18" stroke="none" width="200" x="390" y="504" /><text fill="#e94560" font-family="Helvetica, Arial, sans-serif" font-size="7.5" font-weight="bold" text-anchor="start" x="394" y="516">PK</text><text fill="#1a1a2e" font-family="Helvetica, Arial, sans-serif" font-size="9" font-weight="500" text-anchor="start" x="418" y="516">recordID</text><text fill="#6c757d" font-family="Helvetica, Arial, sans-serif" font-size="8" font-style="italic" text-anchor="end" x="584" y="516">VARCHAR(20)</text><text fill="#f57c00" font-family="Helvetica, Arial, sans-serif" font-size="7.5" font-weight="bold" text-anchor="start" x="394" y="534">FK</text><text fill="#1a1a2e" font-family="Helvetica, Arial, sans-serif" font-size="9" font-weight="500" text-anchor="start" x="418" y="534">patientID</text><text fill="#6c757d" font-family="Helvetica, Arial, sans-serif" font-size="8" font-style="italic" text-anchor="end" x="584" y="534">VARCHAR(20)</text><rect fill="#f8f9fa" height="18" stroke="none" width="200" x="390" y="540" /><text fill="#1a1a2e" font-family="Helvetica, Arial, sans-serif" font-size="9" font-weight="500" text-anchor="start" x="400" y="552">formID</text><text fill="#6c757d" font-family="Helvetica, Arial, sans-serif" font-size="8" font-style="italic" text-anchor="end" x="584" y="552">VARCHAR(20)</text><text fill="#1a1a2e" font-family="Helvetica, Arial, sans-serif" font-size="9" font-weight="500" text-anchor="start" x="400" y="570">vitalID</text><text fill="#6c757d" font-family="Helvetica, Arial, sans-serif" font-size="8" font-style="italic" text-anchor="end" x="584" y="570">VARCHAR(20)</text><rect fill="#f8f9fa" height="18" stroke="none" width="200" x="390" y="576" /><text fill="#1a1a2e" font-family="Helvetica, Arial, sans-serif" font-size="9" font-weight="500" text-anchor="start" x="400" y="588">prescriptionID</text><text fill="#6c757d" font-family="Helvetica, Arial, sans-serif" font-size="8" font-style="italic" text-anchor="end" x="584" y="588">VARCHAR(20)</text><text fill="#1a1a2e" font-family="Helvetica, Arial, sans-serif" font-size="9" font-weight="500" text-anchor="start" x="400" y="606">createdDate</text><text fill="#6c757d" font-family="Helvetica, Arial, sans-serif" font-size="8" font-style="italic" text-anchor="end" x="584" y="606">DATE</text><rect fill="#f8f9fa" height="18" stroke="none" width="200" x="390" y="612" /><text fill="#1a1a2e" font-family="Helvetica, Arial, sans-serif" font-size="9" font-weight="500" text-anchor="start" x="400" y="624">lastUpdated</text><text fill="#6c757d" font-family="Helvetica, Arial, sans-serif" font-size="8" font-style="italic" text-anchor="end" x="584" y="624">TIMESTAMP</text><line stroke="#0f3460" stroke-width="1.5" x1="250" x2="380.0" y1="147.5" y2="147.5" /><line stroke="#0f3460" stroke-width="1.5" x1="380.0" x2="510" y1="147.5" y2="127.5" /><line stroke="#0f3460" stroke-width="2.5" x1="250" x2="250" y1="141.5" y2="153.5" /><line stroke="#0f3460" stroke-width="1.5" x1="502" x2="510" y1="120.5" y2="127.5" /><line stroke="#0f3460" stroke-width="1.5" x1="502" x2="510" y1="134.5" y2="127.5" /><line stroke="#0f3460" stroke-width="1.5" x1="500" x2="510" y1="127.5" y2="127.5" /><rect fill="#ffffff" height="16" rx="3" stroke="#ffffff" width="56" x="352.0" y="127.5" /><text fill="#e94560" font-family="Helvetica, Arial, sans-serif" font-size="9" font-weight="bold" text-anchor="middle" x="380.0" y="141.5">1:N</text><line stroke="#0f3460" stroke-width="1.5" x1="250" x2="250" y1="147.5" y2="237.5" /><line stroke="#0f3460" stroke-width="1.5" x1="250" x2="510" y1="237.5" y2="327.5" /><line stroke="#0f3460" stroke-width="2.5" x1="244" x2="256" y1="147.5" y2="147.5" /><line stroke="#0f3460" stroke-width="1.5" x1="510" x2="510" y1="319.5" y2="327.5" /><line stroke="#0f3460" stroke-width="1.5" x1="503" x2="510" y1="319.5" y2="327.5" /><line stroke="#0f3460" stroke-width="1.5" x1="517" x2="510" y1="319.5" y2="327.5" /><rect fill="#ffffff" height="16" rx="3" stroke="#ffffff" width="56" x="352.0" y="227.5" /><text fill="#e94560" font-family="Helvetica, Arial, sans-serif" font-size="9" font-weight="bold" text-anchor="middle" x="380.0" y="241.5">1:N</text><line stroke="#0f3460" stroke-width="1.5" x1="250" x2="250" y1="147.5" y2="257.5" /><line stroke="#0f3460" stroke-width="1.5" x1="250" x2="1030" y1="257.5" y2="367.5" /><line stroke="#0f3460" stroke-width="2.5" x1="244" x2="256" y1="147.5" y2="147.5" /><line stroke="#0f3460" stroke-width="1.5" x1="1030" x2="1030" y1="359.5" y2="367.5" /><line stroke="#0f3460" stroke-width="1.5" x1="1023" x2="1030" y1="359.5" y2="367.5" /><line stroke="#0f3460" stroke-width="1.5" x1="1037" x2="1030" y1="359.5" y2="367.5" /><rect fill="#ffffff" height="16" rx="3" stroke="#ffffff" width="56" x="612.0" y="247.5" /><text fill="#e94560" font-family="Helvetica, Arial, sans-serif" font-size="9" font-weight="bold" text-anchor="middle" x="640.0" y="261.5">1:N</text><line stroke="#0f3460" stroke-width="1.5" x1="250" x2="250" y1="147.5" y2="258.75" /><line stroke="#0f3460" stroke-width="1.5" x1="250" x2="770" y1="258.75" y2="370.0" /><line stroke="#0f3460" stroke-width="2.5" x1="244" x2="256" y1="147.5" y2="147.5" /><line stroke="#0f3460" stroke-width="1.5" x1="770" x2="770" y1="362.0" y2="370.0" /><line stroke="#0f3460" stroke-width="1.5" x1="763" x2="770" y1="362.0" y2="370.0" /><line stroke="#0f3460" stroke-width="1.5" x1="777" x2="770" y1="362.0" y2="370.0" /><rect fill="#ffffff" height="16" rx="3" stroke="#ffffff" width="56" x="482.0" y="248.75" /><text fill="#e94560" font-family="Helvetica, Arial, sans-serif" font-size="9" font-weight="bold" text-anchor="middle" x="510.0" y="262.75">1:N</text><line stroke="#0f3460" stroke-width="1.5" x1="250" x2="250" y1="147.5" y2="343.75" /><line stroke="#0f3460" stroke-width="1.5" x1="250" x2="590" y1="343.75" y2="540.0" /><line stroke="#0f3460" stroke-width="2.5" x1="244" x2="256" y1="147.5" y2="147.5" /><line stroke="#0f3460" stroke-width="1.5" x1="590" x2="590" y1="532.0" y2="540.0" /><line stroke="#0f3460" stroke-width="1.5" x1="583" x2="590" y1="532.0" y2="540.0" /><line stroke="#0f3460" stroke-width="1.5" x1="597" x2="590" y1="532.0" y2="540.0" /><line stroke="#0f3460" stroke-width="2.5" x1="244" x2="256" y1="147.5" y2="147.5" /><rect fill="#ffffff" height="16" rx="3" stroke="#ffffff" width="56" x="392.0" y="333.75" /><text fill="#e94560" font-family="Helvetica, Arial, sans-serif" font-size="9" font-weight="bold" text-anchor="middle" x="420.0" y="347.75">1:1</text><line stroke="#0f3460" stroke-width="1.5" x1="510" x2="640.0" y1="127.5" y2="127.5" /><line stroke="#0f3460" stroke-width="1.5" x1="640.0" x2="770" y1="127.5" y2="140.0" /><line stroke="#0f3460" stroke-width="2.5" x1="510" x2="510" y1="121.5" y2="133.5" /><line stroke="#0f3460" stroke-width="1.5" x1="762" x2="770" y1="133.0" y2="140.0" /><line stroke="#0f3460" stroke-width="1.5" x1="762" x2="770" y1="147.0" y2="140.0" /><line stroke="#0f3460" stroke-width="1.5" x1="760" x2="770" y1="140.0" y2="140.0" /><rect fill="#ffffff" height="16" rx="3" stroke="#ffffff" width="56" x="612.0" y="123.75" /><text fill="#e94560" font-family="Helvetica, Arial, sans-serif" font-size="9" font-weight="bold" text-anchor="middle" x="640.0" y="137.75">1:1</text><line stroke="#0f3460" stroke-width="1.5" x1="510" x2="770.0" y1="127.5" y2="127.5" /><line stroke="#0f3460" stroke-width="1.5" x1="770.0" x2="1030" y1="127.5" y2="140.0" /><line stroke="#0f3460" stroke-width="2.5" x1="510" x2="510" y1="121.5" y2="133.5" /><line stroke="#0f3460" stroke-width="1.5" x1="1022" x2="1030" y1="133.0" y2="140.0" /><line stroke="#0f3460" stroke-width="1.5" x1="1022" x2="1030" y1="147.0" y2="140.0" /><line stroke="#0f3460" stroke-width="1.5" x1="1020" x2="1030" y1="140.0" y2="140.0" /><rect fill="#ffffff" height="16" rx="3" stroke="#ffffff" width="56" x="742.0" y="123.75" /><text fill="#e94560" font-family="Helvetica, Arial, sans-serif" font-size="9" font-weight="bold" text-anchor="middle" x="770.0" y="137.75">1:1</text><line stroke="#0f3460" stroke-width="1.5" x1="510" x2="510" y1="127.5" y2="247.5" /><line stroke="#0f3460" stroke-width="1.5" x1="510" x2="1030" y1="247.5" y2="367.5" /><line stroke="#0f3460" stroke-width="2.5" x1="504" x2="516" y1="127.5" y2="127.5" /><line stroke="#0f3460" stroke-width="1.5" x1="1030" x2="1030" y1="359.5" y2="367.5" /><line stroke="#0f3460" stroke-width="1.5" x1="1023" x2="1030" y1="359.5" y2="367.5" /><line stroke="#0f3460" stroke-width="1.5" x1="1037" x2="1030" y1="359.5" y2="367.5" /><line stroke="#0f3460" stroke-width="2.5" x1="504" x2="516" y1="127.5" y2="127.5" /><rect fill="#ffffff" height="16" rx="3" stroke="#ffffff" width="56" x="742.0" y="237.5" /><text fill="#e94560" font-family="Helvetica, Arial, sans-serif" font-size="9" font-weight="bold" text-anchor="middle" x="770.0" y="251.5">1:1</text><line stroke="#0f3460" stroke-width="1.5" x1="250" x2="250" y1="347.5" y2="243.75" /><line stroke="#0f3460" stroke-width="1.5" x1="250" x2="1030" y1="243.75" y2="140.0" /><line stroke="#0f3460" stroke-width="2.5" x1="244" x2="256" y1="347.5" y2="347.5" /><line stroke="#0f3460" stroke-width="1.5" x1="1030" x2="1030" y1="132.0" y2="140.0" /><line stroke="#0f3460" stroke-width="1.5" x1="1023" x2="1030" y1="132.0" y2="140.0" /><line stroke="#0f3460" stroke-width="1.5" x1="1037" x2="1030" y1="132.0" y2="140.0" /><rect fill="#ffffff" height="16" rx="3" stroke="#ffffff" width="56" x="612.0" y="233.75" /><text fill="#e94560" font-family="Helvetica, Arial, sans-serif" font-size="9" font-weight="bold" text-anchor="middle" x="640.0" y="247.75">1:N</text><line stroke="#0f3460" stroke-width="1.5" x1="250" x2="510.0" y1="347.5" y2="347.5" /><line stroke="#0f3460" stroke-width="1.5" x1="510.0" x2="770" y1="347.5" y2="370.0" /><line stroke="#0f3460" stroke-width="2.5" x1="250" x2="250" y1="341.5" y2="353.5" /><line stroke="#0f3460" stroke-width="1.5" x1="762" x2="770" y1="363.0" y2="370.0" /><line stroke="#0f3460" stroke-width="1.5" x1="762" x2="770" y1="377.0" y2="370.0" /><line stroke="#0f3460" stroke-width="1.5" x1="760" x2="770" y1="370.0" y2="370.0" /><rect fill="#ffffff" height="16" rx="3" stroke="#ffffff" width="56" x="482.0" y="348.75" /><text fill="#e94560" font-family="Helvetica, Arial, sans-serif" font-size="9" font-weight="bold" text-anchor="middle" x="510.0" y="362.75">1:N</text><line stroke="#0f3460" stroke-width="1.5" x1="250" x2="640.0" y1="347.5" y2="347.5" /><line stroke="#0f3460" stroke-width="1.5" x1="640.0" x2="1030" y1="347.5" y2="367.5" /><line stroke="#0f3460" stroke-width="2.5" x1="250" x2="250" y1="341.5" y2="353.5" /><line stroke="#0f3460" stroke-width="1.5" x1="1022" x2="1030" y1="360.5" y2="367.5" /><line stroke="#0f3460" stroke-width="1.5" x1="1022" x2="1030" y1="374.5" y2="367.5" /><line stroke="#0f3460" stroke-width="1.5" x1="1020" x2="1030" y1="367.5" y2="367.5" /><rect fill="#ffffff" height="16" rx="3" stroke="#ffffff" width="56" x="612.0" y="347.5" /><text fill="#e94560" font-family="Helvetica, Arial, sans-serif" font-size="9" font-weight="bold" text-anchor="middle" x="640.0" y="361.5">1:N</text><rect fill="#f8f9fa" height="50" rx="5" stroke="#6c757d" stroke-width="0.5" width="1020" x="40" y="585" /><text fill="#1a1a2e" font-family="Helvetica, Arial, sans-serif" font-size="10" font-weight="bold" x="50" y="602">UML-to-ERD Conversion Notes:</text><text fill="#6c757d" font-family="Helvetica, Arial, sans-serif" font-size="9" x="50" y="618">Class $arrow.r$ Entity table  |  Attribute $arrow.r$ Column</text><text fill="#6c757d" font-family="Helvetica, Arial, sans-serif" font-size="9" x="50" y="631">Primary Key (PK) preserved  |  Association $arrow.r$ Foreign Key (FK)</text><text fill="#6c757d" font-family="Helvetica, Arial, sans-serif" font-size="9" x="50" y="644">1:1 association $arrow.r$ shared PK or FK  |  1:N association $arrow.r$ FK in 'many' entity</text><text fill="#6c757d" font-family="Helvetica, Arial, sans-serif" font-size="9" x="50" y="657">Abstract class $arrow.r$ Regular entity (MedicalForm)  |  Composition $arrow.r$ Strong entity</text><text fill="#1a1a2e" font-family="Helvetica, Arial, sans-serif" font-size="10" font-weight="bold" x="720" y="602">Legend:</text><text fill="#e94560" font-family="Helvetica, Arial, sans-serif" font-size="8.5" font-weight="bold" x="800" y="602">Primary Key (PK)</text><text fill="#f57c00" font-family="Helvetica, Arial, sans-serif" font-size="8.5" font-weight="bold" x="915" y="602">Foreign Key (FK)</text><text fill="#6c757d" font-family="Helvetica, Arial, sans-serif" font-size="8.5" x="1030" y="602">Unique (UK)</text><line stroke="#6c757d" stroke-width="0.8" x1="1030" x2="1090" y1="605" y2="605" /><line stroke="#0f3460" stroke-width="1.5" x1="1145" x2="1159" y1="604" y2="604" /><line stroke="#0f3460" stroke-width="1.5" x1="1155" x2="1159" y1="598" y2="604" /><line stroke="#0f3460" stroke-width="1.5" x1="1155" x2="1159" y1="610" y2="604" /><text fill="#6c757d" font-family="Helvetica, Arial, sans-serif" font-size="8" x="1165" y="607">1:N Relationship</text><line stroke="#0f3460" stroke-width="2.5" x1="1260" x2="1260" y1="598" y2="610" /><text fill="#6c757d" font-family="Helvetica, Arial, sans-serif" font-size="8" x="1270" y="607">1:1 Relationship</text></svg>